<svg width="21" height="20" viewBox="0 0 21 20" fill="none" xmlns="http://www.w3.org/2000/svg">
<path d="M10.5013 18.3332C15.1038 18.3332 18.8346 14.6023 18.8346 9.99984C18.8346 5.39734 15.1038 1.6665 10.5013 1.6665C5.8988 1.6665 2.16797 5.39734 2.16797 9.99984C2.16797 14.6023 5.8988 18.3332 10.5013 18.3332Z" stroke="white" stroke-width="1.25" stroke-linecap="round" stroke-linejoin="round"/>
<path d="M13.418 13.3332C13.5285 13.3332 13.6345 13.2893 13.7126 13.2111C13.7907 13.133 13.8346 13.027 13.8346 12.9165C13.8346 12.806 13.7907 12.7 13.7126 12.6219C13.6345 12.5437 13.5285 12.4998 13.418 12.4998C13.3075 12.4998 13.2015 12.5437 13.1233 12.6219C13.0452 12.7 13.0013 12.806 13.0013 12.9165C13.0013 13.027 13.0452 13.133 13.1233 13.2111C13.2015 13.2893 13.3075 13.3332 13.418 13.3332ZM7.58464 7.49984C7.69514 7.49984 7.80112 7.45594 7.87926 7.3778C7.9574 7.29966 8.0013 7.19368 8.0013 7.08317C8.0013 6.97266 7.9574 6.86668 7.87926 6.78854C7.80112 6.7104 7.69514 6.6665 7.58464 6.6665C7.47413 6.6665 7.36815 6.7104 7.29001 6.78854C7.21187 6.86668 7.16797 6.97266 7.16797 7.08317C7.16797 7.19368 7.21187 7.29966 7.29001 7.3778C7.36815 7.45594 7.47413 7.49984 7.58464 7.49984Z" fill="white" stroke="white" stroke-width="1.25" stroke-linecap="round" stroke-linejoin="round"/>
<path d="M13.8346 6.6665L7.16797 13.3332" stroke="white" stroke-width="1.25" stroke-linecap="round" stroke-linejoin="round"/>
</svg>
