<svg width="71" height="71" viewBox="0 0 71 71" fill="none" xmlns="http://www.w3.org/2000/svg">
<g clip-path="url(#clip0_3644_887)">
<rect x="18.2227" y="8.78613" width="35.0498" height="35.0498" rx="15.8965" fill="white"/>
<path opacity="0.939" fill-rule="evenodd" clip-rule="evenodd" d="M35.4031 17.0127C35.604 17.0127 35.805 17.0127 36.006 17.0127C37.3956 18.3173 38.7483 19.6623 40.064 21.0475C40.1614 21.2206 40.2155 21.4061 40.2263 21.6041C40.4516 21.6044 40.6525 21.674 40.8292 21.8128C42.0699 23.0998 43.3298 24.3752 44.609 25.6389C44.8361 26.0214 44.8207 26.3924 44.5626 26.752C43.2718 28.0428 41.9809 29.3337 40.6901 30.6245C40.551 30.6709 40.4118 30.7173 40.2727 30.7636C40.3966 31.0426 40.3734 31.3132 40.2031 31.5752C38.8968 32.8661 37.606 34.1724 36.3306 35.4941C36.2464 35.5292 36.1692 35.5679 36.0987 35.6101C35.9132 35.6101 35.7277 35.6101 35.5422 35.6101C34.1358 34.2887 32.7677 32.9283 31.4378 31.5289C31.3295 31.3198 31.3063 31.1034 31.3682 30.8796C31.1256 30.8765 30.8937 30.8069 30.6726 30.6709C29.3504 29.3255 28.0364 27.9729 26.7305 26.6128C26.7305 26.4119 26.7305 26.2109 26.7305 26.0099C26.771 25.914 26.8251 25.8213 26.8928 25.7317C28.3958 24.2446 29.8335 22.7915 31.2059 21.3722C31.2395 21.2586 31.2859 21.1504 31.345 21.0475C32.6191 19.7271 33.9099 18.4208 35.2176 17.1286C35.2902 17.1004 35.3521 17.0618 35.4031 17.0127ZM35.6813 26.1491C35.6841 26.1239 35.6996 26.1084 35.7277 26.1027C35.7605 26.2356 35.7915 26.367 35.8205 26.4969C35.7678 26.5316 35.7214 26.5239 35.6813 26.4737C35.74 26.3591 35.74 26.2508 35.6813 26.1491Z" fill="#1456A1"/>
<path fill-rule="evenodd" clip-rule="evenodd" d="M35.5408 17.2905C35.7092 17.2748 35.8637 17.3134 36.0045 17.4065C37.2967 18.6831 38.5721 19.974 39.8307 21.279C39.9226 21.4858 39.9072 21.6867 39.7843 21.8819C38.5231 23.1277 37.2786 24.3876 36.0509 25.6617C35.8159 25.8131 35.584 25.8131 35.3552 25.6617C34.1275 24.3876 32.8831 23.1277 31.6219 21.8819C31.4926 21.6885 31.4771 21.4876 31.5755 21.279C32.8756 19.9248 34.1974 18.5953 35.5408 17.2905Z" fill="#F5F7FA"/>
<path fill-rule="evenodd" clip-rule="evenodd" d="M35.5437 17.8471C35.7811 17.8188 35.9975 17.8729 36.193 18.0095C37.1888 19.0517 38.2014 20.0797 39.2307 21.0936C39.4256 21.3606 39.4411 21.6388 39.2771 21.9284C38.2504 23.0015 37.2069 24.0604 36.1466 25.1052C35.8128 25.2845 35.5037 25.2536 35.2191 25.0125C34.2542 24.0012 33.2726 23.0041 32.2741 22.0211C32.1026 21.7593 32.0717 21.481 32.1814 21.1863C33.2664 20.0317 34.3872 18.9186 35.5437 17.8471Z" fill="#1858A2"/>
<path fill-rule="evenodd" clip-rule="evenodd" d="M35.8201 18.1717C35.8384 20.3988 35.792 22.6249 35.681 24.8501C35.7551 24.8377 35.8169 24.8531 35.8665 24.8965C35.7187 24.9646 35.5796 24.9415 35.4491 24.8269C35.2059 24.6071 34.9895 24.3675 34.7998 24.108C34.7993 24.0377 34.7684 23.9836 34.707 23.9457C34.7731 23.6736 34.8041 23.3953 34.7998 23.1109C34.7843 22.7863 34.7689 22.4616 34.7534 22.137C34.7843 21.7969 34.8152 21.4568 34.8462 21.1167C34.8307 20.7921 34.8152 20.4674 34.7998 20.1428C34.8646 19.7718 34.8956 19.393 34.8925 19.0065C34.8462 19.0065 34.7998 19.0065 34.7534 19.0065C35.0068 18.7299 35.2696 18.4594 35.5418 18.1949C35.6333 18.1719 35.7261 18.1642 35.8201 18.1717Z" fill="#D7EEFA"/>
<path fill-rule="evenodd" clip-rule="evenodd" d="M35.8188 18.1719C36.1853 18.4144 36.5099 18.7082 36.7927 19.053C36.774 19.1017 36.7431 19.1017 36.7 19.053C36.6621 19.8833 36.6157 20.7104 36.5609 21.5342C36.5672 22.4388 36.5672 23.3432 36.5609 24.2473C36.3572 24.4975 36.1253 24.7139 35.8652 24.8966C35.8157 24.8533 35.7538 24.8378 35.6797 24.8502C35.7907 22.625 35.8371 20.3989 35.8188 18.1719Z" fill="#C5E6F9"/>
<path fill-rule="evenodd" clip-rule="evenodd" d="M36.7944 19.0527C37.0868 19.3607 37.3806 19.6699 37.6756 19.9803C37.6612 20.0377 37.638 20.0377 37.606 19.9803C37.5306 21.0802 37.5074 22.1778 37.5364 23.2731C37.2272 23.6132 36.9026 23.9378 36.5625 24.247C36.5688 23.3428 36.5688 22.4385 36.5625 21.5339C36.6173 20.7101 36.6637 19.883 36.7016 19.0527C36.7447 19.1014 36.7756 19.1014 36.7944 19.0527Z" fill="#ADDDF7"/>
<path fill-rule="evenodd" clip-rule="evenodd" d="M34.7528 19.0068C34.7992 19.0068 34.8456 19.0068 34.892 19.0068C34.895 19.3933 34.8641 19.7721 34.7992 20.1431C34.8147 20.4677 34.8302 20.7924 34.8456 21.117C34.8147 21.4571 34.7838 21.7972 34.7528 22.1373C34.7683 22.462 34.7838 22.7866 34.7992 23.1112C34.8035 23.3956 34.7726 23.6739 34.7065 23.946C34.7678 23.9839 34.7987 24.038 34.7992 24.1084C34.0124 23.3448 33.2317 22.5718 32.4572 21.7895C32.355 21.5928 32.3705 21.4073 32.5035 21.233C33.2472 20.4816 33.9969 19.7395 34.7528 19.0068Z" fill="#F6FAFC"/>
<path fill-rule="evenodd" clip-rule="evenodd" d="M37.6746 19.9805C38.1368 20.4194 38.5928 20.8677 39.0428 21.3254C39.0737 21.4645 39.0737 21.6037 39.0428 21.7428C38.5633 22.2764 38.0609 22.7865 37.5355 23.2733C37.5065 22.178 37.5297 21.0804 37.6051 19.9805C37.6371 20.0379 37.6603 20.0379 37.6746 19.9805Z" fill="#A1D7F6"/>
<path fill-rule="evenodd" clip-rule="evenodd" d="M40.0877 21.9286C40.2715 21.9095 40.4415 21.9481 40.5978 22.0445C41.8255 23.3186 43.07 24.5785 44.3312 25.8243C44.4826 26.053 44.4826 26.2849 44.3312 26.5199C43.0854 27.7502 41.8564 28.9947 40.6442 30.2533C40.4485 30.4251 40.2321 30.456 39.9949 30.3461C38.7027 29.0694 37.4274 27.7786 36.1688 26.4735C36.099 26.3094 36.0836 26.1394 36.1224 25.9634C37.403 24.6828 38.6861 23.3997 39.9717 22.1141C40.0024 22.0452 40.0411 21.9834 40.0877 21.9286Z" fill="#F5F7FA"/>
<path fill-rule="evenodd" clip-rule="evenodd" d="M30.996 22.0677C31.1573 22.0531 31.3119 22.0763 31.4597 22.1373C32.7376 23.4152 34.013 24.6906 35.2859 25.9634C35.4405 26.1799 35.4405 26.3963 35.2859 26.6127C34.0427 27.9023 32.7828 29.1776 31.5061 30.4389C31.3052 30.5316 31.1042 30.5316 30.9032 30.4389C29.6265 29.1776 28.3666 27.9023 27.1235 26.6127C26.9745 26.3948 26.9745 26.1783 27.1235 25.9634C28.4262 24.6685 29.717 23.3699 30.996 22.0677Z" fill="#F5F7FA"/>
<path fill-rule="evenodd" clip-rule="evenodd" d="M40.0408 22.4857C40.2686 22.4654 40.485 22.5041 40.6901 22.6016C41.7504 23.6464 42.7939 24.7054 43.8206 25.7785C43.9669 26.0391 43.9669 26.3019 43.8206 26.5669C42.7758 27.5963 41.7477 28.6398 40.7365 29.6974C40.4647 29.8844 40.1865 29.8999 39.9017 29.7438C38.8414 28.699 37.7979 27.6401 36.7712 26.5669C36.5762 26.1783 36.638 25.8382 36.9567 25.5466C37.9799 24.5157 39.0079 23.4954 40.0408 22.4857Z" fill="#1858A2"/>
<path fill-rule="evenodd" clip-rule="evenodd" d="M30.9965 22.6246C31.226 22.5995 31.4424 22.6381 31.6458 22.7405C32.706 23.7853 33.7495 24.8443 34.7762 25.9174C34.9415 26.2294 34.9106 26.5231 34.6835 26.7986C33.6554 27.8266 32.6274 28.8546 31.5994 29.8827C31.3266 29.9874 31.0638 29.972 30.811 29.8363C29.7661 28.807 28.7381 27.7635 27.7269 26.7058C27.5754 26.4263 27.5754 26.148 27.7269 25.871C28.7717 24.8417 29.7997 23.7982 30.811 22.7405C30.8836 22.7123 30.9454 22.6737 30.9965 22.6246Z" fill="#1958A2"/>
<path fill-rule="evenodd" clip-rule="evenodd" d="M40.7361 23.0877C40.6819 24.9807 40.62 26.8744 40.5506 28.769C40.5519 28.9814 40.5674 29.1901 40.597 29.3951C40.576 29.4395 40.5451 29.4782 40.5043 29.511C40.3651 29.5419 40.226 29.5419 40.0869 29.511C39.9846 29.4165 39.8918 29.3161 39.8086 29.2095C39.8922 28.9037 39.9308 28.579 39.9245 28.2356C39.94 28.5448 39.9555 28.854 39.9709 29.1632C40.0294 27.122 40.0989 25.0813 40.1796 23.0413C40.1757 22.9563 40.1447 22.8945 40.0869 22.8558C40.092 22.8272 40.1075 22.804 40.1332 22.7863C40.4072 22.7378 40.6082 22.8382 40.7361 23.0877Z" fill="#CCE9FA"/>
<path fill-rule="evenodd" clip-rule="evenodd" d="M31.7401 23.2737C31.7269 23.3102 31.7037 23.3412 31.6705 23.3664C31.6065 25.3915 31.5447 27.4166 31.485 29.4419C31.4299 29.4912 31.4067 29.553 31.4154 29.6274C31.1483 29.7379 30.9474 29.6607 30.8125 29.3955C30.8587 29.3995 30.8973 29.384 30.9284 29.3491C30.955 28.0115 30.9937 26.6743 31.0444 25.3375C31.0303 24.5874 31.0072 23.8376 30.9748 23.0881C30.937 23.1495 30.8829 23.1804 30.8125 23.1809C31.152 22.7939 31.4612 22.8248 31.7401 23.2737Z" fill="#CCE9FA"/>
<path fill-rule="evenodd" clip-rule="evenodd" d="M40.0872 22.8564C40.1451 22.8951 40.176 22.9569 40.18 23.042C40.0993 25.082 40.0297 27.1226 39.9713 29.1638C39.9558 28.8546 39.9403 28.5454 39.9249 28.2362C39.9311 28.5797 39.8925 28.9043 39.8089 29.2102C39.5616 28.9937 39.3297 28.7618 39.1133 28.5145C39.1842 28.0967 39.2306 27.6716 39.2524 27.2391C39.2224 27.0807 39.2069 26.9184 39.206 26.7522C39.2547 25.7213 39.3011 24.6933 39.3452 23.6681C39.3346 23.6495 39.3191 23.6418 39.2988 23.6449C39.5461 23.3666 39.8089 23.1038 40.0872 22.8564Z" fill="#DDF0FB"/>
<path fill-rule="evenodd" clip-rule="evenodd" d="M30.8119 29.3952C30.5336 29.1479 30.2708 28.8851 30.0234 28.6068C30.0984 28.5563 30.1371 28.479 30.1394 28.3749C30.1791 26.8595 30.2101 25.3445 30.2321 23.8299C30.1943 23.8913 30.1402 23.9222 30.0698 23.9227C30.3017 23.6599 30.549 23.4125 30.8119 23.1806C30.8822 23.1801 30.9363 23.1492 30.9742 23.0879C31.0065 23.8374 31.0297 24.5871 31.0437 25.3372C30.993 26.674 30.9544 28.0112 30.9278 29.3489C30.8967 29.3837 30.858 29.3992 30.8119 29.3952Z" fill="#DDF0FB"/>
<path fill-rule="evenodd" clip-rule="evenodd" d="M40.7363 23.0879C41.1228 23.4435 41.4938 23.8145 41.8494 24.201C41.835 24.2584 41.8118 24.2584 41.7798 24.201C41.7072 25.5641 41.684 26.9245 41.7102 28.2822C41.3546 28.6686 40.9836 29.0397 40.5972 29.3952C40.5675 29.1902 40.5521 28.9815 40.5508 28.7691C40.6202 26.8746 40.682 24.9809 40.7363 23.0879Z" fill="#BCE3F8"/>
<path fill-rule="evenodd" clip-rule="evenodd" d="M31.7405 23.2734C32.0961 23.5981 32.4362 23.9382 32.7608 24.2937C32.6957 25.6463 32.6339 26.9989 32.5753 28.3518C32.6011 28.3695 32.6165 28.3927 32.6217 28.4213C32.2317 28.8422 31.8298 29.2442 31.4158 29.6272C31.4071 29.5528 31.4303 29.4909 31.4854 29.4416C31.5451 27.4164 31.6069 25.3913 31.6709 23.3662C31.7042 23.341 31.7274 23.31 31.7405 23.2734Z" fill="#BCE3F8"/>
<path fill-rule="evenodd" clip-rule="evenodd" d="M39.2989 23.6452C39.3193 23.6422 39.3348 23.6499 39.3453 23.6684C39.3013 24.6936 39.2549 25.7216 39.2062 26.7525C39.207 26.9187 39.2225 27.081 39.2526 27.2394C39.2307 27.6719 39.1843 28.097 39.1134 28.5148C38.3871 27.8272 37.6838 27.116 37.0033 26.3814C36.9022 26.1999 36.9176 26.0299 37.0496 25.8713C37.7933 25.1199 38.543 24.3778 39.2989 23.6452Z" fill="#F6FAFC"/>
<path fill-rule="evenodd" clip-rule="evenodd" d="M30.024 28.607C29.3156 27.9327 28.6276 27.2371 27.9602 26.52C27.8674 26.3654 27.8674 26.2108 27.9602 26.0562C28.6742 25.35 29.3776 24.6388 30.0704 23.9228C30.1407 23.9223 30.1949 23.8914 30.2327 23.8301C30.2106 25.3446 30.1797 26.8596 30.1399 28.3751C30.1376 28.4791 30.099 28.5565 30.024 28.607Z" fill="#F7FAFD"/>
<path fill-rule="evenodd" clip-rule="evenodd" d="M41.8488 24.2012C42.4191 24.7483 42.9834 25.3049 43.5416 25.8708C43.6779 26.0277 43.6934 26.1978 43.5879 26.3809C42.9512 27.0099 42.3251 27.6437 41.7096 28.2824C41.6834 26.9247 41.7066 25.5643 41.7792 24.2012C41.8112 24.2586 41.8344 24.2586 41.8488 24.2012Z" fill="#A2D8F6"/>
<path fill-rule="evenodd" clip-rule="evenodd" d="M32.7597 24.2939C33.3456 24.8566 33.9253 25.4286 34.4989 26.0099C34.5916 26.1954 34.5916 26.3809 34.4989 26.5664C33.8789 27.1942 33.2528 27.8126 32.6206 28.4215C32.6154 28.3929 32.6 28.3697 32.5742 28.352C32.6328 26.9991 32.6947 25.6465 32.7597 24.2939Z" fill="#A3D8F6"/>
<path fill-rule="evenodd" clip-rule="evenodd" d="M35.6368 26.8446C35.8605 26.8201 36.0615 26.8742 36.2397 27.0069C37.4365 28.2501 38.65 29.4791 39.8803 30.6939C40.0152 30.9154 40.0307 31.1473 39.9267 31.3896C38.6836 32.6791 37.4236 33.9545 36.1469 35.2157C35.9062 35.3759 35.6744 35.3604 35.4513 35.1694C34.2545 33.9262 33.0409 32.6972 31.8106 31.4824C31.6216 31.2451 31.6062 30.9978 31.7643 30.7403C33.067 29.4454 34.3578 28.1468 35.6368 26.8446Z" fill="#F5F8FA"/>
<path fill-rule="evenodd" clip-rule="evenodd" d="M35.6338 27.4007C35.8616 27.3805 36.078 27.4191 36.2831 27.5167C37.342 28.6066 38.401 29.6964 39.4599 30.7863C39.5227 31.0724 39.4763 31.3351 39.3208 31.5747C38.2927 32.6028 37.2647 33.6308 36.2367 34.6588C35.988 34.8094 35.7406 34.8094 35.4946 34.6588C34.4666 33.6308 33.4386 32.6028 32.4105 31.5747C32.2185 31.2721 32.203 30.9629 32.3642 30.6472C33.4089 29.6178 34.437 28.5743 35.4483 27.5167C35.5209 27.4885 35.5828 27.4498 35.6338 27.4007Z" fill="#1958A2"/>
<path fill-rule="evenodd" clip-rule="evenodd" d="M36.0995 27.7725C36.052 27.7909 36.0442 27.8218 36.0763 27.8652C36.1459 27.9348 36.2154 28.0043 36.285 28.0739C36.216 30.0655 36.1619 32.0675 36.1227 34.0798C36.1151 34.1807 36.0765 34.2657 36.0067 34.3349C36.0343 34.3564 36.0652 34.3641 36.0995 34.3581C36.0944 34.3867 36.0789 34.4099 36.0531 34.4276C35.9294 34.4586 35.8058 34.4586 35.6821 34.4276C35.6412 34.3948 35.6104 34.3561 35.5893 34.3117C35.5611 34.0975 35.5456 33.8811 35.543 33.6624C35.6475 31.6924 35.6783 29.729 35.6357 27.7725C35.7903 27.6488 35.9449 27.6488 36.0995 27.7725Z" fill="#CCE9FA"/>
<path fill-rule="evenodd" clip-rule="evenodd" d="M35.6346 27.7725C35.6772 29.729 35.6463 31.6924 35.5418 33.6624C35.5445 33.8811 35.5599 34.0975 35.5882 34.3117C35.279 34.0334 34.9853 33.7397 34.707 33.4305C34.7962 31.8466 34.8348 30.2544 34.823 28.6536C34.7919 28.6885 34.7532 28.704 34.707 28.7C35.0007 28.3754 35.3099 28.0662 35.6346 27.7725Z" fill="#DDF0FB"/>
<path fill-rule="evenodd" clip-rule="evenodd" d="M36.1006 27.7725C36.5489 28.1899 36.9817 28.6227 37.3991 29.071C37.339 29.3847 37.3081 29.7094 37.3064 30.045C37.2884 31.059 37.2575 32.0715 37.2136 33.0827C37.2249 33.1245 37.2404 33.1632 37.26 33.1986C36.8868 33.6028 36.5003 33.9893 36.1006 34.3581C36.0663 34.3641 36.0354 34.3564 36.0078 34.3349C36.0776 34.2657 36.1162 34.1807 36.1238 34.0798C36.1629 32.0675 36.2171 30.0655 36.2861 28.0739C36.2165 28.0043 36.1469 27.9348 36.0774 27.8652C36.0453 27.8218 36.053 27.7909 36.1006 27.7725Z" fill="#BCE3F8"/>
<path fill-rule="evenodd" clip-rule="evenodd" d="M34.708 33.4302C33.9985 32.7439 33.2951 32.0482 32.5978 31.3432C32.529 31.1947 32.5135 31.0401 32.5514 30.8794C33.2809 30.1577 33.9997 29.4312 34.708 28.6997C34.7542 28.7037 34.7928 28.6882 34.8239 28.6533C34.8358 30.254 34.7971 31.8463 34.708 33.4302Z" fill="#F6FAFC"/>
<path fill-rule="evenodd" clip-rule="evenodd" d="M37.3964 29.0713C37.981 29.6791 38.5762 30.282 39.182 30.88C39.2199 31.0407 39.2044 31.1953 39.1356 31.3438C38.5156 31.9715 37.8895 32.5899 37.2573 33.1989C37.2377 33.1634 37.2222 33.1248 37.2109 33.0829C37.2548 32.0718 37.2857 31.0592 37.3037 30.0452C37.3054 29.7096 37.3363 29.385 37.3964 29.0713Z" fill="#A3D8F6"/>
<path fill-rule="evenodd" clip-rule="evenodd" d="M35.7483 0.549805C21.2312 0.549805 9.46094 12.3201 9.46094 26.8372C9.46094 41.3542 35.7483 70.6494 35.7483 70.6494C35.7483 70.6494 62.0356 41.3542 62.0356 26.8372C62.0356 12.3201 50.2653 0.549805 35.7483 0.549805ZM35.7483 44.3621C32.2822 44.3621 28.8939 43.3342 26.012 41.4086C23.13 39.4829 20.8838 36.7459 19.5574 33.5436C18.231 30.3414 17.8839 26.8177 18.5601 23.4182C19.2363 20.0187 20.9054 16.8961 23.3563 14.4452C25.8072 11.9943 28.9299 10.3252 32.3294 9.64899C35.7289 8.97279 39.2525 9.31984 42.4548 10.6463C45.657 11.9727 48.3941 14.2189 50.3197 17.1008C52.2454 19.9828 53.2732 23.3711 53.2732 26.8372C53.273 31.485 51.4265 35.9424 48.14 39.2289C44.8535 42.5154 40.3961 44.3618 35.7483 44.3621Z" fill="url(#paint0_linear_3644_887)"/>
</g>
<defs>
<linearGradient id="paint0_linear_3644_887" x1="35.7483" y1="0.549805" x2="35.7483" y2="70.6494" gradientUnits="userSpaceOnUse">
<stop stop-color="#2C96E1"/>
<stop offset="1" stop-color="#0069B4"/>
</linearGradient>
<clipPath id="clip0_3644_887">
<rect width="70.0996" height="70.0996" fill="white" transform="translate(0.699219 0.549805)"/>
</clipPath>
</defs>
</svg>
