<svg width="33" height="33" viewBox="0 0 33 33" fill="none" xmlns="http://www.w3.org/2000/svg">
<path d="M12.375 12.375L18.5625 16.5L24.75 12.375M4.125 18.5625H6.875M1.375 14.4375H6.875" stroke="white" stroke-width="1.375" stroke-linecap="round" stroke-linejoin="round"/>
<path d="M6.875 10.3125V9.625C6.875 8.89565 7.16473 8.19618 7.68046 7.68046C8.19618 7.16473 8.89565 6.875 9.625 6.875H27.5C28.2293 6.875 28.9288 7.16473 29.4445 7.68046C29.9603 8.19618 30.25 8.89565 30.25 9.625V23.375C30.25 24.1043 29.9603 24.8038 29.4445 25.3195C28.9288 25.8353 28.2293 26.125 27.5 26.125H9.625C8.89565 26.125 8.19618 25.8353 7.68046 25.3195C7.16473 24.8038 6.875 24.1043 6.875 23.375V22.6875" stroke="white" stroke-width="1.375" stroke-linecap="round"/>
</svg>
