<svg width="29" height="30" viewBox="0 0 29 30" fill="none" xmlns="http://www.w3.org/2000/svg">
<path d="M24.8476 20.6254L26.6227 18.9061C27.0006 18.5401 27.2176 18.0389 27.226 17.5128C27.2344 16.9868 27.0335 16.4789 26.6674 16.101L21.5214 10.7881C20.6007 9.85371 19.3488 9.31986 18.0371 9.30233C16.7254 9.2848 15.4596 9.78499 14.5143 10.6945L13.722 11.4619C13.5813 11.5827 13.448 11.7118 13.3227 11.8486L10.8062 9.25051C10.4117 8.84228 9.87492 8.60187 9.30763 8.5793C8.74033 8.55673 8.18617 8.75375 7.76043 9.12935C7.53873 9.34087 7.36153 9.59454 7.23923 9.87548C7.11693 10.1564 7.05199 10.459 7.04822 10.7654C7.04446 11.0717 7.10196 11.3758 7.21732 11.6596C7.33269 11.9435 7.50361 12.2015 7.72005 12.4183L14.2225 19.1316" stroke="#84858A" stroke-width="1.71017" stroke-linecap="round" stroke-linejoin="round"/>
<path d="M14.4552 19.3592L12.436 19.327C11.8696 19.3192 11.3218 19.5286 10.9052 19.9123C10.4885 20.2959 10.2347 20.8246 10.1958 21.3896C10.1869 21.6956 10.2393 22.0002 10.35 22.2855C10.4608 22.5708 10.6275 22.8311 10.8404 23.0509C11.0534 23.2708 11.3082 23.4457 11.5898 23.5655C11.8715 23.6852 12.1743 23.7474 12.4803 23.7482L18.804 23.8491" stroke="#84858A" stroke-width="1.71017" stroke-linecap="round" stroke-linejoin="round"/>
<path d="M23.4388 23.1789C23.778 22.8503 23.7866 22.309 23.4581 21.9698C23.1295 21.6306 22.5882 21.6219 22.249 21.9505C21.9098 22.2791 21.9011 22.8204 22.2297 23.1596C22.5582 23.4988 23.0996 23.5075 23.4388 23.1789Z" fill="#84858A"/>
<path d="M12.7451 6.74154C12.2673 6.24982 11.697 5.85748 11.0669 5.58708C10.4369 5.31669 9.75956 5.17359 9.07398 5.16603C8.3884 5.15846 7.70809 5.28658 7.07222 5.543C6.43635 5.79942 5.85748 6.17909 5.36894 6.66014C4.40063 7.62305 3.85006 8.92828 3.83619 10.2938C3.82233 11.6593 4.34628 12.9755 5.29484 13.9578" stroke="#0069B4" stroke-width="1.71017" stroke-linecap="round" stroke-linejoin="round"/>
</svg>
