<svg width="30" height="31" viewBox="0 0 30 31" fill="none" xmlns="http://www.w3.org/2000/svg">
<path d="M25 16.1309C25.1658 16.1309 25.3247 16.065 25.4419 15.9478C25.5592 15.8306 25.625 15.6716 25.625 15.5059C25.625 15.3401 25.5592 15.1811 25.4419 15.0639C25.3247 14.9467 25.1658 14.8809 25 14.8809C24.8342 14.8809 24.6753 14.9467 24.5581 15.0639C24.4408 15.1811 24.375 15.3401 24.375 15.5059C24.375 15.6716 24.4408 15.8306 24.5581 15.9478C24.6753 16.065 24.8342 16.1309 25 16.1309ZM15 16.1309C15.1658 16.1309 15.3247 16.065 15.4419 15.9478C15.5592 15.8306 15.625 15.6716 15.625 15.5059C15.625 15.3401 15.5592 15.1811 15.4419 15.0639C15.3247 14.9467 15.1658 14.8809 15 14.8809C14.8342 14.8809 14.6753 14.9467 14.5581 15.0639C14.4408 15.1811 14.375 15.3401 14.375 15.5059C14.375 15.6716 14.4408 15.8306 14.5581 15.9478C14.6753 16.065 14.8342 16.1309 15 16.1309ZM5 16.1309C5.16576 16.1309 5.32473 16.065 5.44194 15.9478C5.55915 15.8306 5.625 15.6716 5.625 15.5059C5.625 15.3401 5.55915 15.1811 5.44194 15.0639C5.32473 14.9467 5.16576 14.8809 5 14.8809C4.83424 14.8809 4.67527 14.9467 4.55806 15.0639C4.44085 15.1811 4.375 15.3401 4.375 15.5059C4.375 15.6716 4.44085 15.8306 4.55806 15.9478C4.67527 16.065 4.83424 16.1309 5 16.1309Z" fill="#0069B4" stroke="#0069B4" stroke-width="1.41667" stroke-linecap="round" stroke-linejoin="round"/>
</svg>
