<svg width="40" height="41" viewBox="0 0 40 41" fill="none" xmlns="http://www.w3.org/2000/svg">
<path d="M33.332 21.4333C33.553 21.4333 33.765 21.3455 33.9213 21.1892C34.0776 21.0329 34.1654 20.8209 34.1654 20.5999C34.1654 20.3789 34.0776 20.167 33.9213 20.0107C33.765 19.8544 33.553 19.7666 33.332 19.7666C33.111 19.7666 32.8991 19.8544 32.7428 20.0107C32.5865 20.167 32.4987 20.3789 32.4987 20.5999C32.4987 20.8209 32.5865 21.0329 32.7428 21.1892C32.8991 21.3455 33.111 21.4333 33.332 21.4333ZM19.9987 21.4333C20.2197 21.4333 20.4317 21.3455 20.588 21.1892C20.7442 21.0329 20.832 20.8209 20.832 20.5999C20.832 20.3789 20.7442 20.167 20.588 20.0107C20.4317 19.8544 20.2197 19.7666 19.9987 19.7666C19.7777 19.7666 19.5657 19.8544 19.4094 20.0107C19.2532 20.167 19.1654 20.3789 19.1654 20.5999C19.1654 20.8209 19.2532 21.0329 19.4094 21.1892C19.5657 21.3455 19.7777 21.4333 19.9987 21.4333ZM6.66536 21.4333C6.88638 21.4333 7.09834 21.3455 7.25462 21.1892C7.4109 21.0329 7.4987 20.8209 7.4987 20.5999C7.4987 20.3789 7.4109 20.167 7.25462 20.0107C7.09834 19.8544 6.88638 19.7666 6.66536 19.7666C6.44435 19.7666 6.23239 19.8544 6.07611 20.0107C5.91983 20.167 5.83203 20.3789 5.83203 20.5999C5.83203 20.8209 5.91983 21.0329 6.07611 21.1892C6.23239 21.3455 6.44435 21.4333 6.66536 21.4333Z" fill="#0069B4" stroke="#0069B4" stroke-width="1.41667" stroke-linecap="round" stroke-linejoin="round"/>
</svg>
