<svg width="42" height="42" viewBox="0 0 42 42" fill="none" xmlns="http://www.w3.org/2000/svg">
<path d="M6.45854 11.011C8.91379 8.34925 12.629 7 17.4993 7H19.2493V11.9332L17.8423 12.215C15.4448 12.6945 13.777 13.6377 12.8845 15.022C12.4188 15.7677 12.1547 16.6216 12.118 17.5H17.4993C17.9634 17.5 18.4085 17.6844 18.7367 18.0126C19.0649 18.3407 19.2493 18.7859 19.2493 19.25V31.5C19.2493 33.4302 17.6795 35 15.7493 35H5.24929C4.78516 35 4.34004 34.8156 4.01185 34.4874C3.68366 34.1592 3.49928 33.7141 3.49928 33.25V24.5L3.50453 19.3917C3.48878 19.1975 3.15628 14.595 6.45854 11.011ZM34.9993 35H24.4993C24.0352 35 23.59 34.8156 23.2619 34.4874C22.9337 34.1592 22.7493 33.7141 22.7493 33.25V24.5L22.7545 19.3917C22.7388 19.1975 22.4063 14.595 25.7085 11.011C28.1638 8.34925 31.879 7 36.7493 7H38.4993V11.9332L37.0923 12.215C34.6948 12.6945 33.027 13.6377 32.1345 15.022C31.6689 15.7677 31.4047 16.6216 31.368 17.5H36.7493C37.2134 17.5 37.6585 17.6844 37.9867 18.0126C38.3149 18.3407 38.4993 18.7859 38.4993 19.25V31.5C38.4993 33.4302 36.9295 35 34.9993 35Z" fill="white" fill-opacity="0.4"/>
</svg>
