<svg width="33" height="32" viewBox="0 0 33 32" fill="none" xmlns="http://www.w3.org/2000/svg">
<g clip-path="url(#clip0_3536_181)">
<path d="M27.4173 15.9998V7.66517C27.4174 7.55992 27.3967 7.45569 27.3564 7.35845C27.3162 7.26122 27.2571 7.17288 27.1826 7.0985L22.9853 2.90117C22.8354 2.7511 22.6321 2.66669 22.42 2.6665H6.88398C6.67181 2.6665 6.46833 2.75079 6.3183 2.90082C6.16827 3.05085 6.08398 3.25433 6.08398 3.4665V28.5332C6.08398 28.7453 6.16827 28.9488 6.3183 29.0989C6.46833 29.2489 6.67181 29.3332 6.88398 29.3332H18.084M11.4173 13.3332H22.084M11.4173 7.99984H16.7507M11.4173 18.6665H15.4173" stroke="#0069B4" stroke-width="2" stroke-linecap="round" stroke-linejoin="round"/>
<path d="M22.084 2.6665V7.19984C22.084 7.41201 22.1683 7.61549 22.3183 7.76552C22.4683 7.91555 22.6718 7.99984 22.884 7.99984H27.4173M27.4067 20.1665L30.8147 21.0318C31.1693 21.1225 31.4187 21.4452 31.408 21.8105C31.1787 29.4878 26.7507 30.6665 26.7507 30.6665C26.7507 30.6665 22.3227 29.4878 22.0933 21.8105C22.0892 21.6327 22.1457 21.4587 22.2535 21.3172C22.3613 21.1757 22.5141 21.0751 22.6867 21.0318L26.0947 20.1665C26.5253 20.0572 26.976 20.0572 27.4067 20.1665Z" stroke="#0069B4" stroke-width="2" stroke-linecap="round" stroke-linejoin="round"/>
</g>
<defs>
<clipPath id="clip0_3536_181">
<rect width="32" height="32" fill="white" transform="translate(0.75)"/>
</clipPath>
</defs>
</svg>
