<svg width="33" height="32" viewBox="0 0 33 32" fill="none" xmlns="http://www.w3.org/2000/svg">
<path d="M25.8327 6.6665L7.16602 25.3332M23.166 25.3332C22.4588 25.3332 21.7805 25.0522 21.2804 24.5521C20.7803 24.052 20.4993 23.3737 20.4993 22.6665C20.4993 21.9593 20.7803 21.281 21.2804 20.7809C21.7805 20.2808 22.4588 19.9998 23.166 19.9998C23.8733 19.9998 24.5515 20.2808 25.0516 20.7809C25.5517 21.281 25.8327 21.9593 25.8327 22.6665C25.8327 23.3737 25.5517 24.052 25.0516 24.5521C24.5515 25.0522 23.8733 25.3332 23.166 25.3332ZM9.83268 11.9998C9.12544 11.9998 8.44716 11.7189 7.94706 11.2188C7.44697 10.7187 7.16602 10.0404 7.16602 9.33317C7.16602 8.62593 7.44697 7.94765 7.94706 7.44755C8.44716 6.94746 9.12544 6.6665 9.83268 6.6665C10.5399 6.6665 11.2182 6.94746 11.7183 7.44755C12.2184 7.94765 12.4993 8.62593 12.4993 9.33317C12.4993 10.0404 12.2184 10.7187 11.7183 11.2188C11.2182 11.7189 10.5399 11.9998 9.83268 11.9998Z" stroke="#0069B4" stroke-width="2" stroke-linecap="round" stroke-linejoin="round"/>
</svg>
