<svg width="110" height="37" viewBox="0 0 110 37" fill="none" xmlns="http://www.w3.org/2000/svg">
<path d="M104.952 14.092H109.999C109.361 9.17969 105.773 6.59766 100.787 6.59766C95.7398 6.59766 92.365 9.27421 92.365 13.8715C92.365 19.0986 96.7127 20.2636 99.0234 20.7361C102.003 21.3343 104.922 21.3974 104.922 24.0423C104.922 25.8372 103.462 26.7188 101.395 26.7188C98.841 26.7188 97.1385 25.3963 96.7127 23.0033H91.7266C92.0305 28.1674 95.6487 30.9384 100.969 30.9384C105.895 30.9384 109.938 28.6083 109.938 23.5701C109.938 18.1539 105.287 17.1779 102.033 16.674C99.8138 16.3277 97.3816 16.0127 97.3816 13.5881C97.3816 11.8877 98.6281 10.8487 100.726 10.8487C103.158 10.8487 104.618 12.2657 104.952 14.092Z" fill="#403F41"/>
<path d="M88.9609 7.38574H84.1875V30.2149H88.9609V7.38574Z" fill="#403F41"/>
<path d="M69.7742 22.2479H76.007C75.034 24.7042 72.8449 25.869 70.3214 25.869C65.8827 25.869 63.8152 22.3109 63.8152 18.7842C63.8152 15.2259 65.761 11.6048 70.2911 11.6048C73.0579 11.6048 75.1252 12.9273 75.9157 15.2889L81.0539 15.289C80.1723 9.96748 75.6725 6.91309 70.352 6.91309C63.7848 6.91309 58.8594 11.5418 58.8594 18.8472C58.8594 26.247 64.2103 30.6239 70.3214 30.6239C76.3414 30.6239 81.0539 26.5619 81.0539 20.2012V18.3433H69.7742V22.2479Z" fill="#403F41"/>
<path d="M47.947 6.91309C42.4744 6.91309 38.4307 10.4712 38.4611 16.3911H43.3865C43.3257 13.809 44.9066 11.4474 47.7038 11.4474C50.1361 11.4474 51.565 13.2108 51.565 15.2259C51.565 17.2412 50.1361 18.3748 47.4909 19.603C43.8729 21.2718 41.2887 22.3424 38.6435 23.2871V30.2145H57.0681V25.5542H44.4194C44.4194 25.5542 44.4615 25.5406 44.4823 25.5341C46.6336 24.8589 48.2499 24.1254 50.1665 23.2556C54.2709 21.3663 56.612 19.0046 56.612 14.9741C56.612 10.0303 53.0853 6.91309 47.947 6.91309Z" fill="#403F41"/>
<path d="M25.5086 22.1851C19.3062 22.2166 18.3029 26.0896 17.9685 29.3644L17.8165 30.8129H16.5699L16.4179 29.3644C16.0835 26.0896 15.0498 22.2166 9.06024 22.1851C8.05694 20.0437 7.63129 18.3119 7.63129 16.3596C7.63129 11.479 11.4926 6.91301 17.2083 6.91301C22.9242 6.91301 26.7247 11.4473 26.7247 16.3913C26.7247 18.3119 26.5423 20.0437 25.5086 22.1851ZM17.1476 0.993164C7.72259 0.993164 0 8.99133 0 18.7841C0 28.6087 7.72259 36.6067 17.1476 36.6067C26.6638 36.6067 34.356 28.6087 34.356 18.7841C34.356 8.99135 26.6638 0.993164 17.1476 0.993164Z" fill="#29B24A"/>
</svg>
