<svg width="110" height="32" viewBox="0 0 110 32" fill="none" xmlns="http://www.w3.org/2000/svg">
<path d="M5.85305 15.6143C2.50845 14.6852 0 11.991 0 8.08895C0 3.25787 3.99494 0.470703 8.26859 0.470703H28.6149V6.32375H16.723V10.8761H25.9206V16.5434H16.723V24.6261H10.4054V6.13794H8.17568C7.15372 6.13794 5.94595 6.78828 5.94595 8.08895C5.94595 9.11091 6.59629 9.76125 7.43244 10.1329L5.85305 15.6143ZM31.5879 24.6261V0.470703H38.0912V24.6261H31.5879ZM49.3328 6.41665C54.1639 6.41665 57.6014 8.73929 57.6014 13.5704V24.6261H52.12V22.768C51.098 24.6261 48.7754 25.1836 46.5457 25.1836C42.6436 25.1836 40.4139 22.3964 40.4139 19.2376C40.4139 16.5434 42.5507 13.2917 47.8463 13.2917H51.6555V13.0129C51.6555 10.969 50.9122 10.2258 49.2399 10.2258C47.7534 10.2258 46.8244 10.969 46.7315 12.3626H41.1571C41.4358 8.9251 44.223 6.41665 49.3328 6.41665ZM51.7483 17.844V16.8221H49.0541C47.4747 16.8221 46.2669 17.6582 46.2669 18.866C46.2669 20.1667 47.196 20.817 48.7754 20.817C50.6335 20.817 51.7483 19.5163 51.7483 17.844ZM76.5541 9.57544C77.7619 7.34571 79.5271 6.50956 81.8497 6.50956C86.3092 6.50956 88.2602 9.29672 88.2602 13.7562V24.6261H82.2214V14.964C82.2214 12.92 81.8497 11.7123 80.0845 11.7123C78.1335 11.7123 77.5761 13.1988 77.5761 15.1498V24.6261H71.5372V14.964C71.5372 12.92 71.0727 11.7123 69.2146 11.7123C67.2636 11.7123 66.6132 13.3846 66.6132 15.4285V24.719H60.3886V6.97409H66.2416V9.57544C67.4494 7.06699 69.5862 6.41665 71.5372 6.41665C73.8599 6.41665 75.5322 7.34571 76.5541 9.57544ZM96.9933 9.38963C98.2011 7.1599 100.431 6.41665 102.568 6.41665C107.213 6.41665 110 10.3187 110 15.8001C110 21.3744 107.12 25.1836 102.568 25.1836C100.431 25.1836 98.294 24.5332 97.1791 22.768V31.1295H91.0474V6.97409H96.9933V9.38963ZM100.338 20.3525C102.939 20.3525 103.961 18.2157 103.961 15.8001C103.961 13.3846 103.032 11.3406 100.338 11.3406C97.8295 11.3406 96.7146 13.3846 96.7146 15.8001C96.8075 18.2157 97.8295 20.3525 100.338 20.3525Z" fill="#2E6BE5"/>
</svg>
