<svg width="110" height="46" viewBox="0 0 110 46" fill="none" xmlns="http://www.w3.org/2000/svg">
<path fill-rule="evenodd" clip-rule="evenodd" d="M75.3005 23.2223V25.6397H64.3772C64.5435 28.7223 65.8226 30.2444 69.1098 30.2444C71.3354 30.2444 73.7272 29.5281 75.1086 28.6072V32.3037C73.8295 33.1735 71.6551 33.813 68.7516 33.813C62.9574 33.813 59.6702 30.6153 59.6702 24.0537C59.6702 18.2979 62.3179 14.1025 67.8435 14.1025C72.3714 14.1025 75.3005 16.5967 75.3005 23.2223ZM67.7412 17.6967C65.5667 17.6967 64.4668 19.2828 64.3644 22.2886H70.6702V21.9049C70.6702 19.5258 69.9923 17.6967 67.7284 17.6967H67.7412ZM33.5644 22.0328V14.4479H38.1307V33.6211H33.5644V25.6014H27.4888V33.6211H22.9609V14.4351H27.4888V22.0328H33.5644ZM94.7423 33.6211H89.6005L82.8854 24.2072V33.6211H78.3574V14.4351H82.8854V23.2991L89.2807 14.4479H93.8726L87.4772 23.2991L94.7423 33.6211ZM108.147 32.6618C107.034 33.4677 105.563 33.8514 103.453 33.8514C97.4156 33.8514 94.4737 30.3467 94.4609 24.0665C94.4609 18.2723 97.4668 14.1537 103.261 14.1537C105.512 14.1537 107.188 14.5374 108.147 15.0746V18.9118C106.816 18.1451 105.308 17.7395 103.773 17.7351C100.792 17.7351 99.1679 19.8328 99.1679 23.9514C99.1679 27.8397 100.485 30.27 103.734 30.27C105.64 30.27 106.996 29.7584 108.147 28.9653V32.6746V32.6618ZM56.5365 30.027H58.5574V37.8293H54.3621V33.5828H44.1935V37.8293H39.9981V30.0142H41.4051C43.004 26.8165 43.3237 20.7537 43.3237 16.0723V14.4351H56.5365V30.027ZM45.6133 30.027H52.0086V18.0293H47.2121V18.5921C47.2121 21.9049 46.8795 27.1363 45.6133 30.027Z" fill="#1C1C1C"/>
<path d="M19.1479 33.6076V7.13086H12.4456C5.69213 7.13086 2.1619 10.5843 2.1619 15.7006C2.1619 19.7553 4.0933 22.1855 7.55958 24.6541L1.53516 33.6076H6.52353L13.2386 23.5669L10.9107 22.0192C8.09678 20.1006 6.7026 18.6297 6.7026 15.4192C6.7026 12.6053 8.68516 10.6995 12.4584 10.6995H14.5177V33.5948H19.1479V33.6076Z" fill="#FC3F1D"/>
</svg>
