<svg width="110" height="29" viewBox="0 0 110 29" fill="none" xmlns="http://www.w3.org/2000/svg">
<g clip-path="url(#clip0_3644_536)">
<rect width="110" height="28.3871" transform="translate(0 0.606445)" fill="white"/>
<g clip-path="url(#clip1_3644_536)">
<path d="M0.96595 2.37422H23.8728C24.4062 2.37422 24.8387 2.80669 24.8387 3.34017V7.84478C24.8387 8.4448 24.5783 9.01292 24.1251 9.40607L11.3154 20.1222H23.8728C24.4062 20.1222 24.8387 20.5468 24.8387 21.0803V26.2517C24.8387 26.7852 24.4062 27.2176 23.8728 27.2176H0.96595C0.432471 27.2176 0 26.7852 0 26.2517V21.7545C0 21.1544 0.260371 20.5863 0.713649 20.1932L13.5233 9.47704H0.96595C0.432471 9.47704 0 9.03471 0 8.50123V3.34017C0 2.80669 0.432471 2.37422 0.96595 2.37422ZM40.8065 1.49316C43.4551 1.49316 45.8165 2.08878 47.7878 3.17723C49.7591 4.26567 51.3404 5.84695 52.4288 7.81828C53.5173 9.7896 54.1129 12.151 54.1129 14.7996C54.1129 17.4483 53.5173 19.8096 52.4288 21.781C51.3404 23.7523 49.7591 25.3336 47.7878 26.422C45.8165 27.5105 43.4551 28.1061 40.8065 28.1061C38.1578 28.1061 35.7964 27.5105 33.8251 26.422C31.8538 25.3336 30.2725 23.7523 29.1841 21.781C28.0956 19.8096 27.5 17.4483 27.5 14.7996C27.5 12.151 28.0956 9.7896 29.1841 7.81828C30.2725 5.84695 31.8538 4.26567 33.8251 3.17723C35.7964 2.08878 38.1578 1.49316 40.8065 1.49316ZM40.8065 8.58994C39.5395 8.58994 38.4272 8.85757 37.5072 9.3552C36.5873 9.85282 35.8597 10.5804 35.362 11.5004C34.8644 12.4203 34.5968 13.5326 34.5968 14.7996C34.5968 16.0666 34.8644 17.1789 35.362 18.0988C35.8597 19.0188 36.5873 19.7464 37.5072 20.244C38.4272 20.7417 39.5395 21.0093 40.8065 21.0093C42.0734 21.0093 43.1857 20.7417 44.1057 20.244C45.0256 19.7464 45.7533 19.0188 46.2509 18.0988C46.7485 17.1789 47.0161 16.0666 47.0161 14.7996C47.0161 13.5326 46.7485 12.4203 46.2509 11.5004C45.7533 10.5804 45.0256 9.85282 44.1057 9.3552C43.1857 8.85757 42.0734 8.58994 40.8065 8.58994ZM69.1936 1.49316C71.8422 1.49316 74.2036 2.08878 76.1749 3.17723C78.1462 4.26567 79.7275 5.84695 80.8159 7.81828C81.9044 9.7896 82.5 12.151 82.5 14.7996C82.5 17.4483 81.9044 19.8096 80.8159 21.781C79.7275 23.7523 78.1462 25.3336 76.1749 26.422C74.2036 27.5105 71.8422 28.1061 69.1936 28.1061C66.5449 28.1061 64.1835 27.5105 62.2122 26.422C60.2409 25.3336 58.6596 23.7523 57.5712 21.781C56.4827 19.8096 55.8871 17.4483 55.8871 14.7996C55.8871 12.151 56.4827 9.7896 57.5712 7.81828C58.6596 5.84695 60.2409 4.26567 62.2122 3.17723C64.1835 2.08878 66.5449 1.49316 69.1936 1.49316ZM69.1936 8.58994C67.9266 8.58994 66.8143 8.85757 65.8943 9.3552C64.9744 9.85282 64.2468 10.5804 63.7491 11.5004C63.2515 12.4203 62.9839 13.5326 62.9839 14.7996C62.9839 16.0666 63.2515 17.1789 63.7491 18.0988C64.2468 19.0188 64.9744 19.7464 65.8943 20.244C66.8143 20.7417 67.9266 21.0093 69.1936 21.0093C70.4605 21.0093 71.5728 20.7417 72.4928 20.244C73.4127 19.7464 74.1404 19.0188 74.638 18.0988C75.1356 17.1789 75.4032 16.0666 75.4032 14.7996C75.4032 13.5326 75.1356 12.4203 74.638 11.5004C74.1404 10.5804 73.4127 9.85282 72.4928 9.3552C71.5728 8.85757 70.4605 8.58994 69.1936 8.58994ZM110.003 3.34324V26.2513C110.003 26.7848 109.571 27.2173 109.037 27.2173H104.535C103.935 27.2173 103.367 26.957 102.974 26.5037L92.2581 13.6956V26.2513C92.2581 26.7848 91.8158 27.2173 91.2823 27.2173H86.1243C85.5908 27.2173 85.1583 26.7848 85.1583 26.2513V3.34324C85.1583 2.80973 85.5908 2.37724 86.1243 2.37724H90.6258C91.2259 2.37724 91.7939 2.63768 92.1871 3.09106L102.903 15.9036V3.34324C102.903 2.80973 103.328 2.37724 103.861 2.37724H109.037C109.571 2.37724 110.003 2.80973 110.003 3.34324Z" fill="url(#paint0_linear_3644_536)"/>
<path d="M0.96595 2.37422H23.8728C24.4062 2.37422 24.8387 2.80669 24.8387 3.34017V7.84478C24.8387 8.4448 24.5783 9.01292 24.1251 9.40607L11.3154 20.1222H23.8728C24.4062 20.1222 24.8387 20.5468 24.8387 21.0803V26.2517C24.8387 26.7852 24.4062 27.2176 23.8728 27.2176H0.96595C0.432471 27.2176 0 26.7852 0 26.2517V21.7545C0 21.1544 0.260371 20.5863 0.713649 20.1932L13.5233 9.47704H0.96595C0.432471 9.47704 0 9.03471 0 8.50123V3.34017C0 2.80669 0.432471 2.37422 0.96595 2.37422ZM40.8065 1.49316C43.4551 1.49316 45.8165 2.08878 47.7878 3.17723C49.7591 4.26567 51.3404 5.84695 52.4288 7.81828C53.5173 9.7896 54.1129 12.151 54.1129 14.7996C54.1129 17.4483 53.5173 19.8096 52.4288 21.781C51.3404 23.7523 49.7591 25.3336 47.7878 26.422C45.8165 27.5105 43.4551 28.1061 40.8065 28.1061C38.1578 28.1061 35.7964 27.5105 33.8251 26.422C31.8538 25.3336 30.2725 23.7523 29.1841 21.781C28.0956 19.8096 27.5 17.4483 27.5 14.7996C27.5 12.151 28.0956 9.7896 29.1841 7.81828C30.2725 5.84695 31.8538 4.26567 33.8251 3.17723C35.7964 2.08878 38.1578 1.49316 40.8065 1.49316ZM40.8065 8.58994C39.5395 8.58994 38.4272 8.85757 37.5072 9.3552C36.5873 9.85282 35.8597 10.5804 35.362 11.5004C34.8644 12.4203 34.5968 13.5326 34.5968 14.7996C34.5968 16.0666 34.8644 17.1789 35.362 18.0988C35.8597 19.0188 36.5873 19.7464 37.5072 20.244C38.4272 20.7417 39.5395 21.0093 40.8065 21.0093C42.0734 21.0093 43.1857 20.7417 44.1057 20.244C45.0256 19.7464 45.7533 19.0188 46.2509 18.0988C46.7485 17.1789 47.0161 16.0666 47.0161 14.7996C47.0161 13.5326 46.7485 12.4203 46.2509 11.5004C45.7533 10.5804 45.0256 9.85282 44.1057 9.3552C43.1857 8.85757 42.0734 8.58994 40.8065 8.58994ZM69.1936 1.49316C71.8422 1.49316 74.2036 2.08878 76.1749 3.17723C78.1462 4.26567 79.7275 5.84695 80.8159 7.81828C81.9044 9.7896 82.5 12.151 82.5 14.7996C82.5 17.4483 81.9044 19.8096 80.8159 21.781C79.7275 23.7523 78.1462 25.3336 76.1749 26.422C74.2036 27.5105 71.8422 28.1061 69.1936 28.1061C66.5449 28.1061 64.1835 27.5105 62.2122 26.422C60.2409 25.3336 58.6596 23.7523 57.5712 21.781C56.4827 19.8096 55.8871 17.4483 55.8871 14.7996C55.8871 12.151 56.4827 9.7896 57.5712 7.81828C58.6596 5.84695 60.2409 4.26567 62.2122 3.17723C64.1835 2.08878 66.5449 1.49316 69.1936 1.49316ZM69.1936 8.58994C67.9266 8.58994 66.8143 8.85757 65.8943 9.3552C64.9744 9.85282 64.2468 10.5804 63.7491 11.5004C63.2515 12.4203 62.9839 13.5326 62.9839 14.7996C62.9839 16.0666 63.2515 17.1789 63.7491 18.0988C64.2468 19.0188 64.9744 19.7464 65.8943 20.244C66.8143 20.7417 67.9266 21.0093 69.1936 21.0093C70.4605 21.0093 71.5728 20.7417 72.4928 20.244C73.4127 19.7464 74.1404 19.0188 74.638 18.0988C75.1356 17.1789 75.4032 16.0666 75.4032 14.7996C75.4032 13.5326 75.1356 12.4203 74.638 11.5004C74.1404 10.5804 73.4127 9.85282 72.4928 9.3552C71.5728 8.85757 70.4605 8.58994 69.1936 8.58994ZM110.003 3.34324V26.2513C110.003 26.7848 109.571 27.2173 109.037 27.2173H104.535C103.935 27.2173 103.367 26.957 102.974 26.5037L92.2581 13.6956V26.2513C92.2581 26.7848 91.8158 27.2173 91.2823 27.2173H86.1243C85.5908 27.2173 85.1583 26.7848 85.1583 26.2513V3.34324C85.1583 2.80973 85.5908 2.37724 86.1243 2.37724H90.6258C91.2259 2.37724 91.7939 2.63768 92.1871 3.09106L102.903 15.9036V3.34324C102.903 2.80973 103.328 2.37724 103.861 2.37724H109.037C109.571 2.37724 110.003 2.80973 110.003 3.34324Z" fill="url(#paint1_linear_3644_536)"/>
</g>
</g>
<defs>
<linearGradient id="paint0_linear_3644_536" x1="8507.98" y1="1332.14" x2="2399.31" y2="1332.14" gradientUnits="userSpaceOnUse">
<stop stop-color="#6339F5"/>
<stop offset="1" stop-color="#3D3F55"/>
</linearGradient>
<linearGradient id="paint1_linear_3644_536" x1="110" y1="14.7996" x2="5.73905e-07" y2="14.7996" gradientUnits="userSpaceOnUse">
<stop stop-color="#6339F5"/>
<stop offset="1"/>
</linearGradient>
<clipPath id="clip0_3644_536">
<rect width="110" height="28.3871" fill="white" transform="translate(0 0.606445)"/>
</clipPath>
<clipPath id="clip1_3644_536">
<rect width="110" height="28.3871" fill="white" transform="translate(0 0.606445)"/>
</clipPath>
</defs>
</svg>
