<svg width="27" height="21" viewBox="0 0 27 21" fill="none" xmlns="http://www.w3.org/2000/svg">
<path d="M5.90867 0.313287C7.04262 0.313287 7.9132 0.514472 8.52042 0.916841C9.12763 1.31189 9.43124 1.963 9.43124 2.87016C9.43124 3.78464 9.12397 4.44672 8.50944 4.8564C7.89492 5.25877 7.01702 5.45996 5.87575 5.45996H5.33804V8.00586H3.62614V0.510814C3.99925 0.437656 4.3943 0.386445 4.8113 0.357182C5.2283 0.327919 5.59409 0.313287 5.90867 0.313287ZM6.01841 1.77279C5.89404 1.77279 5.76967 1.77645 5.6453 1.78376C5.52825 1.79108 5.42583 1.7984 5.33804 1.80571V4.00045H5.87575C6.46833 4.00045 6.9146 3.91998 7.21455 3.75903C7.51449 3.59808 7.66447 3.29814 7.66447 2.85919C7.66447 2.64703 7.62423 2.47145 7.54376 2.33245C7.4706 2.19345 7.36086 2.08371 7.21455 2.00324C7.07554 1.91545 6.90362 1.85692 6.69878 1.82766C6.49394 1.79108 6.26715 1.77279 6.01841 1.77279ZM12.7294 6.6122C12.8099 6.61951 12.9014 6.62683 13.0038 6.63415C13.1135 6.63415 13.2415 6.63415 13.3879 6.63415C14.2438 6.63415 14.8766 6.41833 15.2863 5.9867C15.7033 5.55506 15.9118 4.95883 15.9118 4.19798C15.9118 3.40056 15.7143 2.797 15.3192 2.38732C14.9242 1.97763 14.2987 1.77279 13.4427 1.77279C13.3257 1.77279 13.205 1.77645 13.0806 1.78376C12.9562 1.78376 12.8392 1.79108 12.7294 1.80571V6.6122ZM17.6786 4.19798C17.6786 4.8564 17.5762 5.43069 17.3713 5.92085C17.1665 6.41101 16.8738 6.81704 16.4934 7.13894C16.1203 7.46083 15.6631 7.70225 15.1217 7.8632C14.5803 8.02415 13.9731 8.10462 13.3001 8.10462C12.9928 8.10462 12.6343 8.08999 12.2246 8.06073C11.815 8.03878 11.4126 7.98757 11.0175 7.9071V0.49984C11.4126 0.426682 11.8223 0.379129 12.2466 0.357182C12.6782 0.327919 13.0477 0.313287 13.3549 0.313287C14.006 0.313287 14.595 0.386445 15.1217 0.532761C15.6558 0.679077 16.113 0.909525 16.4934 1.22411C16.8738 1.53868 17.1665 1.94105 17.3713 2.43121C17.5762 2.92137 17.6786 3.5103 17.6786 4.19798ZM19.4377 8.00586V0.401077H24.5295V1.83863H21.1496V3.42982H24.1564V4.86738H21.1496V8.00586H19.4377Z" fill="#1C1C1C"/>
<path d="M4.76841 17.4302C4.76841 17.6753 4.72464 17.9029 4.63711 18.113C4.55541 18.3173 4.42994 18.4982 4.26071 18.6557C4.09731 18.8074 3.89014 18.9242 3.63921 19.0059C3.38828 19.0934 3.09941 19.1372 2.77262 19.1372C2.3933 19.1372 2.07526 19.0846 1.81849 18.9796C1.56756 18.8687 1.36623 18.7316 1.2145 18.5682C1.06277 18.4048 0.954814 18.2268 0.890622 18.0342C0.82643 17.8358 0.794334 17.6491 0.794334 17.474C0.794334 17.3048 0.820594 17.1443 0.873115 16.9926C0.931471 16.835 1.00442 16.6891 1.09195 16.5549C1.18532 16.4207 1.29036 16.301 1.40708 16.196C1.52962 16.0851 1.65801 15.9888 1.79223 15.9071C1.22034 15.5803 0.934389 15.0989 0.934389 14.4628C0.934389 14.2411 0.978156 14.031 1.06569 13.8326C1.15323 13.6283 1.27577 13.4503 1.43334 13.2986C1.59673 13.1469 1.79223 13.0272 2.01982 12.9397C2.24741 12.8463 2.50126 12.7997 2.78137 12.7997C3.10817 12.7997 3.38828 12.8493 3.6217 12.9485C3.85513 13.0477 4.04479 13.176 4.19068 13.3336C4.34241 13.4853 4.45037 13.6546 4.51456 13.8413C4.58459 14.0281 4.6196 14.209 4.6196 14.384C4.6196 14.5533 4.59334 14.7137 4.54082 14.8655C4.49413 15.0114 4.42702 15.1485 4.33949 15.2769C4.25779 15.4053 4.1615 15.5191 4.05062 15.6183C3.94558 15.7175 3.8347 15.805 3.71799 15.8809C4.4066 16.2077 4.75674 16.7241 4.76841 17.4302ZM1.61716 17.4828C1.61716 17.5878 1.63467 17.6987 1.66968 17.8154C1.71053 17.9263 1.77764 18.0313 1.87101 18.1305C1.96438 18.2239 2.08401 18.3027 2.2299 18.3669C2.37579 18.431 2.55962 18.4631 2.78137 18.4631C2.97978 18.4631 3.15193 18.434 3.29783 18.3756C3.44955 18.3173 3.5721 18.2443 3.66547 18.1568C3.75884 18.0634 3.82887 17.9584 3.87555 17.8416C3.92224 17.7249 3.94558 17.6053 3.94558 17.4828C3.94558 17.296 3.91057 17.1326 3.84054 16.9926C3.77051 16.8525 3.66839 16.73 3.53417 16.6249C3.40578 16.5199 3.24822 16.4323 3.06148 16.3623C2.88058 16.2864 2.67341 16.2223 2.43999 16.1697C2.17738 16.3156 1.97313 16.4965 1.82724 16.7125C1.68719 16.9284 1.61716 17.1851 1.61716 17.4828ZM3.80553 14.3753C3.80553 14.2877 3.7851 14.1915 3.74425 14.0864C3.70924 13.9814 3.65088 13.8851 3.56918 13.7975C3.48748 13.7042 3.38244 13.6283 3.25406 13.57C3.12567 13.5058 2.96811 13.4737 2.78137 13.4737C2.59463 13.4737 2.43415 13.5028 2.29993 13.5612C2.17155 13.6196 2.0665 13.6954 1.98481 13.7888C1.90311 13.8763 1.84183 13.9755 1.80098 14.0864C1.76597 14.1915 1.74846 14.2965 1.74846 14.4015C1.74846 14.5299 1.7718 14.6583 1.81849 14.7867C1.86517 14.9151 1.93812 15.0347 2.03733 15.1456C2.13653 15.2565 2.26492 15.3557 2.42248 15.4432C2.58588 15.5307 2.77845 15.6008 3.00021 15.6533C3.2453 15.5074 3.4408 15.3382 3.58669 15.1456C3.73258 14.9472 3.80553 14.6904 3.80553 14.3753ZM7.07454 18.008C7.08037 18.0546 7.08329 18.1013 7.08329 18.148C7.08329 18.1889 7.08329 18.2326 7.08329 18.2793C7.08329 18.647 7.02785 19.0088 6.91697 19.3648C6.81193 19.7266 6.66604 20.0709 6.4793 20.3977L5.84905 20.1963C5.99494 19.8987 6.09123 19.5953 6.13792 19.286C6.1846 18.9825 6.20794 18.6966 6.20794 18.4281C6.20794 18.3523 6.20503 18.2793 6.19919 18.2093C6.19919 18.1393 6.19627 18.0722 6.19044 18.008H7.07454ZM9.67514 15.2769C10.5563 15.3119 11.2012 15.5045 11.6097 15.8546C12.024 16.2047 12.2311 16.6804 12.2311 17.2814C12.2311 17.5499 12.1845 17.7979 12.0911 18.0255C12.0036 18.2531 11.8664 18.4486 11.6797 18.612C11.4988 18.7754 11.2683 18.9037 10.9882 18.9971C10.708 19.0905 10.3754 19.1372 9.99026 19.1372C9.83854 19.1372 9.68389 19.1255 9.52633 19.1021C9.36877 19.0788 9.22287 19.0496 9.08865 19.0146C8.95443 18.9796 8.8348 18.9446 8.72976 18.9096C8.62472 18.8746 8.54886 18.8454 8.50217 18.822L8.65973 18.113C8.75894 18.1597 8.91942 18.221 9.14118 18.2968C9.36877 18.3727 9.64596 18.4106 9.97276 18.4106C10.2354 18.4106 10.4542 18.3814 10.6293 18.3231C10.8102 18.2647 10.9561 18.186 11.0669 18.0867C11.1778 17.9875 11.2566 17.8737 11.3033 17.7454C11.3558 17.6111 11.3821 17.4711 11.3821 17.3252C11.3821 17.1034 11.3441 16.9079 11.2683 16.7387C11.1924 16.5636 11.0582 16.4178 10.8656 16.301C10.673 16.1843 10.4163 16.0968 10.0953 16.0384C9.77434 15.9742 9.36877 15.9421 8.87857 15.9421C8.91359 15.6562 8.93985 15.3878 8.95735 15.1368C8.9807 14.8859 9.00112 14.6408 9.01863 14.4015C9.03613 14.1623 9.05072 13.9259 9.06239 13.6925C9.07407 13.4532 9.08574 13.2023 9.09741 12.9397H12.0211V13.6312H9.80644C9.8006 13.7188 9.79185 13.8384 9.78018 13.9901C9.76851 14.136 9.75684 14.2907 9.74516 14.4541C9.73349 14.6116 9.72182 14.7663 9.71015 14.918C9.69848 15.0697 9.68681 15.1893 9.67514 15.2769ZM16.9921 15.6533C16.9338 16.231 16.89 16.8087 16.8608 17.3865C16.8317 17.9584 16.8083 18.4982 16.7908 19.0059H16.0118C16.0234 18.6499 16.0409 18.2793 16.0643 17.8942C16.0876 17.5032 16.1139 17.1122 16.1431 16.7212C16.1722 16.3244 16.2043 15.9363 16.2393 15.557C16.2744 15.1718 16.3123 14.8042 16.3531 14.4541H17.0972C17.2839 14.7575 17.5028 15.1748 17.7537 15.7058C18.0046 16.231 18.2935 16.8379 18.6203 17.5265C18.9471 16.8379 19.236 16.231 19.4869 15.7058C19.7378 15.1748 19.9567 14.7575 20.1434 14.4541H20.8962C20.937 14.8042 20.975 15.1718 21.01 15.557C21.045 15.9363 21.0771 16.3244 21.1063 16.7212C21.1355 17.1122 21.1617 17.5032 21.1851 17.8942C21.2084 18.2793 21.2259 18.6499 21.2376 19.0059H20.4323C20.4148 18.4982 20.3914 17.9584 20.3622 17.3865C20.3331 16.8087 20.2893 16.231 20.2309 15.6533C20.1376 15.8342 20.0296 16.053 19.9071 16.3098C19.7845 16.5607 19.662 16.8175 19.5394 17.0801C19.4227 17.3427 19.3118 17.5936 19.2068 17.8329C19.1017 18.0722 19.02 18.2618 18.9617 18.4019H18.2789C18.2147 18.256 18.1272 18.0634 18.0163 17.8241C17.9113 17.5849 17.7975 17.3339 17.6749 17.0713C17.5582 16.8029 17.4386 16.5432 17.316 16.2923C17.1935 16.0355 17.0855 15.8225 16.9921 15.6533ZM23.5261 14.9793C23.707 14.8334 23.9171 14.7225 24.1564 14.6466C24.4015 14.5649 24.6349 14.5241 24.8567 14.5241C25.5103 14.5241 26.0034 14.7254 26.336 15.1281C26.6745 15.5249 26.8437 16.0793 26.8437 16.7912C26.8437 17.0947 26.8028 17.3865 26.7211 17.6666C26.6394 17.9467 26.5111 18.1947 26.336 18.4106C26.1668 18.6265 25.9508 18.7987 25.6882 18.9271C25.4256 19.0555 25.1134 19.1197 24.7516 19.1197C24.3373 19.1197 23.993 19.0438 23.7187 18.8921C23.4444 18.7403 23.2256 18.5332 23.0622 18.2706C22.9046 18.008 22.7938 17.7016 22.7296 17.3515C22.6654 17.0013 22.6333 16.6308 22.6333 16.2398C22.6333 15.7321 22.6683 15.2594 22.7383 14.8217C22.8142 14.384 22.9484 13.9989 23.141 13.6662C23.3336 13.3336 23.5991 13.0593 23.9375 12.8434C24.2818 12.6217 24.7224 12.4729 25.2593 12.397C25.4169 12.3736 25.554 12.3561 25.6707 12.3445C25.7933 12.327 25.8983 12.3124 25.9859 12.3007C26.0792 12.289 26.1638 12.2774 26.2397 12.2657C26.3156 12.2482 26.3944 12.2307 26.4761 12.2132L26.5636 12.9485C26.5227 12.9601 26.479 12.9689 26.4323 12.9747C26.3914 12.9806 26.3302 12.9893 26.2485 13.001C26.1726 13.0127 26.0676 13.0272 25.9333 13.0447C25.805 13.0623 25.6357 13.0827 25.4256 13.106C24.8479 13.1702 24.4044 13.3453 24.0951 13.6312C23.7858 13.9172 23.5962 14.3665 23.5261 14.9793ZM23.4736 16.3711C23.4736 16.6453 23.4911 16.905 23.5261 17.1501C23.567 17.3952 23.6341 17.6111 23.7275 17.7979C23.8267 17.9846 23.958 18.1334 24.1214 18.2443C24.2848 18.3493 24.4948 18.4019 24.7516 18.4019C24.9734 18.4019 25.163 18.361 25.3206 18.2793C25.4782 18.1918 25.6065 18.0751 25.7057 17.9292C25.805 17.7833 25.8779 17.6141 25.9246 17.4215C25.9713 17.2231 25.9946 17.013 25.9946 16.7912C25.9946 16.5928 25.9742 16.4002 25.9333 16.2135C25.8983 16.0268 25.8312 15.8604 25.732 15.7146C25.6328 15.5687 25.4986 15.452 25.3293 15.3644C25.1659 15.2769 24.9588 15.2331 24.7078 15.2331C24.4628 15.2331 24.2264 15.2856 23.9988 15.3907C23.7771 15.4957 23.6049 15.6241 23.4824 15.7758C23.4765 15.84 23.4736 15.9305 23.4736 16.0472C23.4736 16.1639 23.4736 16.2719 23.4736 16.3711Z" fill="#0069B4"/>
</svg>
