<svg width="50" height="50" viewBox="0 0 50 50" fill="none" xmlns="http://www.w3.org/2000/svg">
<path d="M18.75 25.0002H25M25 25.0002H31.25M25 25.0002V18.7502M25 25.0002V31.2502M10.4167 37.5002L6.52085 10.2356C6.44673 9.71662 6.5718 9.1888 6.87094 8.75826C7.17008 8.32772 7.6211 8.02637 8.13335 7.91478L24.0959 4.36686C24.6914 4.23448 25.3087 4.23448 25.9042 4.36686L41.8667 7.91686C42.9292 8.15228 43.6334 9.15853 43.4792 10.2377L39.5834 37.5002C39.4375 38.5314 38.5417 44.7919 25 44.7919C11.4584 44.7919 10.5625 38.5314 10.4167 37.5002Z" stroke="#0069B4" stroke-width="2.08333" stroke-linecap="round" stroke-linejoin="round"/>
</svg>
