<svg width="51" height="50" viewBox="0 0 51 50" fill="none" xmlns="http://www.w3.org/2000/svg">
<path d="M40.2474 41.6663H11.0807C9.97566 41.6663 8.91585 41.2274 8.13445 40.446C7.35305 39.6645 6.91406 38.6047 6.91406 37.4997V18.7497C6.91406 17.6446 7.35305 16.5848 8.13445 15.8034C8.91585 15.022 9.97566 14.583 11.0807 14.583H40.2474C41.3525 14.583 42.4123 15.022 43.1937 15.8034C43.9751 16.5848 44.4141 17.6446 44.4141 18.7497V37.4997C44.4141 38.6047 43.9751 39.6645 43.1937 40.446C42.4123 41.2274 41.3525 41.6663 40.2474 41.6663Z" stroke="#0069B4" stroke-width="2.08333"/>
<path d="M35.0378 29.1663C34.7615 29.1663 34.4965 29.0566 34.3012 28.8612C34.1058 28.6659 33.9961 28.4009 33.9961 28.1247C33.9961 27.8484 34.1058 27.5835 34.3012 27.3881C34.4965 27.1928 34.7615 27.083 35.0378 27.083C35.314 27.083 35.579 27.1928 35.7743 27.3881C35.9697 27.5835 36.0794 27.8484 36.0794 28.1247C36.0794 28.4009 35.9697 28.6659 35.7743 28.8612C35.579 29.0566 35.314 29.1663 35.0378 29.1663Z" fill="#0069B4" stroke="#0069B4" stroke-width="2.08333" stroke-linecap="round" stroke-linejoin="round"/>
<path d="M38.1641 14.5837V11.6733C38.1639 11.0348 38.017 10.4048 37.7346 9.83211C37.4523 9.25938 37.0421 8.75921 36.5357 8.37022C36.0293 7.98123 35.4403 7.71382 34.8142 7.58865C34.188 7.46348 33.5415 7.4839 32.9245 7.64832L10.0078 13.7587C9.12042 13.9952 8.33602 14.5182 7.77654 15.2465C7.21706 15.9748 6.91386 16.8675 6.91406 17.7858V18.7504" stroke="#0069B4" stroke-width="2.08333"/>
</svg>
