<svg width="50" height="50" viewBox="0 0 50 50" fill="none" xmlns="http://www.w3.org/2000/svg">
<path d="M5.36221 17.6313L23.4018 8.61258C23.5752 8.52602 23.7663 8.48096 23.9601 8.48096C24.1539 8.48096 24.3451 8.52602 24.5185 8.61258L42.558 17.6334C42.7655 17.7373 42.94 17.8969 43.0619 18.0943C43.1838 18.2917 43.2484 18.5191 43.2484 18.7511C43.2484 18.9831 43.1838 19.2106 43.0619 19.408C42.94 19.6054 42.7655 19.7649 42.558 19.8688L24.5185 28.8876C24.3451 28.9741 24.1539 29.0192 23.9601 29.0192C23.7663 29.0192 23.5752 28.9741 23.4018 28.8876L5.36221 19.8667C5.15475 19.7629 4.98029 19.6033 4.85837 19.4059C4.73645 19.2085 4.67188 18.9811 4.67188 18.749C4.67188 18.517 4.73645 18.2896 4.85837 18.0922C4.98029 17.8948 5.15475 17.7352 5.36221 17.6313Z" stroke="#0069B4" stroke-width="2.08333" stroke-linecap="round" stroke-linejoin="round"/>
<path d="M46.875 27.0835V19.7918L42.7083 17.7085M9.375 21.8752V33.1502C9.37485 33.9384 9.59831 34.7106 10.0194 35.377C10.4406 36.0433 11.0421 36.5766 11.7542 36.9147L22.1708 41.8606C22.7294 42.1259 23.34 42.2635 23.9583 42.2635C24.5767 42.2635 25.1873 42.1259 25.7458 41.8606L36.1625 36.9147C36.8746 36.5766 37.4761 36.0433 37.8972 35.377C38.3184 34.7106 38.5418 33.9384 38.5417 33.1502V21.8752" stroke="#0069B4" stroke-width="2.08333" stroke-linecap="round" stroke-linejoin="round"/>
</svg>
