<svg width="50" height="50" viewBox="0 0 50 50" fill="none" xmlns="http://www.w3.org/2000/svg">
<path d="M18.7513 16.6667H8.33464C7.22957 16.6667 6.16976 17.1057 5.38836 17.8871C4.60696 18.6685 4.16797 19.7283 4.16797 20.8333V39.5833C4.16797 40.6884 4.60696 41.7482 5.38836 42.5296C6.16976 43.311 7.22957 43.75 8.33464 43.75H41.668C42.773 43.75 43.8328 43.311 44.6142 42.5296C45.3956 41.7482 45.8346 40.6884 45.8346 39.5833V20.8333C45.8346 19.7283 45.3956 18.6685 44.6142 17.8871C43.8328 17.1057 42.773 16.6667 41.668 16.6667H31.2513M18.7513 16.6667V7.5C18.7513 7.16848 18.883 6.85054 19.1174 6.61612C19.3518 6.3817 19.6698 6.25 20.0013 6.25H30.0013C30.3328 6.25 30.6508 6.3817 30.8852 6.61612C31.1196 6.85054 31.2513 7.16848 31.2513 7.5V16.6667M18.7513 16.6667H31.2513M18.7513 16.6667V29.1667M31.2513 16.6667V29.1667" stroke="#0069B4" stroke-width="2.08333" stroke-linecap="round" stroke-linejoin="round"/>
</svg>
