<svg width="83" height="18" viewBox="0 0 83 18" fill="none" xmlns="http://www.w3.org/2000/svg">
<path d="M7.66853 2.74325C7.86729 2.13153 8.73271 2.13153 8.93147 2.74325L10.0144 6.07613C10.1033 6.3497 10.3582 6.53492 10.6459 6.53492H14.1503C14.7935 6.53492 15.0609 7.35798 14.5405 7.73604L11.7054 9.79587C11.4727 9.96494 11.3753 10.2646 11.4642 10.5382L12.5471 13.8711C12.7459 14.4828 12.0458 14.9915 11.5254 14.6134L8.69027 12.5536C8.45756 12.3845 8.14244 12.3845 7.90973 12.5536L5.07459 14.6134C4.55423 14.9915 3.85409 14.4828 4.05285 13.8711L5.13578 10.5382C5.22467 10.2646 5.12729 9.96494 4.89458 9.79587L2.05945 7.73604C1.53909 7.35798 1.80652 6.53492 2.44972 6.53492H5.95413C6.24178 6.53492 6.49672 6.3497 6.5856 6.07613L7.66853 2.74325Z" fill="#D3D3D3"/>
<path d="M24.2701 2.74325C24.4689 2.13153 25.3343 2.13153 25.533 2.74325L26.616 6.07613C26.7048 6.3497 26.9598 6.53492 27.2474 6.53492H30.7518C31.395 6.53492 31.6625 7.35798 31.1421 7.73604L28.307 9.79587C28.0743 9.96494 27.9769 10.2646 28.0658 10.5382L29.1487 13.8711C29.3475 14.4828 28.6473 14.9915 28.127 14.6134L25.2918 12.5536C25.0591 12.3845 24.744 12.3845 24.5113 12.5536L21.6762 14.6134C21.1558 14.9915 20.4557 14.4828 20.6544 13.8711L21.7373 10.5382C21.8262 10.2646 21.7289 9.96494 21.4961 9.79587L18.661 7.73604C18.1407 7.35798 18.4081 6.53492 19.0513 6.53492H22.5557C22.8433 6.53492 23.0983 6.3497 23.1872 6.07613L24.2701 2.74325Z" fill="#D3D3D3"/>
<path d="M40.8677 2.74325C41.0665 2.13153 41.9319 2.13153 42.1307 2.74325L43.2136 6.07613C43.3025 6.3497 43.5574 6.53492 43.8451 6.53492H47.3495C47.9927 6.53492 48.2601 7.35798 47.7398 7.73604L44.9046 9.79587C44.6719 9.96494 44.5746 10.2646 44.6634 10.5382L45.7464 13.8711C45.9451 14.4828 45.245 14.9915 44.7246 14.6134L41.8895 12.5536C41.6568 12.3845 41.3417 12.3845 41.109 12.5536L38.2738 14.6134C37.7534 14.9915 37.0533 14.4828 37.2521 13.8711L38.335 10.5382C38.4239 10.2646 38.3265 9.96494 38.0938 9.79587L35.2587 7.73604C34.7383 7.35798 35.0057 6.53492 35.6489 6.53492H39.1534C39.441 6.53492 39.6959 6.3497 39.7848 6.07613L40.8677 2.74325Z" fill="#D3D3D3"/>
<path d="M57.4693 2.74325C57.6681 2.13153 58.5335 2.13153 58.7322 2.74325L59.8152 6.07613C59.9041 6.3497 60.159 6.53492 60.4466 6.53492H63.9511C64.5943 6.53492 64.8617 7.35798 64.3413 7.73604L61.5062 9.79587C61.2735 9.96494 61.1761 10.2646 61.265 10.5382L62.3479 13.8711C62.5467 14.4828 61.8465 14.9915 61.3262 14.6134L58.491 12.5536C58.2583 12.3845 57.9432 12.3845 57.7105 12.5536L54.8754 14.6134C54.355 14.9915 53.6549 14.4828 53.8536 13.8711L54.9366 10.5382C55.0254 10.2646 54.9281 9.96494 54.6954 9.79587L51.8602 7.73604C51.3399 7.35798 51.6073 6.53492 52.2505 6.53492H55.7549C56.0426 6.53492 56.2975 6.3497 56.3864 6.07613L57.4693 2.74325Z" fill="#D3D3D3"/>
<path d="M74.067 2.74325C74.2657 2.13153 75.1311 2.13153 75.3299 2.74325L76.4128 6.07613C76.5017 6.3497 76.7567 6.53492 77.0443 6.53492H80.5487C81.1919 6.53492 81.4593 7.35798 80.939 7.73604L78.1039 9.79587C77.8711 9.96494 77.7738 10.2646 77.8627 10.5382L78.9456 13.8711C79.1443 14.4828 78.4442 14.9915 77.9238 14.6134L75.0887 12.5536C74.856 12.3845 74.5409 12.3845 74.3082 12.5536L71.473 14.6134C70.9527 14.9915 70.2525 14.4828 70.4513 13.8711L71.5342 10.5382C71.6231 10.2646 71.5257 9.96494 71.293 9.79587L68.4579 7.73604C67.9375 7.35798 68.205 6.53492 68.8482 6.53492H72.3526C72.6402 6.53492 72.8952 6.3497 72.984 6.07613L74.067 2.74325Z" fill="#D3D3D3"/>
</svg>
