<svg width="83" height="17" viewBox="0 0 83 17" fill="none" xmlns="http://www.w3.org/2000/svg">
<path d="M7.66853 1.94344C7.86729 1.33173 8.73271 1.33173 8.93147 1.94344L10.0144 5.27633C10.1033 5.54989 10.3582 5.73511 10.6459 5.73511H14.1503C14.7935 5.73511 15.0609 6.55818 14.5405 6.93624L11.7054 8.99606C11.4727 9.16514 11.3753 9.46483 11.4642 9.7384L12.5471 13.0713C12.7459 13.683 12.0458 14.1917 11.5254 13.8136L8.69027 11.7538C8.45756 11.5847 8.14244 11.5847 7.90973 11.7538L5.07459 13.8136C4.55423 14.1917 3.85409 13.683 4.05285 13.0713L5.13578 9.7384C5.22467 9.46483 5.12729 9.16514 4.89458 8.99606L2.05945 6.93624C1.53909 6.55818 1.80652 5.73511 2.44972 5.73511H5.95413C6.24178 5.73511 6.49672 5.54989 6.5856 5.27633L7.66853 1.94344Z" fill="#FFCC00"/>
<path d="M24.2701 1.94344C24.4689 1.33173 25.3343 1.33173 25.533 1.94344L26.616 5.27633C26.7048 5.54989 26.9598 5.73511 27.2474 5.73511H30.7518C31.395 5.73511 31.6625 6.55818 31.1421 6.93624L28.307 8.99606C28.0743 9.16514 27.9769 9.46483 28.0658 9.7384L29.1487 13.0713C29.3475 13.683 28.6473 14.1917 28.127 13.8136L25.2918 11.7538C25.0591 11.5847 24.744 11.5847 24.5113 11.7538L21.6762 13.8136C21.1558 14.1917 20.4557 13.683 20.6544 13.0713L21.7373 9.7384C21.8262 9.46483 21.7289 9.16514 21.4961 8.99606L18.661 6.93624C18.1407 6.55818 18.4081 5.73511 19.0513 5.73511H22.5557C22.8433 5.73511 23.0983 5.54989 23.1872 5.27633L24.2701 1.94344Z" fill="#FFCC00"/>
<path d="M40.8677 1.94344C41.0665 1.33173 41.9319 1.33173 42.1307 1.94344L43.2136 5.27633C43.3025 5.54989 43.5574 5.73511 43.8451 5.73511H47.3495C47.9927 5.73511 48.2601 6.55818 47.7398 6.93624L44.9046 8.99606C44.6719 9.16514 44.5746 9.46483 44.6634 9.7384L45.7464 13.0713C45.9451 13.683 45.245 14.1917 44.7246 13.8136L41.8895 11.7538C41.6568 11.5847 41.3417 11.5847 41.109 11.7538L38.2738 13.8136C37.7534 14.1917 37.0533 13.683 37.2521 13.0713L38.335 9.7384C38.4239 9.46483 38.3265 9.16514 38.0938 8.99606L35.2587 6.93624C34.7383 6.55818 35.0057 5.73511 35.6489 5.73511H39.1534C39.441 5.73511 39.6959 5.54989 39.7848 5.27633L40.8677 1.94344Z" fill="#FFCC00"/>
<path d="M57.4693 1.94344C57.6681 1.33173 58.5335 1.33173 58.7322 1.94344L59.8152 5.27633C59.9041 5.54989 60.159 5.73511 60.4466 5.73511H63.9511C64.5943 5.73511 64.8617 6.55818 64.3413 6.93624L61.5062 8.99606C61.2735 9.16514 61.1761 9.46483 61.265 9.7384L62.3479 13.0713C62.5467 13.683 61.8465 14.1917 61.3262 13.8136L58.491 11.7538C58.2583 11.5847 57.9432 11.5847 57.7105 11.7538L54.8754 13.8136C54.355 14.1917 53.6549 13.683 53.8536 13.0713L54.9366 9.7384C55.0254 9.46483 54.9281 9.16514 54.6954 8.99606L51.8602 6.93624C51.3399 6.55818 51.6073 5.73511 52.2505 5.73511H55.7549C56.0426 5.73511 56.2975 5.54989 56.3864 5.27633L57.4693 1.94344Z" fill="#FFCC00"/>
<path d="M74.067 1.94344C74.2657 1.33173 75.1311 1.33173 75.3299 1.94344L76.4128 5.27633C76.5017 5.54989 76.7567 5.73511 77.0443 5.73511H80.5487C81.1919 5.73511 81.4593 6.55818 80.939 6.93624L78.1039 8.99606C77.8711 9.16514 77.7738 9.46483 77.8627 9.7384L78.9456 13.0713C79.1443 13.683 78.4442 14.1917 77.9238 13.8136L75.0887 11.7538C74.856 11.5847 74.5409 11.5847 74.3082 11.7538L71.473 13.8136C70.9527 14.1917 70.2525 13.683 70.4513 13.0713L71.5342 9.7384C71.6231 9.46483 71.5257 9.16514 71.293 8.99606L68.4579 6.93624C67.9375 6.55818 68.205 5.73511 68.8482 5.73511H72.3526C72.6402 5.73511 72.8952 5.54989 72.984 5.27633L74.067 1.94344Z" fill="#FFCC00"/>
</svg>
