<svg width="282" height="60" viewBox="0 0 282 60" fill="none" xmlns="http://www.w3.org/2000/svg">
<g clip-path="url(#clip0_3536_7)">
<path opacity="0.939" fill-rule="evenodd" clip-rule="evenodd" d="M27.3914 0.478027C28.0278 0.478027 28.6644 0.478027 29.3008 0.478027C33.7017 4.60975 37.9856 8.86913 42.1523 13.2562C42.4606 13.8042 42.632 14.3917 42.6664 15.0187C43.3798 15.0198 44.0162 15.2401 44.5758 15.6796C48.5048 19.7557 52.4948 23.7947 56.5461 27.7968C57.2653 29.0081 57.2164 30.1831 56.3992 31.3218C52.3112 35.4097 48.2231 39.4979 44.1352 43.5858C43.6945 43.7327 43.2539 43.8796 42.8133 44.0265C43.2057 44.9101 43.1323 45.7668 42.593 46.5968C38.4558 50.6849 34.3678 54.8219 30.3289 59.0077C30.0623 59.1189 29.8176 59.2412 29.5945 59.3749C29.007 59.3749 28.4195 59.3749 27.832 59.3749C23.378 55.1903 19.0452 50.8819 14.8336 46.4499C14.4906 45.7879 14.4171 45.1025 14.6133 44.3937C13.8449 44.384 13.1105 44.1636 12.4102 43.7327C8.22293 39.472 4.06147 35.1883 -0.0742188 30.8812C-0.0742188 30.2447 -0.0742188 29.6082 -0.0742188 28.9718C0.0542724 28.668 0.225627 28.3743 0.439844 28.0905C5.19993 23.3811 9.75306 18.7791 14.0992 14.2843C14.2056 13.9245 14.3525 13.5818 14.5398 13.2562C18.5748 9.07431 22.6628 4.93733 26.8039 0.845215C27.0339 0.755885 27.2298 0.633489 27.3914 0.478027ZM28.2727 29.4124C28.2815 29.3326 28.3304 29.2837 28.4195 29.2655C28.5235 29.6865 28.6215 30.1027 28.7133 30.514C28.5466 30.624 28.3997 30.5996 28.2727 30.4405C28.4586 30.0775 28.4586 29.7346 28.2727 29.4124Z" fill="#1456A1"/>
<path fill-rule="evenodd" clip-rule="evenodd" d="M27.832 1.35922C28.3653 1.30934 28.8548 1.43174 29.3008 1.72641C33.393 5.76957 37.432 9.85758 41.4179 13.9905C41.7092 14.6454 41.6603 15.2818 41.2711 15.8998C37.2768 19.8451 33.3357 23.8352 29.4476 27.8702C28.7034 28.3497 27.969 28.3497 27.2445 27.8702C23.3564 23.8352 19.4153 19.8451 15.4211 15.8998C15.0116 15.2874 14.9627 14.651 15.2742 13.9905C19.3917 9.70166 23.5776 5.49125 27.832 1.35922Z" fill="#F5F7FA"/>
<path fill-rule="evenodd" clip-rule="evenodd" d="M27.8321 3.12177C28.5838 3.03203 29.2693 3.20338 29.8884 3.63583C33.0419 6.93639 36.2488 10.1921 39.5087 13.403C40.1257 14.2485 40.1748 15.1298 39.6556 16.0468C36.404 19.4453 33.0994 22.7989 29.7415 26.1077C28.6843 26.6755 27.7052 26.5777 26.804 25.814C23.7483 22.6113 20.6395 19.4535 17.4774 16.3405C16.9343 15.5113 16.8363 14.63 17.1837 13.6968C20.62 10.0401 24.1695 6.51508 27.8321 3.12177Z" fill="#1858A2"/>
<path fill-rule="evenodd" clip-rule="evenodd" d="M28.7145 4.14992C28.7723 11.2028 28.6254 18.2529 28.2738 25.2999C28.5087 25.2606 28.7045 25.3096 28.8613 25.4468C28.3934 25.6627 27.9528 25.5893 27.5395 25.2265C26.7692 24.5304 26.0839 23.7717 25.4832 22.9499C25.4816 22.7271 25.3838 22.5557 25.1895 22.4359C25.3987 21.574 25.4967 20.6927 25.4832 19.7921C25.4343 18.764 25.3852 17.7359 25.3363 16.7077C25.4343 15.6307 25.5321 14.5536 25.6301 13.4765C25.5812 12.4484 25.5321 11.4202 25.4832 10.3921C25.6885 9.21718 25.7865 8.0177 25.777 6.79367C25.6301 6.79367 25.4832 6.79367 25.3363 6.79367C26.1389 5.9176 26.971 5.06082 27.8332 4.22336C28.123 4.15058 28.4167 4.12611 28.7145 4.14992Z" fill="#D7EEFA"/>
<path fill-rule="evenodd" clip-rule="evenodd" d="M28.7141 4.1499C29.8747 4.9181 30.9028 5.84832 31.7984 6.94053C31.739 7.09472 31.6411 7.09472 31.5047 6.94053C31.3845 9.57004 31.2377 12.1893 31.0641 14.7983C31.084 17.663 31.084 20.5271 31.0641 23.3905C30.419 24.1828 29.6846 24.8682 28.8609 25.4468C28.7041 25.3096 28.5083 25.2605 28.2734 25.2999C28.6251 18.2528 28.7719 11.2028 28.7141 4.1499Z" fill="#C5E6F9"/>
<path fill-rule="evenodd" clip-rule="evenodd" d="M31.7988 6.94067C32.725 7.91597 33.6552 8.89514 34.5895 9.87817C34.5439 10.06 34.4705 10.06 34.3691 9.87817C34.1305 13.3615 34.057 16.8376 34.1488 20.3063C33.1696 21.3833 32.1415 22.4115 31.0645 23.3907C31.0844 20.5272 31.0844 17.6631 31.0645 14.7985C31.2381 12.1895 31.3849 9.57019 31.5051 6.94067C31.6415 7.09486 31.7393 7.09486 31.7988 6.94067Z" fill="#ADDDF7"/>
<path fill-rule="evenodd" clip-rule="evenodd" d="M25.3365 6.7937C25.4833 6.7937 25.6302 6.7937 25.7771 6.7937C25.7866 8.01773 25.6887 9.21721 25.4833 10.3921C25.5323 11.4203 25.5813 12.4484 25.6302 13.4765C25.5323 14.5536 25.4344 15.6307 25.3365 16.7078C25.3854 17.7359 25.4344 18.764 25.4833 19.7921C25.4969 20.6928 25.3989 21.574 25.1896 22.4359C25.3839 22.5557 25.4817 22.7271 25.4833 22.95C22.9916 20.5317 20.5191 18.0837 18.0662 15.6062C17.7427 14.9832 17.7916 14.3957 18.213 13.8437C20.5682 11.4641 22.9426 9.11406 25.3365 6.7937Z" fill="#F6FAFC"/>
<path fill-rule="evenodd" clip-rule="evenodd" d="M34.5882 9.87817C36.0519 11.2683 37.4961 12.6881 38.9211 14.1375C39.019 14.5782 39.019 15.0188 38.9211 15.4594C37.4025 17.1492 35.8114 18.7648 34.1476 20.3063C34.0558 16.8376 34.1293 13.3615 34.3679 9.87817C34.4693 10.06 34.5427 10.06 34.5882 9.87817Z" fill="#A1D7F6"/>
<path opacity="0.978" fill-rule="evenodd" clip-rule="evenodd" d="M69.8395 15.7531C72.719 15.4612 75.4606 15.9264 78.0645 17.1484C81.2648 19.1835 82.8315 22.121 82.7645 25.9609C82.2862 32.7785 78.6143 36.1812 71.7489 36.1687C63.949 35.9324 60.3505 31.9179 60.9536 24.125C61.4563 20.4908 63.3902 17.9694 66.7552 16.5609C67.7846 16.2181 68.8127 15.9489 69.8395 15.7531ZM71.1614 20.6C72.843 20.4482 73.8956 21.1826 74.3192 22.8031C74.8415 25.07 74.7924 27.322 74.1723 29.5593C73.3952 31.2421 72.1468 31.7071 70.427 30.9546C69.6035 30.2983 69.1385 29.4415 69.0317 28.3843C68.6589 26.2401 68.8058 24.1349 69.4723 22.0687C69.8862 21.3841 70.4492 20.8944 71.1614 20.6Z" fill="#0069B4"/>
<path fill-rule="evenodd" clip-rule="evenodd" d="M42.2273 16.0469C42.8093 15.9866 43.3479 16.1089 43.8429 16.4141C47.731 20.4491 51.6721 24.4392 55.6663 28.3844C56.1459 29.109 56.1459 29.8433 55.6663 30.5876C51.721 34.4839 47.8288 38.425 43.9898 42.411C43.37 42.9549 42.6846 43.0528 41.9335 42.7048C37.8413 38.6616 33.8022 34.5736 29.8163 30.4407C29.5954 29.9209 29.5465 29.3825 29.6695 28.8251C33.7251 24.7694 37.7886 20.706 41.8601 16.6344C41.9573 16.4165 42.0798 16.2207 42.2273 16.0469Z" fill="#F5F7FA"/>
<path opacity="0.977" fill-rule="evenodd" clip-rule="evenodd" d="M216.127 16.1937C219.553 15.8256 222.686 16.5844 225.527 18.4702C227.815 20.6017 228.941 23.2454 228.905 26.4015C228.933 31.4975 226.533 34.7776 221.708 36.2421C218.681 36.9508 215.695 36.8039 212.748 35.8015C209.401 34.3128 207.515 31.7425 207.094 28.0906C206.496 21.3444 209.507 17.3788 216.127 16.1937ZM217.742 21.0406C219.468 21.1541 220.423 22.0843 220.606 23.8312C220.9 25.5937 220.9 27.3562 220.606 29.1187C220.035 31.6194 218.591 32.3294 216.273 31.2484C215.621 30.4673 215.254 29.5615 215.172 28.5312C214.797 26.3022 215.043 24.1481 215.906 22.0687C216.414 21.5091 217.027 21.1663 217.742 21.0406Z" fill="#0069B4"/>
<path fill-rule="evenodd" clip-rule="evenodd" d="M13.4382 16.4874C13.9491 16.4409 14.4387 16.5144 14.907 16.7077C18.954 20.7547 22.993 24.7937 27.0242 28.8249C27.5137 29.5103 27.5137 30.1956 27.0242 30.8811C23.0872 34.965 19.097 39.004 15.0539 42.9983C14.4174 43.292 13.7809 43.292 13.1445 42.9983C9.10127 39.004 5.11116 34.965 1.17416 30.8811C0.702362 30.1908 0.702362 29.5053 1.17416 28.8249C5.29975 24.7238 9.38778 20.6113 13.4382 16.4874Z" fill="#F5F7FA"/>
<path opacity="0.982" fill-rule="evenodd" clip-rule="evenodd" d="M181.465 16.4875C184.01 16.4875 186.557 16.4875 189.102 16.4875C189.102 18.7886 189.102 21.0896 189.102 23.3907C190.67 23.3907 192.235 23.3907 193.802 23.3907C193.802 21.0896 193.802 18.7886 193.802 16.4875C196.348 16.4875 198.895 16.4875 201.44 16.4875C201.397 23.0987 201.447 29.7081 201.587 36.3157C199.037 36.3041 196.49 36.3286 193.949 36.3891C193.804 33.977 193.755 31.5535 193.802 29.1188C192.235 29.1188 190.67 29.1188 189.102 29.1188C189.102 31.5668 189.102 34.0146 189.102 36.4625C186.557 36.4625 184.01 36.4625 181.465 36.4625C181.465 29.8043 181.465 23.1458 181.465 16.4875Z" fill="#0069B4"/>
<path opacity="0.97" fill-rule="evenodd" clip-rule="evenodd" d="M234.34 16.4875C238.698 16.4629 243.055 16.4875 247.412 16.5609C249.889 16.6116 251.775 17.6641 253.066 19.7187C254.09 22.983 252.989 25.1618 249.762 26.2547C252.989 27.035 254.335 29.0667 253.801 32.35C253.228 34.1473 252.028 35.2979 250.202 35.8015C249.475 35.986 248.741 36.1329 247.999 36.2422C243.446 36.3156 238.893 36.3401 234.34 36.3156C234.34 29.7062 234.34 23.0968 234.34 16.4875ZM241.684 20.7468C242.663 20.7225 243.643 20.7468 244.621 20.8203C245.85 21.2982 246.218 22.1549 245.723 23.3906C245.469 23.7015 245.15 23.9218 244.768 24.0515C243.75 24.2482 242.722 24.3216 241.684 24.2718C241.684 23.0968 241.684 21.9218 241.684 20.7468ZM241.684 28.3843C242.935 28.294 244.158 28.4164 245.355 28.7515C246.096 29.4294 246.268 30.2372 245.87 31.175C245.585 31.5577 245.217 31.827 244.768 31.9828C243.747 32.1634 242.719 32.2369 241.684 32.2031C241.684 30.9301 241.684 29.6573 241.684 28.3843Z" fill="#0069B4"/>
<path opacity="0.975" fill-rule="evenodd" clip-rule="evenodd" d="M281.927 35.7282C281.927 35.924 281.927 36.1199 281.927 36.3157C279.281 36.3646 276.638 36.3157 273.995 36.1688C273.533 34.8558 273.092 33.5339 272.673 32.2032C270.767 32.0565 268.858 32.0076 266.945 32.0563C266.553 33.4776 266.161 34.8975 265.77 36.3157C263.225 36.3157 260.678 36.3157 258.133 36.3157C260.315 29.7433 262.543 23.1829 264.816 16.6344C268.257 16.4885 271.708 16.4395 275.17 16.4876C277.369 22.9357 279.621 29.3493 281.927 35.7282ZM269.736 21.3344C270.387 23.2879 271.073 25.2462 271.792 27.2094C270.564 27.3173 269.292 27.3662 267.973 27.3563C268.561 25.3497 269.148 23.3424 269.736 21.3344Z" fill="#0069B4"/>
<path opacity="0.971" fill-rule="evenodd" clip-rule="evenodd" d="M86.582 16.6344C89.1278 16.6344 91.6737 16.6344 94.2195 16.6344C94.195 19.1317 94.2195 21.6285 94.293 24.125C95.7666 21.6963 97.2108 19.2483 98.6258 16.7812C101.562 16.61 104.5 16.5854 107.438 16.7078C105.235 19.7922 103.032 22.8765 100.829 25.9609C103.282 29.374 105.681 32.8256 108.026 36.3156C104.99 36.5114 101.955 36.5114 98.9195 36.3156C97.3773 33.6229 95.8352 30.9301 94.293 28.2375C94.2195 30.9788 94.195 33.7203 94.2195 36.4625C91.6737 36.4625 89.1278 36.4625 86.582 36.4625C86.582 29.8531 86.582 23.2437 86.582 16.6344Z" fill="#0069B4"/>
<path opacity="0.978" fill-rule="evenodd" clip-rule="evenodd" d="M113.314 16.6343C115.86 16.6343 118.406 16.6343 120.952 16.6343C120.952 18.8863 120.952 21.1385 120.952 23.3905C122.568 23.3905 124.183 23.3905 125.799 23.3905C125.799 21.1385 125.799 18.8863 125.799 16.6343C128.345 16.6343 130.891 16.6343 133.436 16.6343C133.436 23.2437 133.436 29.853 133.436 36.4624C130.891 36.4624 128.345 36.4624 125.799 36.4624C125.799 34.0144 125.799 31.5666 125.799 29.1187C124.183 29.1187 122.568 29.1187 120.952 29.1187C120.952 31.5666 120.952 34.0144 120.952 36.4624C118.406 36.4624 115.86 36.4624 113.314 36.4624C113.314 29.853 113.314 23.2437 113.314 16.6343Z" fill="#0069B4"/>
<path opacity="0.971" fill-rule="evenodd" clip-rule="evenodd" d="M144.745 16.6343C148.172 16.6343 151.6 16.6343 155.026 16.6343C157.15 23.0308 159.378 29.3954 161.709 35.728C161.781 35.968 161.806 36.2129 161.782 36.4624C159.137 36.5113 156.493 36.4624 153.851 36.3155C153.424 34.9597 152.983 33.6135 152.529 32.2765C150.618 32.1541 148.709 32.1786 146.801 32.3499C146.374 33.7041 145.934 35.0503 145.479 36.389C142.932 36.5113 140.386 36.4868 137.842 36.3155C140.144 29.7526 142.445 23.1921 144.745 16.6343ZM149.592 21.4812C150.289 23.4007 150.974 25.3346 151.648 27.2827C150.376 27.3562 149.103 27.3805 147.829 27.3562C148.417 25.3979 149.004 23.4394 149.592 21.4812Z" fill="#0069B4"/>
<path fill-rule="evenodd" clip-rule="evenodd" d="M42.0793 17.8093C42.8008 17.7451 43.4861 17.8675 44.1356 18.1765C47.4934 21.4853 50.7981 24.8389 54.0496 28.2374C54.513 29.0628 54.513 29.895 54.0496 30.7343C50.7408 33.9942 47.4851 37.2989 44.2825 40.6483C43.4219 41.2406 42.5407 41.2896 41.6387 40.7952C38.2809 37.4864 34.9762 34.1328 31.7246 30.7343C31.1072 29.5036 31.303 28.4264 32.3121 27.503C35.5525 24.2382 38.8081 21.0069 42.0793 17.8093Z" fill="#1858A2"/>
<path fill-rule="evenodd" clip-rule="evenodd" d="M13.439 18.25C14.1659 18.1706 14.8513 18.2929 15.4952 18.6172C18.8531 21.926 22.1578 25.2796 25.4093 28.6782C25.9328 29.6663 25.8349 30.5965 25.1155 31.4688C21.8598 34.7246 18.6041 37.9802 15.3484 41.236C14.4844 41.5676 13.6521 41.5187 12.8515 41.0891C9.5426 37.8292 6.28687 34.5245 3.08429 31.175C2.60472 30.2897 2.60472 29.4084 3.08429 28.5313C6.39316 25.2714 9.6489 21.9667 12.8515 18.6172C13.0815 18.5279 13.2774 18.4054 13.439 18.25Z" fill="#1958A2"/>
<path fill-rule="evenodd" clip-rule="evenodd" d="M44.2832 19.7188C44.1114 25.7138 43.9154 31.7111 43.6957 37.711C43.6998 38.3836 43.7487 39.0446 43.8426 39.6938C43.776 39.8345 43.6782 39.957 43.5488 40.061C43.1082 40.1589 42.6676 40.1589 42.227 40.061C41.9029 39.7618 41.6092 39.4436 41.3457 39.1063C41.6104 38.1376 41.7327 37.1095 41.7129 36.0219C41.7618 37.0011 41.8109 37.9802 41.8598 38.9594C42.0448 32.495 42.2651 26.0325 42.5207 19.5719C42.5082 19.3027 42.4103 19.1069 42.227 18.9844C42.2433 18.8938 42.2922 18.8203 42.3738 18.7641C43.2416 18.6105 43.878 18.9286 44.2832 19.7188Z" fill="#CCE9FA"/>
<path fill-rule="evenodd" clip-rule="evenodd" d="M15.7891 20.3061C15.7475 20.422 15.6741 20.52 15.5687 20.5999C15.3661 27.0132 15.1703 33.4266 14.9812 39.8405C14.8068 39.9966 14.7333 40.1925 14.7609 40.428C13.9151 40.7781 13.2787 40.5334 12.8516 39.6936C12.9978 39.7062 13.1202 39.6572 13.2188 39.5467C13.3029 35.3106 13.4253 31.0757 13.5859 26.8421C13.5415 24.4666 13.468 22.0923 13.3656 19.7186C13.2458 19.9129 13.0744 20.0107 12.8516 20.0124C13.9269 18.7867 14.906 18.8847 15.7891 20.3061Z" fill="#CCE9FA"/>
<path fill-rule="evenodd" clip-rule="evenodd" d="M42.227 18.9844C42.4103 19.1069 42.5082 19.3027 42.5207 19.5719C42.2651 26.0325 42.0448 32.495 41.8598 38.9594C41.8109 37.9802 41.7618 37.0011 41.7129 36.0219C41.7327 37.1095 41.6104 38.1376 41.3457 39.1063C40.5624 38.4208 39.828 37.6864 39.1426 36.9031C39.3671 35.5801 39.514 34.2337 39.5832 32.8641C39.488 32.3623 39.439 31.8483 39.4363 31.3219C39.5905 28.0573 39.7374 24.8015 39.877 21.5547C39.8435 21.4961 39.7944 21.4717 39.7301 21.4813C40.5134 20.6 41.3457 19.7677 42.227 18.9844Z" fill="#DDF0FB"/>
<path fill-rule="evenodd" clip-rule="evenodd" d="M12.8523 39.6937C11.9711 38.9105 11.1388 38.0781 10.3555 37.1969C10.593 37.0369 10.7154 36.7921 10.7227 36.4625C10.8486 31.6632 10.9465 26.8652 11.0164 22.0687C10.8966 22.2631 10.7252 22.3609 10.5023 22.3625C11.2367 21.5302 12.02 20.7469 12.8523 20.0125C13.0752 20.0109 13.2466 19.9131 13.3664 19.7188C13.4688 22.0924 13.5423 24.4668 13.5867 26.8422C13.4261 31.0759 13.3037 35.3107 13.2195 39.5469C13.121 39.6573 12.9986 39.7064 12.8523 39.6937Z" fill="#DDF0FB"/>
<path fill-rule="evenodd" clip-rule="evenodd" d="M44.2828 19.7188C45.5067 20.8448 46.6817 22.0198 47.8078 23.2438C47.7623 23.4256 47.6888 23.4256 47.5875 23.2438C47.3576 27.5607 47.2842 31.869 47.3672 36.1688C46.2411 37.3927 45.0661 38.5677 43.8422 39.6938C43.7483 39.0446 43.6994 38.3836 43.6953 37.7109C43.915 31.7111 44.111 25.7137 44.2828 19.7188Z" fill="#BCE3F8"/>
<path fill-rule="evenodd" clip-rule="evenodd" d="M15.7896 20.3062C16.9157 21.3343 17.9928 22.4113 19.0209 23.5374C18.8148 27.8207 18.619 32.1046 18.4334 36.389C18.5151 36.4452 18.564 36.5187 18.5803 36.6093C17.3453 37.9422 16.0724 39.2151 14.7615 40.428C14.7339 40.1926 14.8073 39.9967 14.9818 39.8405C15.1709 33.4266 15.3666 27.0132 15.5693 20.5999C15.6746 20.52 15.7481 20.422 15.7896 20.3062Z" fill="#BCE3F8"/>
<path fill-rule="evenodd" clip-rule="evenodd" d="M39.7305 21.4813C39.7949 21.4717 39.8439 21.4961 39.8774 21.5547C39.7379 24.8015 39.591 28.0573 39.4368 31.3219C39.4394 31.8483 39.4885 32.3623 39.5837 32.8641C39.5145 34.2337 39.3676 35.5801 39.143 36.9031C36.8428 34.7254 34.6153 32.4732 32.4602 30.1469C32.14 29.572 32.1891 29.0334 32.6071 28.5313C34.9622 26.1516 37.3366 23.8016 39.7305 21.4813Z" fill="#F6FAFC"/>
<path fill-rule="evenodd" clip-rule="evenodd" d="M10.3539 37.1967C8.11036 35.0615 5.93172 32.8583 3.81797 30.5874C3.52422 30.0978 3.52422 29.6081 3.81797 29.1186C6.07921 26.882 8.30682 24.6298 10.5008 22.3624C10.7236 22.3607 10.895 22.2629 11.0148 22.0686C10.9449 26.8651 10.847 31.6631 10.7211 36.4624C10.7138 36.7919 10.5914 37.0368 10.3539 37.1967Z" fill="#F7FAFD"/>
<path fill-rule="evenodd" clip-rule="evenodd" d="M47.8076 23.2437C49.6139 24.9765 51.4009 26.739 53.1686 28.5312C53.6004 29.0282 53.6493 29.5668 53.3154 30.1468C51.299 32.1387 49.3162 34.1459 47.367 36.1687C47.284 31.8689 47.3575 27.5606 47.5873 23.2437C47.6887 23.4255 47.7621 23.4255 47.8076 23.2437Z" fill="#A2D8F6"/>
<path fill-rule="evenodd" clip-rule="evenodd" d="M19.0211 23.5374C20.8764 25.3191 22.7124 27.1307 24.5289 28.9717C24.8227 29.5592 24.8227 30.1467 24.5289 30.7342C22.5655 32.7222 20.5827 34.6806 18.5805 36.6092C18.5642 36.5186 18.5153 36.4452 18.4336 36.3889C18.6192 32.1046 18.815 27.8207 19.0211 23.5374Z" fill="#A3D8F6"/>
<path opacity="0.938" fill-rule="evenodd" clip-rule="evenodd" d="M166.336 26.1812C169.273 26.1812 172.211 26.1812 175.148 26.1812C175.148 27.8947 175.148 29.6082 175.148 31.3218C172.211 31.3218 169.273 31.3218 166.336 31.3218C166.336 29.6082 166.336 27.8947 166.336 26.1812Z" fill="#0069B4"/>
<path fill-rule="evenodd" clip-rule="evenodd" d="M28.1257 31.6156C28.8342 31.5379 29.4706 31.7093 30.0351 32.1297C33.8252 36.0666 37.6684 39.9588 41.5647 43.8062C41.992 44.5075 42.0411 45.2419 41.7116 46.0093C37.7746 50.0932 33.7845 54.1323 29.7413 58.1265C28.979 58.6337 28.2447 58.5846 27.5382 57.9797C23.7481 54.0427 19.9048 50.1505 16.0085 46.3031C15.4098 45.5518 15.3609 44.7685 15.8616 43.9531C19.9872 39.852 24.0752 35.7395 28.1257 31.6156Z" fill="#F5F8FA"/>
<path fill-rule="evenodd" clip-rule="evenodd" d="M28.1257 33.3781C28.8472 33.314 29.5325 33.4363 30.182 33.7453C33.5356 37.1969 36.8893 40.6484 40.2429 44.1C40.4418 45.0059 40.2949 45.8381 39.8023 46.5969C36.5465 49.8527 33.2909 53.1083 30.0351 56.3641C29.2474 56.8408 28.464 56.8408 27.6851 56.3641C24.4293 53.1083 21.1737 49.8527 17.9179 46.5969C17.3098 45.6385 17.2608 44.6593 17.771 43.6594C21.0798 40.3995 24.3356 37.0948 27.5382 33.7453C27.7682 33.656 27.9641 33.5335 28.1257 33.3781Z" fill="#1958A2"/>
<path fill-rule="evenodd" clip-rule="evenodd" d="M29.5945 34.5531C29.444 34.6114 29.4195 34.7092 29.5211 34.8468C29.7414 35.0671 29.9617 35.2874 30.182 35.5078C29.9635 41.815 29.7921 48.1552 29.668 54.5281C29.644 54.8477 29.5217 55.1169 29.3008 55.3359C29.388 55.404 29.486 55.4286 29.5945 55.4093C29.5782 55.4999 29.5293 55.5734 29.4477 55.6296C29.0559 55.7276 28.6644 55.7276 28.2727 55.6296C28.1433 55.5256 28.0454 55.4031 27.9789 55.2624C27.8893 54.5842 27.8404 53.8987 27.832 53.2062C28.1629 46.9672 28.2608 40.7494 28.1258 34.5531C28.6153 34.1613 29.105 34.1613 29.5945 34.5531Z" fill="#CCE9FA"/>
<path fill-rule="evenodd" clip-rule="evenodd" d="M28.127 34.553C28.2619 40.7493 28.1641 46.9671 27.8332 53.2061C27.8416 53.8986 27.8905 54.5841 27.9801 55.2624C27.0009 54.3811 26.0707 53.4509 25.1895 52.4717C25.4717 47.4557 25.5942 42.413 25.5566 37.3436C25.4581 37.4541 25.3357 37.5031 25.1895 37.4905C26.1196 36.4624 27.0988 35.4831 28.127 34.553Z" fill="#DDF0FB"/>
<path fill-rule="evenodd" clip-rule="evenodd" d="M29.5945 34.553C31.0144 35.8749 32.3852 37.2456 33.707 38.6655C33.5167 39.6589 33.4187 40.6871 33.4133 41.7499C33.3564 44.9611 33.2585 48.1678 33.1195 51.3702C33.1552 51.5026 33.2043 51.625 33.2664 51.7374C32.0844 53.0174 30.8604 54.2413 29.5945 55.4092C29.486 55.4285 29.388 55.4039 29.3008 55.3358C29.5217 55.1168 29.644 54.8476 29.668 54.528C29.7921 48.1551 29.9635 41.8149 30.182 35.5077C29.9617 35.2874 29.7414 35.067 29.5211 34.8467C29.4195 34.7091 29.444 34.6113 29.5945 34.553Z" fill="#BCE3F8"/>
<path fill-rule="evenodd" clip-rule="evenodd" d="M25.1885 52.4719C22.9415 50.2984 20.714 48.0953 18.5057 45.8625C18.2879 45.3922 18.2388 44.9025 18.3588 44.3938C20.669 42.1081 22.9456 39.8071 25.1885 37.4906C25.3348 37.5033 25.4571 37.4542 25.5557 37.3438C25.5933 42.4131 25.4708 47.4558 25.1885 52.4719Z" fill="#F6FAFC"/>
<path fill-rule="evenodd" clip-rule="evenodd" d="M33.7086 38.6655C35.5598 40.5903 37.4447 42.4997 39.3633 44.3937C39.4833 44.9024 39.4342 45.3921 39.2164 45.8624C37.253 47.8504 35.2702 49.8088 33.268 51.7374C33.2058 51.625 33.1568 51.5027 33.1211 51.3702C33.26 48.1679 33.358 44.9612 33.4148 41.7499C33.4203 40.6871 33.5182 39.659 33.7086 38.6655Z" fill="#A3D8F6"/>
<path opacity="0.918" fill-rule="evenodd" clip-rule="evenodd" d="M257.987 41.3093C259.025 41.2595 260.053 41.3329 261.071 41.5296C262.875 42.3845 263.34 43.731 262.466 45.5687C261.924 46.1456 261.264 46.5128 260.484 46.6702C259.09 46.9029 257.768 46.7069 256.518 46.0827C255.625 45.131 255.405 44.0294 255.857 42.778C256.386 42.0128 257.095 41.5233 257.987 41.3093ZM258.721 42.778C259.764 42.5874 260.351 43.0035 260.484 44.0265C260.459 44.8343 260.043 45.2504 259.235 45.2749C258.188 45.143 257.797 44.5555 258.06 43.5124C258.21 43.1912 258.43 42.9463 258.721 42.778Z" fill="#0069B4"/>
<path opacity="0.921" fill-rule="evenodd" clip-rule="evenodd" d="M266.651 41.3094C267.534 41.285 268.415 41.3096 269.295 41.3828C271.276 41.8944 271.987 43.1429 271.425 45.1282C270.968 45.9743 270.259 46.4884 269.295 46.6703C268.094 46.8322 266.919 46.7342 265.77 46.3766C263.94 44.9751 263.843 43.4573 265.476 41.8235C265.889 41.6629 266.281 41.4915 266.651 41.3094ZM267.533 42.7782C268.564 42.583 269.151 42.9992 269.295 44.0266C269.151 45.0779 268.564 45.4695 267.533 45.2016C267.27 45.0863 267.049 44.915 266.872 44.6875C266.613 43.854 266.833 43.2176 267.533 42.7782Z" fill="#0069B4"/>
<path opacity="0.877" fill-rule="evenodd" clip-rule="evenodd" d="M277.079 43.6594C276.981 43.6594 276.933 43.7083 276.933 43.8063C275.869 44.3567 274.791 44.3813 273.701 43.8797C273.012 43.2409 272.939 42.5311 273.481 41.75C274.497 41.2575 275.55 41.1841 276.639 41.5297C277.248 42.1254 277.395 42.8354 277.079 43.6594ZM274.729 42.1906C275.561 41.9962 275.904 42.2899 275.758 43.0719C275.44 43.43 275.098 43.4545 274.729 43.1453C274.543 42.8276 274.543 42.5093 274.729 42.1906Z" fill="#0069B4"/>
<path opacity="0.832" fill-rule="evenodd" clip-rule="evenodd" d="M277.961 44.2467C277.862 44.2467 277.814 44.2956 277.814 44.3936C277.109 45.1239 276.423 45.8826 275.757 46.6702C275.317 46.7681 274.876 46.7681 274.436 46.6702C275.299 45.7343 276.13 44.7796 276.932 43.8061C277.031 43.8061 277.079 43.7572 277.079 43.6592C277.784 42.929 278.47 42.1702 279.136 41.3827C279.566 41.3506 279.982 41.2772 280.384 41.1624C280.482 41.2603 280.482 41.3581 280.384 41.4561C279.545 42.3675 278.738 43.2978 277.961 44.2467Z" fill="#0069B4"/>
<path opacity="0.901" fill-rule="evenodd" clip-rule="evenodd" d="M251.818 41.4563C252.454 41.4563 253.091 41.4563 253.727 41.4563C253.727 43.1699 253.727 44.8833 253.727 46.5969C252.993 46.5969 252.259 46.5969 251.524 46.5969C251.549 45.5187 251.524 44.4417 251.451 43.3657C251.109 43.4636 250.765 43.5615 250.423 43.6594C250.349 43.123 250.324 42.5846 250.349 42.0438C250.947 42.087 251.436 41.891 251.818 41.4563Z" fill="#0069B4"/>
<path opacity="0.876" fill-rule="evenodd" clip-rule="evenodd" d="M191.157 42.3374C192.473 42.2296 193.747 42.4008 194.976 42.8514C195.202 43.0834 195.374 43.3527 195.49 43.6593C195.531 44.6922 195.605 45.7204 195.71 46.7436C194.975 46.768 194.24 46.7435 193.507 46.6702C193.415 46.56 193.341 46.4375 193.287 46.303C192.069 46.9194 190.821 46.9929 189.542 46.5233C188.95 46.03 188.803 45.4181 189.101 44.6874C189.34 44.4235 189.634 44.252 189.982 44.1733C190.471 44.1244 190.962 44.0754 191.451 44.0264C190.718 43.9532 189.984 43.9286 189.248 43.953C189.268 43.4952 189.465 43.128 189.835 42.8514C190.27 42.6159 190.711 42.4445 191.157 42.3374ZM191.892 43.5124C192.378 43.4482 192.818 43.5462 193.213 43.8061C192.674 44.0019 192.137 44.0019 191.598 43.8061C191.707 43.706 191.805 43.608 191.892 43.5124ZM193.213 44.8343C193.325 45.1524 193.178 45.3727 192.773 45.4952C192.335 45.5683 191.895 45.5929 191.451 45.5686C191.451 45.4218 191.451 45.2749 191.451 45.128C192.062 45.061 192.649 44.9632 193.213 44.8343Z" fill="#0069B4"/>
<path opacity="0.887" fill-rule="evenodd" clip-rule="evenodd" d="M207.021 42.3375C208.196 42.2212 209.322 42.3926 210.399 42.8516C211.163 43.4228 211.505 44.1817 211.427 45.1281C210.007 45.1038 208.587 45.1281 207.168 45.2016C207.453 45.4765 207.795 45.5989 208.196 45.5688C209.256 45.2639 210.334 45.2149 211.427 45.4219C211.026 46.0905 210.439 46.5067 209.665 46.6703C208.372 46.9375 207.099 46.8397 205.846 46.3766C204.94 45.8118 204.622 45.004 204.891 43.9531C205.298 43.0045 206.007 42.4659 207.021 42.3375ZM207.755 43.5125C208.343 43.4219 208.832 43.5932 209.224 44.0266C208.49 44.1245 207.755 44.1245 207.021 44.0266C207.235 43.7878 207.479 43.6165 207.755 43.5125Z" fill="#0069B4"/>
<path opacity="0.903" fill-rule="evenodd" clip-rule="evenodd" d="M214.952 42.3375C216.103 42.2594 217.228 42.3817 218.33 42.7047C219 43.0067 219.343 43.5208 219.358 44.2469C218.569 44.2951 217.785 44.2462 217.008 44.1C216.584 43.6416 216.095 43.5682 215.539 43.8797C215.022 44.2741 214.974 44.7147 215.392 45.2016C216.09 45.5669 216.678 45.4445 217.155 44.8344C217.883 44.6884 218.618 44.6395 219.358 44.6875C219.276 45.7744 218.688 46.4353 217.596 46.6703C216.666 46.7683 215.735 46.7683 214.805 46.6703C213.253 46.3322 212.64 45.3776 212.969 43.8063C213.417 43.0092 214.078 42.5195 214.952 42.3375Z" fill="#0069B4"/>
<path opacity="0.907" fill-rule="evenodd" clip-rule="evenodd" d="M237.13 42.3375C237.915 42.3131 238.699 42.3376 239.48 42.4109C241.553 42.9557 242.067 44.1551 241.022 46.0094C240.212 46.5979 239.305 46.8426 238.305 46.7437C236.928 46.8985 235.874 46.409 235.147 45.275C234.902 43.6843 235.563 42.7051 237.13 42.3375ZM237.718 43.8062C238.816 43.5116 239.282 43.9033 239.113 44.9812C238.693 45.4013 238.229 45.4747 237.718 45.2015C237.334 44.7368 237.334 44.2717 237.718 43.8062Z" fill="#0069B4"/>
<path opacity="0.875" fill-rule="evenodd" clip-rule="evenodd" d="M181.316 42.4842C182.051 42.4842 182.785 42.4842 183.52 42.4842C183.496 42.8789 183.52 43.2706 183.593 43.6592C183.966 43.2374 184.382 42.8702 184.841 42.5577C185.776 42.4356 186.705 42.4602 187.632 42.6311C187.119 43.1193 186.58 43.5845 186.016 44.0264C186.671 44.8701 187.307 45.7268 187.926 46.5967C187.045 46.7925 186.163 46.7925 185.282 46.5967C184.935 46.1269 184.617 45.6374 184.327 45.128C184.125 45.3796 183.881 45.5755 183.593 45.7155C183.52 46.0548 183.496 46.3974 183.52 46.7436C182.785 46.7436 182.051 46.7436 181.316 46.7436C181.316 45.3238 181.316 43.9041 181.316 42.4842Z" fill="#0069B4"/>
<path opacity="0.903" fill-rule="evenodd" clip-rule="evenodd" d="M197.474 42.4844C198.208 42.4844 198.943 42.4844 199.677 42.4844C199.654 42.879 199.677 43.2707 199.75 43.6594C200.055 43.9749 200.398 44.0239 200.779 43.8063C200.852 43.3683 200.876 42.9276 200.852 42.4844C201.586 42.4844 202.321 42.4844 203.055 42.4844C203.055 43.9042 203.055 45.3239 203.055 46.7438C202.321 46.7438 201.586 46.7438 200.852 46.7438C200.877 46.2517 200.852 45.7622 200.779 45.275C198.311 45.9649 197.21 45.0347 197.474 42.4844Z" fill="#0069B4"/>
<path opacity="0.886" fill-rule="evenodd" clip-rule="evenodd" d="M220.68 42.4844C222.541 42.4844 224.4 42.4844 226.261 42.4844C226.261 42.9739 226.261 43.4636 226.261 43.9531C225.673 43.9531 225.086 43.9531 224.498 43.9531C224.498 44.8833 224.498 45.8136 224.498 46.7438C223.764 46.7438 223.03 46.7438 222.295 46.7438C222.295 45.8136 222.295 44.8833 222.295 43.9531C221.756 43.9531 221.219 43.9531 220.68 43.9531C220.68 43.4636 220.68 42.9739 220.68 42.4844Z" fill="#0069B4"/>
<path opacity="0.908" fill-rule="evenodd" clip-rule="evenodd" d="M227.73 42.4842C229.459 42.4171 231.172 42.4906 232.871 42.7046C233.459 43.2921 233.459 43.8796 232.871 44.4671C233.553 44.7714 233.773 45.2854 233.532 46.0092C233.354 46.2368 233.134 46.408 232.871 46.5233C231.164 46.7189 229.45 46.7924 227.73 46.7436C227.73 45.3238 227.73 43.9041 227.73 42.4842ZM229.934 43.6592C230.338 43.6133 230.728 43.6622 231.109 43.8061C230.913 43.855 230.716 43.9041 230.521 43.953C230.252 43.9405 230.056 43.8425 229.934 43.6592ZM229.934 45.128C230.433 45.081 230.922 45.1299 231.402 45.2749C231.157 45.3238 230.913 45.3728 230.668 45.4217C230.354 45.4135 230.108 45.3156 229.934 45.128Z" fill="#0069B4"/>
<path opacity="0.953" fill-rule="evenodd" clip-rule="evenodd" d="M61.4668 43.5125C99.4095 43.5125 137.352 43.5125 175.295 43.5125C175.295 44.5895 175.295 45.6667 175.295 46.7437C137.352 46.7437 99.4095 46.7437 61.4668 46.7437C61.4668 45.6667 61.4668 44.5895 61.4668 43.5125Z" fill="#0069B4"/>
<path opacity="0.863" fill-rule="evenodd" clip-rule="evenodd" d="M277.815 44.3938C277.913 44.3938 277.962 44.3448 277.962 44.2469C279.022 43.7018 280.099 43.6773 281.193 44.1734C281.806 44.7395 281.927 45.4004 281.56 46.1563C280.579 46.7831 279.526 46.9055 278.402 46.5234C278.084 46.4011 277.863 46.1808 277.741 45.8625C277.645 45.3649 277.67 44.8754 277.815 44.3938ZM279.284 44.6875C280.122 44.5945 280.416 44.9373 280.165 45.7156C279.146 45.9752 278.852 45.6325 279.284 44.6875Z" fill="#0069B4"/>
</g>
<defs>
<clipPath id="clip0_3536_7">
<rect width="282" height="58.8969" fill="white" transform="translate(0 0.551514)"/>
</clipPath>
</defs>
</svg>
