<svg width="39" height="39" viewBox="0 0 39 39" fill="none" xmlns="http://www.w3.org/2000/svg">
<g clip-path="url(#clip0_3644_1079)">
<path d="M24.7812 32.5H4.46875C3.8025 32.5 3.25 31.9475 3.25 31.2813V17.4688C3.25 11.4238 8.17375 6.5 14.2188 6.5H24.7812C30.8263 6.5 35.75 11.4238 35.75 17.4688V21.5313C35.75 27.5763 30.8263 32.5 24.7812 32.5ZM5.6875 30.0625H24.7812C29.4775 30.0625 33.3125 26.2275 33.3125 21.5313V17.4688C33.3125 12.7563 29.4775 8.9375 24.7812 8.9375H14.2188C9.5225 8.9375 5.6875 12.7563 5.6875 17.4688V30.0625Z" fill="white" fill-opacity="0.1"/>
<path d="M13 21.1252C12.5775 21.1252 12.155 20.9464 11.8462 20.6539C11.5537 20.3452 11.375 19.9227 11.375 19.5002C11.375 19.0614 11.5537 18.6552 11.8462 18.3464C12.4475 17.7452 13.5525 17.7452 14.1538 18.3464C14.2188 18.4277 14.2838 18.5089 14.3488 18.5902C14.4138 18.6877 14.4625 18.7852 14.495 18.8827C14.5438 18.9802 14.5762 19.0777 14.5925 19.1752C14.6087 19.2889 14.625 19.4027 14.625 19.5002C14.625 19.5977 14.6087 19.7114 14.5925 19.8252C14.5762 19.9227 14.5438 20.0202 14.495 20.1177C14.4625 20.2152 14.4138 20.3127 14.3488 20.3939C14.2838 20.4914 14.2188 20.5727 14.1538 20.6539C13.845 20.9464 13.4225 21.1252 13 21.1252Z" fill="white" fill-opacity="0.1"/>
<path d="M19.5 21.125C19.2888 21.125 19.0775 21.0762 18.8825 20.995C18.6712 20.9137 18.5087 20.8 18.3462 20.6537C18.0537 20.345 17.875 19.9225 17.875 19.5C17.875 19.2887 17.9237 19.0775 18.005 18.8825C18.0862 18.6712 18.2 18.5087 18.3462 18.3462C18.5087 18.2 18.6712 18.0862 18.8825 18.005C19.175 17.875 19.5 17.8425 19.8087 17.9075C19.9225 17.9238 20.02 17.9562 20.1175 18.005C20.215 18.0375 20.3125 18.0862 20.3938 18.1512C20.4913 18.2 20.5725 18.2812 20.6538 18.3462C20.8 18.5087 20.9138 18.6712 20.995 18.8825C21.0763 19.0775 21.125 19.2887 21.125 19.5C21.125 19.9225 20.9463 20.345 20.6538 20.6537C20.5725 20.7187 20.4913 20.8 20.3938 20.8487C20.3125 20.9137 20.215 20.9625 20.1175 20.995C20.02 21.0437 19.9225 21.0762 19.8087 21.0925C19.7112 21.1087 19.5975 21.125 19.5 21.125Z" fill="white" fill-opacity="0.1"/>
<path d="M26 21.1242C25.9025 21.1242 25.7888 21.1079 25.6913 21.0917C25.5775 21.0754 25.48 21.0429 25.3825 20.9942C25.285 20.9617 25.1875 20.9129 25.09 20.8479C25.0087 20.7829 24.9275 20.7179 24.8462 20.6529C24.5537 20.3442 24.375 19.9379 24.375 19.4992C24.375 19.2879 24.4237 19.0767 24.505 18.8817C24.5862 18.6867 24.7 18.5079 24.8462 18.3454C24.9275 18.2804 25.0087 18.2154 25.09 18.1504C25.1875 18.0854 25.285 18.0367 25.3825 18.0042C25.48 17.9554 25.5775 17.9229 25.6913 17.9067C26.2113 17.8092 26.7637 17.9717 27.1537 18.3454C27.4462 18.6542 27.625 19.0767 27.625 19.4992C27.625 19.5967 27.6087 19.7104 27.5925 19.8242C27.5762 19.9217 27.5438 20.0192 27.495 20.1167C27.4625 20.2142 27.4138 20.3117 27.3488 20.4092C27.2838 20.4904 27.2187 20.5717 27.1537 20.6529C26.845 20.9454 26.4225 21.1242 26 21.1242Z" fill="white" fill-opacity="0.1"/>
</g>
<defs>
<clipPath id="clip0_3644_1079">
<rect width="39" height="39" fill="white"/>
</clipPath>
</defs>
</svg>
