<svg width="282" height="60" viewBox="0 0 282 60" fill="none" xmlns="http://www.w3.org/2000/svg">
<g clip-path="url(#clip0_3644_956)">
<path opacity="0.939" fill-rule="evenodd" clip-rule="evenodd" d="M27.3914 0.526367C28.0278 0.526367 28.6644 0.526367 29.3008 0.526367C33.7017 4.65809 37.9856 8.91747 42.1523 13.3045C42.4606 13.8525 42.632 14.44 42.6664 15.067C43.3798 15.0681 44.0162 15.2885 44.5758 15.7279C48.5048 19.804 52.4948 23.8431 56.5461 27.8451C57.2653 29.0564 57.2164 30.2314 56.3992 31.3701C52.3112 35.4581 48.2231 39.5462 44.1352 43.6342C43.6945 43.7811 43.2539 43.9279 42.8133 44.0748C43.2057 44.9584 43.1323 45.8151 42.593 46.6451C38.4558 50.7332 34.3678 54.8703 30.3289 59.0561C30.0623 59.1672 29.8176 59.2896 29.5945 59.4232C29.007 59.4232 28.4195 59.4232 27.832 59.4232C23.378 55.2386 19.0452 50.9302 14.8336 46.4982C14.4906 45.8363 14.4171 45.1508 14.6133 44.442C13.8449 44.4323 13.1105 44.212 12.4102 43.7811C8.22293 39.5204 4.06147 35.2366 -0.0742188 30.9295C-0.0742188 30.2931 -0.0742188 29.6565 -0.0742188 29.0201C0.0542724 28.7164 0.225627 28.4226 0.439844 28.1389C5.19993 23.4295 9.75306 18.8274 14.0992 14.3326C14.2056 13.9729 14.3525 13.6302 14.5398 13.3045C18.5748 9.12265 22.6628 4.98567 26.8039 0.893555C27.0339 0.804225 27.2298 0.681829 27.3914 0.526367ZM28.2727 29.4607C28.2815 29.381 28.3304 29.3321 28.4195 29.3139C28.5235 29.7348 28.6215 30.1511 28.7133 30.5623C28.5466 30.6723 28.3997 30.6479 28.2727 30.4889C28.4586 30.1258 28.4586 29.783 28.2727 29.4607Z" fill="#1456A1"/>
<path fill-rule="evenodd" clip-rule="evenodd" d="M27.834 1.40732C28.3673 1.35744 28.8568 1.47983 29.3027 1.7745C33.3949 5.81766 37.434 9.90568 41.4199 14.0386C41.7111 14.6935 41.6622 15.3299 41.273 15.9479C37.2788 19.8932 33.3377 23.8833 29.4496 27.9183C28.7054 28.3978 27.971 28.3978 27.2465 27.9183C23.3584 23.8833 19.4173 19.8932 15.423 15.9479C15.0135 15.3355 14.9646 14.6991 15.2761 14.0386C19.3936 9.74976 23.5796 5.53935 27.834 1.40732Z" fill="#F5F7FA"/>
<path fill-rule="evenodd" clip-rule="evenodd" d="M27.8321 3.16962C28.5838 3.07988 29.2693 3.25124 29.8884 3.68368C33.0419 6.98424 36.2488 10.24 39.5087 13.4509C40.1257 14.2964 40.1748 15.1776 39.6556 16.0946C36.404 19.4932 33.0994 22.8468 29.7415 26.1556C28.6843 26.7234 27.7052 26.6256 26.804 25.8618C23.7483 22.6592 20.6395 19.5014 17.4774 16.3884C16.9343 15.5591 16.8363 14.6779 17.1837 13.7446C20.62 10.0879 24.1695 6.56293 27.8321 3.16962Z" fill="#1858A2"/>
<path fill-rule="evenodd" clip-rule="evenodd" d="M28.7125 4.19826C28.7704 11.2511 28.6235 18.3012 28.2719 25.3483C28.5067 25.3089 28.7025 25.358 28.8594 25.4951C28.3914 25.711 27.9508 25.6376 27.5375 25.2748C26.7673 24.5788 26.082 23.82 25.4812 22.9983C25.4796 22.7754 25.3818 22.604 25.1875 22.4842C25.3968 21.6223 25.4948 20.7411 25.4812 19.8404C25.4323 18.8123 25.3833 17.7842 25.3344 16.7561C25.4323 15.679 25.5302 14.6019 25.6281 13.5248C25.5792 12.4967 25.5302 11.4686 25.4812 10.4404C25.6866 9.26552 25.7845 8.06604 25.775 6.84201C25.6281 6.84201 25.4812 6.84201 25.3344 6.84201C26.1369 5.96594 26.9691 5.10916 27.8312 4.2717C28.121 4.19892 28.4148 4.17445 28.7125 4.19826Z" fill="#D7EEFA"/>
<path fill-rule="evenodd" clip-rule="evenodd" d="M28.7141 4.19824C29.8747 4.96644 30.9028 5.89666 31.7984 6.98887C31.739 7.14306 31.6411 7.14306 31.5047 6.98887C31.3845 9.61838 31.2377 12.2377 31.0641 14.8467C31.084 17.7113 31.084 20.5754 31.0641 23.4389C30.419 24.2311 29.6846 24.9166 28.8609 25.4951C28.7041 25.3579 28.5083 25.3089 28.2734 25.3482C28.6251 18.3012 28.7719 11.2511 28.7141 4.19824Z" fill="#C5E6F9"/>
<path fill-rule="evenodd" clip-rule="evenodd" d="M31.7969 6.98828C32.7231 7.96358 33.6532 8.94275 34.5875 9.92578C34.542 10.1077 34.4685 10.1077 34.3672 9.92578C34.1285 13.4091 34.0551 16.8852 34.1469 20.3539C33.1677 21.4309 32.1395 22.4591 31.0625 23.4383C31.0825 20.5748 31.0825 17.7107 31.0625 14.8461C31.2361 12.2371 31.383 9.6178 31.5031 6.98828C31.6396 7.14247 31.7374 7.14247 31.7969 6.98828Z" fill="#ADDDF7"/>
<path fill-rule="evenodd" clip-rule="evenodd" d="M25.3365 6.8418C25.4833 6.8418 25.6302 6.8418 25.7771 6.8418C25.7866 8.06582 25.6887 9.26531 25.4833 10.4402C25.5323 11.4684 25.5813 12.4965 25.6302 13.5246C25.5323 14.6017 25.4344 15.6788 25.3365 16.7559C25.3854 17.784 25.4344 18.8121 25.4833 19.8402C25.4969 20.7409 25.3989 21.6221 25.1896 22.484C25.3839 22.6038 25.4817 22.7752 25.4833 22.998C22.9916 20.5797 20.5191 18.1318 18.0662 15.6543C17.7427 15.0313 17.7916 14.4438 18.213 13.8918C20.5682 11.5122 22.9426 9.16216 25.3365 6.8418Z" fill="#F6FAFC"/>
<path fill-rule="evenodd" clip-rule="evenodd" d="M34.5882 9.92578C36.0519 11.3159 37.4961 12.7357 38.9211 14.1852C39.019 14.6258 39.019 15.0664 38.9211 15.507C37.4025 17.1968 35.8114 18.8125 34.1476 20.3539C34.0558 16.8852 34.1293 13.4091 34.3679 9.92578C34.4693 10.1077 34.5427 10.1077 34.5882 9.92578Z" fill="#A1D7F6"/>
<path opacity="0.978" fill-rule="evenodd" clip-rule="evenodd" d="M69.8376 15.8012C72.7171 15.5093 75.4586 15.9745 78.0626 17.1965C81.2628 19.2316 82.8296 22.1691 82.7626 26.009C82.2842 32.8266 78.6123 36.2293 71.747 36.2168C63.947 35.9805 60.3486 31.966 60.9516 24.1731C61.4544 20.5389 63.3883 18.0175 66.7532 16.609C67.7826 16.2662 68.8108 15.997 69.8376 15.8012ZM71.1595 20.6481C72.841 20.4963 73.8937 21.2307 74.3173 22.8512C74.8396 25.1181 74.7905 27.3701 74.1704 29.6074C73.3933 31.2902 72.1448 31.7552 70.4251 31.0027C69.6015 30.3464 69.1365 29.4896 69.0298 28.4324C68.657 26.2882 68.8039 24.183 69.4704 22.1168C69.8843 21.4322 70.4473 20.9425 71.1595 20.6481Z" fill="white"/>
<path fill-rule="evenodd" clip-rule="evenodd" d="M42.2253 16.095C42.8074 16.0347 43.346 16.157 43.841 16.4622C47.729 20.4972 51.6701 24.4873 55.6644 28.4325C56.1439 29.1571 56.1439 29.8914 55.6644 30.6357C51.719 34.532 47.8268 38.4731 43.9878 42.4591C43.368 43.003 42.6827 43.1009 41.9316 42.7528C37.8393 38.7097 33.8003 34.6217 29.8144 30.4888C29.5935 29.969 29.5446 29.4306 29.6675 28.8732C33.7232 24.8175 37.7866 20.7541 41.8581 16.6825C41.9554 16.4646 42.0779 16.2688 42.2253 16.095Z" fill="#F5F7FA"/>
<path opacity="0.977" fill-rule="evenodd" clip-rule="evenodd" d="M216.127 16.2415C219.553 15.8735 222.686 16.6322 225.527 18.5181C227.815 20.6495 228.941 23.2933 228.905 26.4493C228.933 31.5453 226.533 34.8255 221.708 36.29C218.681 36.9986 215.695 36.8518 212.748 35.8493C209.401 34.3606 207.515 31.7903 207.094 28.1384C206.496 21.3923 209.507 17.4267 216.127 16.2415ZM217.742 21.0884C219.468 21.2019 220.423 22.1321 220.606 23.879C220.9 25.6415 220.9 27.404 220.606 29.1665C220.035 31.6672 218.591 32.3772 216.273 31.2962C215.621 30.5151 215.254 29.6094 215.172 28.579C214.797 26.3501 215.043 24.196 215.906 22.1165C216.414 21.5569 217.027 21.2141 217.742 21.0884Z" fill="white"/>
<path fill-rule="evenodd" clip-rule="evenodd" d="M13.4382 16.5359C13.9491 16.4895 14.4387 16.563 14.907 16.7563C18.954 20.8032 22.993 24.8423 27.0242 28.8734C27.5137 29.5589 27.5137 30.2442 27.0242 30.9297C23.0872 35.0135 19.097 39.0526 15.0539 43.0469C14.4174 43.3406 13.7809 43.3406 13.1445 43.0469C9.10127 39.0526 5.11116 35.0135 1.17416 30.9297C0.702362 30.2394 0.702362 29.5539 1.17416 28.8734C5.29975 24.7724 9.38778 20.6599 13.4382 16.5359Z" fill="#F5F7FA"/>
<path opacity="0.982" fill-rule="evenodd" clip-rule="evenodd" d="M181.465 16.5352C184.01 16.5352 186.557 16.5352 189.102 16.5352C189.102 18.8362 189.102 21.1372 189.102 23.4383C190.67 23.4383 192.235 23.4383 193.802 23.4383C193.802 21.1372 193.802 18.8362 193.802 16.5352C196.348 16.5352 198.895 16.5352 201.44 16.5352C201.397 23.1463 201.447 29.7557 201.587 36.3633C199.037 36.3517 196.49 36.3762 193.949 36.4367C193.804 34.0246 193.755 31.6012 193.802 29.1664C192.235 29.1664 190.67 29.1664 189.102 29.1664C189.102 31.6144 189.102 34.0622 189.102 36.5102C186.557 36.5102 184.01 36.5102 181.465 36.5102C181.465 29.8519 181.465 23.1934 181.465 16.5352Z" fill="white"/>
<path opacity="0.97" fill-rule="evenodd" clip-rule="evenodd" d="M234.34 16.5356C238.698 16.511 243.055 16.5356 247.412 16.609C249.889 16.6597 251.775 17.7122 253.066 19.7668C254.09 23.0311 252.989 25.2099 249.762 26.3028C252.989 27.0831 254.335 29.1148 253.801 32.3981C253.228 34.1954 252.028 35.346 250.202 35.8496C249.475 36.0341 248.741 36.181 247.999 36.2903C243.446 36.3637 238.893 36.3882 234.34 36.3637C234.34 29.7543 234.34 23.1449 234.34 16.5356ZM241.684 20.7949C242.663 20.7706 243.643 20.7949 244.621 20.8684C245.85 21.3463 246.218 22.203 245.723 23.4387C245.469 23.7496 245.15 23.9699 244.768 24.0996C243.75 24.2963 242.722 24.3697 241.684 24.3199C241.684 23.1449 241.684 21.9699 241.684 20.7949ZM241.684 28.4324C242.935 28.3421 244.158 28.4645 245.355 28.7996C246.096 29.4775 246.268 30.2853 245.87 31.2231C245.585 31.6058 245.217 31.875 244.768 32.0309C243.747 32.2115 242.719 32.285 241.684 32.2512C241.684 30.9782 241.684 29.7054 241.684 28.4324Z" fill="white"/>
<path opacity="0.975" fill-rule="evenodd" clip-rule="evenodd" d="M281.927 35.776C281.927 35.9718 281.927 36.1678 281.927 36.3635C279.281 36.4125 276.638 36.3635 273.995 36.2167C273.533 34.9036 273.092 33.5817 272.673 32.251C270.767 32.1043 268.858 32.0554 266.945 32.1042C266.553 33.5255 266.161 34.9453 265.77 36.3635C263.225 36.3635 260.678 36.3635 258.133 36.3635C260.315 29.7912 262.543 23.2307 264.816 16.6823C268.257 16.5363 271.708 16.4874 275.17 16.5354C277.369 22.9835 279.621 29.3971 281.927 35.776ZM269.736 21.3823C270.387 23.3357 271.073 25.294 271.792 27.2573C270.564 27.3651 269.292 27.414 267.973 27.4042C268.561 25.3976 269.148 23.3902 269.736 21.3823Z" fill="white"/>
<path opacity="0.971" fill-rule="evenodd" clip-rule="evenodd" d="M86.582 16.6827C89.1278 16.6827 91.6737 16.6827 94.2195 16.6827C94.195 19.18 94.2195 21.6769 94.293 24.1733C95.7666 21.7446 97.2108 19.2966 98.6258 16.8296C101.562 16.6583 104.5 16.6338 107.438 16.7561C105.235 19.8405 103.032 22.9249 100.829 26.0093C103.282 29.4223 105.681 32.8739 108.026 36.3639C104.99 36.5597 101.955 36.5597 98.9195 36.3639C97.3773 33.6713 95.8352 30.9785 94.293 28.2858C94.2195 31.0271 94.195 33.7687 94.2195 36.5108C91.6737 36.5108 89.1278 36.5108 86.582 36.5108C86.582 29.9014 86.582 23.2921 86.582 16.6827Z" fill="white"/>
<path opacity="0.978" fill-rule="evenodd" clip-rule="evenodd" d="M113.312 16.6826C115.858 16.6826 118.404 16.6826 120.95 16.6826C120.95 18.9347 120.95 21.1868 120.95 23.4389C122.566 23.4389 124.181 23.4389 125.797 23.4389C125.797 21.1868 125.797 18.9347 125.797 16.6826C128.343 16.6826 130.889 16.6826 133.434 16.6826C133.434 23.292 133.434 29.9014 133.434 36.5107C130.889 36.5107 128.343 36.5107 125.797 36.5107C125.797 34.0628 125.797 31.615 125.797 29.167C124.181 29.167 122.566 29.167 120.95 29.167C120.95 31.615 120.95 34.0628 120.95 36.5107C118.404 36.5107 115.858 36.5107 113.312 36.5107C113.312 29.9014 113.312 23.292 113.312 16.6826Z" fill="white"/>
<path opacity="0.971" fill-rule="evenodd" clip-rule="evenodd" d="M144.747 16.6826C148.173 16.6826 151.602 16.6826 155.028 16.6826C157.152 23.0792 159.38 29.4437 161.711 35.7764C161.783 36.0164 161.808 36.2612 161.784 36.5107C159.139 36.5597 156.495 36.5107 153.853 36.3639C153.426 35.0081 152.985 33.6618 152.531 32.3248C150.62 32.2025 148.711 32.227 146.803 32.3982C146.376 33.7524 145.936 35.0987 145.481 36.4373C142.934 36.5597 140.388 36.5351 137.844 36.3639C140.146 29.8009 142.447 23.2404 144.747 16.6826ZM149.594 21.5295C150.291 23.449 150.976 25.3829 151.65 27.3311C150.378 27.4045 149.105 27.4289 147.831 27.4045C148.419 25.4462 149.006 23.4878 149.594 21.5295Z" fill="white"/>
<path fill-rule="evenodd" clip-rule="evenodd" d="M42.0813 17.8574C42.8027 17.7932 43.4881 17.9155 44.1375 18.2246C47.4954 21.5334 50.8001 24.887 54.0516 28.2855C54.515 29.1109 54.515 29.9431 54.0516 30.7824C50.7428 34.0423 47.487 37.347 44.2844 40.6964C43.4239 41.2886 42.5426 41.3377 41.6407 40.8433C38.2828 37.5345 34.9781 34.1809 31.7266 30.7824C31.1091 29.5517 31.3049 28.4745 32.3141 27.5511C35.5545 24.2862 38.8101 21.055 42.0813 17.8574Z" fill="#1858A2"/>
<path fill-rule="evenodd" clip-rule="evenodd" d="M13.4409 18.2979C14.1678 18.2184 14.8533 18.3408 15.4972 18.6651C18.855 21.9739 22.1597 25.3275 25.4112 28.726C25.9347 29.7142 25.8369 30.6443 25.1175 31.5166C21.8617 34.7724 18.6061 38.028 15.3503 41.2838C14.4863 41.6155 13.654 41.5666 12.8534 41.1369C9.54456 37.8771 6.28882 34.5724 3.08624 31.2229C2.60667 30.3375 2.60667 29.4563 3.08624 28.5791C6.39512 25.3192 9.65085 22.0145 12.8534 18.6651C13.0835 18.5758 13.2793 18.4533 13.4409 18.2979Z" fill="#1958A2"/>
<path fill-rule="evenodd" clip-rule="evenodd" d="M44.2812 19.7666C44.1094 25.7616 43.9135 31.759 43.6937 37.7588C43.6979 38.4315 43.7468 39.0924 43.8406 39.7416C43.7741 39.8823 43.6763 40.0048 43.5469 40.1088C43.1062 40.2068 42.6656 40.2068 42.225 40.1088C41.901 39.8096 41.6072 39.4915 41.3438 39.1541C41.6084 38.1855 41.7308 37.1574 41.7109 36.0697C41.7598 37.049 41.8089 38.028 41.8578 39.0072C42.0429 32.5428 42.2632 26.0803 42.5187 19.6197C42.5063 19.3505 42.4083 19.1547 42.225 19.0322C42.2413 18.9416 42.2902 18.8682 42.3719 18.8119C43.2396 18.6583 43.876 18.9764 44.2812 19.7666Z" fill="#CCE9FA"/>
<path fill-rule="evenodd" clip-rule="evenodd" d="M15.7891 20.354C15.7475 20.4699 15.6741 20.5678 15.5687 20.6477C15.3661 27.061 15.1703 33.4745 14.9812 39.8883C14.8068 40.0445 14.7333 40.2404 14.7609 40.4758C13.9151 40.826 13.2787 40.5813 12.8516 39.7415C12.9978 39.7541 13.1202 39.705 13.2188 39.5946C13.3029 35.3584 13.4253 31.1236 13.5859 26.8899C13.5415 24.5145 13.468 22.1401 13.3656 19.7665C13.2458 19.9608 13.0744 20.0586 12.8516 20.0602C13.9269 18.8345 14.906 18.9325 15.7891 20.354Z" fill="#CCE9FA"/>
<path fill-rule="evenodd" clip-rule="evenodd" d="M42.225 19.0322C42.4083 19.1547 42.5063 19.3505 42.5187 19.6197C42.2632 26.0803 42.0429 32.5428 41.8578 39.0072C41.8089 38.028 41.7598 37.0489 41.7109 36.0697C41.7308 37.1573 41.6084 38.1855 41.3438 39.1541C40.5605 38.4686 39.8261 37.7343 39.1406 36.951C39.3652 35.6279 39.5121 34.2815 39.5812 32.9119C39.4861 32.4102 39.437 31.8961 39.4344 31.3697C39.5886 28.1051 39.7355 24.8494 39.875 21.6025C39.8415 21.5439 39.7925 21.5196 39.7281 21.5291C40.5114 20.6479 41.3438 19.8155 42.225 19.0322Z" fill="#DDF0FB"/>
<path fill-rule="evenodd" clip-rule="evenodd" d="M12.8523 39.7416C11.9711 38.9583 11.1388 38.126 10.3555 37.2447C10.593 37.0848 10.7154 36.8399 10.7227 36.5104C10.8486 31.7111 10.9465 26.9131 11.0164 22.1166C10.8966 22.3109 10.7252 22.4087 10.5023 22.4104C11.2367 21.578 12.02 20.7947 12.8523 20.0604C13.0752 20.0587 13.2466 19.9609 13.3664 19.7666C13.4688 22.1402 13.5423 24.5146 13.5867 26.89C13.4261 31.1237 13.3037 35.3586 13.2195 39.5947C13.121 39.7052 12.9986 39.7542 12.8523 39.7416Z" fill="#DDF0FB"/>
<path fill-rule="evenodd" clip-rule="evenodd" d="M44.2828 19.7666C45.5067 20.8927 46.6817 22.0677 47.8078 23.2916C47.7623 23.4734 47.6888 23.4734 47.5875 23.2916C47.3576 27.6086 47.2842 31.9168 47.3672 36.2166C46.2411 37.4405 45.0661 38.6155 43.8422 39.7416C43.7483 39.0924 43.6994 38.4315 43.6953 37.7588C43.915 31.7589 44.111 25.7616 44.2828 19.7666Z" fill="#BCE3F8"/>
<path fill-rule="evenodd" clip-rule="evenodd" d="M15.7877 20.3545C16.9138 21.3826 17.9908 22.4597 19.0189 23.5857C18.8129 27.8691 18.6171 32.153 18.4314 36.4373C18.5131 36.4936 18.562 36.567 18.5783 36.6576C17.3434 37.9905 16.0704 39.2635 14.7596 40.4764C14.732 40.2409 14.8054 40.045 14.9799 39.8889C15.1689 33.475 15.3647 27.0615 15.5674 20.6482C15.6727 20.5683 15.7461 20.4704 15.7877 20.3545Z" fill="#BCE3F8"/>
<path fill-rule="evenodd" clip-rule="evenodd" d="M39.7286 21.5294C39.7929 21.5198 39.842 21.5442 39.8754 21.6028C39.7359 24.8496 39.589 28.1054 39.4348 31.37C39.4375 31.8964 39.4865 32.4104 39.5817 32.9122C39.5125 34.2818 39.3656 35.6282 39.1411 36.9512C36.8409 34.7735 34.6134 32.5213 32.4583 30.195C32.1381 29.6201 32.1871 29.0815 32.6051 28.5794C34.9603 26.1997 37.3347 23.8497 39.7286 21.5294Z" fill="#F6FAFC"/>
<path fill-rule="evenodd" clip-rule="evenodd" d="M10.3539 37.2453C8.11036 35.11 5.93172 32.9069 3.81797 30.6359C3.52422 30.1464 3.52422 29.6567 3.81797 29.1672C6.07921 26.9306 8.30682 24.6784 10.5008 22.4109C10.7236 22.4093 10.895 22.3115 11.0148 22.1172C10.9449 26.9137 10.847 31.7117 10.7211 36.5109C10.7138 36.8405 10.5914 37.0854 10.3539 37.2453Z" fill="#F7FAFD"/>
<path fill-rule="evenodd" clip-rule="evenodd" d="M47.8096 23.292C49.6158 25.0248 51.4029 26.7873 53.1705 28.5795C53.6023 29.0765 53.6512 29.6151 53.3174 30.1951C51.3009 32.187 49.3181 34.1942 47.369 36.217C47.286 31.9172 47.3594 27.6089 47.5893 23.292C47.6906 23.4738 47.764 23.4738 47.8096 23.292Z" fill="#A2D8F6"/>
<path fill-rule="evenodd" clip-rule="evenodd" d="M19.0211 23.5859C20.8764 25.3677 22.7124 27.1792 24.5289 29.0203C24.8227 29.6078 24.8227 30.1953 24.5289 30.7828C22.5655 32.7708 20.5827 34.7292 18.5805 36.6578C18.5642 36.5672 18.5153 36.4938 18.4336 36.4375C18.6192 32.1532 18.815 27.8693 19.0211 23.5859Z" fill="#A3D8F6"/>
<path opacity="0.938" fill-rule="evenodd" clip-rule="evenodd" d="M166.336 26.2295C169.273 26.2295 172.211 26.2295 175.148 26.2295C175.148 27.9431 175.148 29.6565 175.148 31.3701C172.211 31.3701 169.273 31.3701 166.336 31.3701C166.336 29.6565 166.336 27.9431 166.336 26.2295Z" fill="white"/>
<path fill-rule="evenodd" clip-rule="evenodd" d="M28.1257 31.6637C28.8342 31.586 29.4706 31.7574 30.0351 32.1777C33.8252 36.1147 37.6684 40.0069 41.5647 43.8543C41.992 44.5556 42.0411 45.29 41.7116 46.0574C37.7746 50.1413 33.7845 54.1804 29.7413 58.1746C28.979 58.6818 28.2447 58.6327 27.5382 58.0277C23.7481 54.0908 19.9048 50.1986 16.0085 46.3512C15.4098 45.5999 15.3609 44.8166 15.8616 44.0012C19.9872 39.9001 24.0752 35.7876 28.1257 31.6637Z" fill="#F5F8FA"/>
<path fill-rule="evenodd" clip-rule="evenodd" d="M28.1257 33.4257C28.8472 33.3616 29.5325 33.4839 30.182 33.7929C33.5356 37.2445 36.8893 40.6961 40.2429 44.1476C40.4418 45.0535 40.2949 45.8857 39.8023 46.6445C36.5465 49.9003 33.2909 53.1559 30.0351 56.4117C29.2474 56.8884 28.464 56.8884 27.6851 56.4117C24.4293 53.1559 21.1737 49.9003 17.9179 46.6445C17.3098 45.6861 17.2608 44.7069 17.771 43.707C21.0798 40.4471 24.3356 37.1424 27.5382 33.7929C27.7682 33.7036 27.9641 33.5811 28.1257 33.4257Z" fill="#1958A2"/>
<path fill-rule="evenodd" clip-rule="evenodd" d="M29.5945 34.6014C29.444 34.6597 29.4195 34.7575 29.5211 34.8952C29.7414 35.1155 29.9617 35.3358 30.182 35.5561C29.9635 41.8633 29.7921 48.2035 29.668 54.5764C29.644 54.896 29.5217 55.1652 29.3008 55.3842C29.388 55.4524 29.486 55.4769 29.5945 55.4577C29.5782 55.5483 29.5293 55.6217 29.4477 55.678C29.0559 55.7759 28.6644 55.7759 28.2727 55.678C28.1433 55.574 28.0454 55.4515 27.9789 55.3108C27.8893 54.6325 27.8404 53.947 27.832 53.2545C28.1629 47.0156 28.2608 40.7978 28.1258 34.6014C28.6153 34.2097 29.105 34.2097 29.5945 34.6014Z" fill="#CCE9FA"/>
<path fill-rule="evenodd" clip-rule="evenodd" d="M28.125 34.6016C28.26 40.7979 28.1622 47.0157 27.8312 53.2547C27.8396 53.9472 27.8885 54.6327 27.9781 55.3109C26.9989 54.4297 26.0687 53.4995 25.1875 52.5203C25.4698 47.5042 25.5923 42.4616 25.5547 37.3922C25.4561 37.5026 25.3338 37.5517 25.1875 37.5391C26.1177 36.5109 27.0969 35.5317 28.125 34.6016Z" fill="#DDF0FB"/>
<path fill-rule="evenodd" clip-rule="evenodd" d="M29.5945 34.6016C31.0144 35.9234 32.3852 37.2942 33.707 38.7141C33.5167 39.7075 33.4187 40.7356 33.4133 41.7984C33.3564 45.0097 33.2585 48.2164 33.1195 51.4187C33.1552 51.5512 33.2043 51.6736 33.2664 51.7859C32.0844 53.066 30.8604 54.2899 29.5945 55.4578C29.486 55.4771 29.388 55.4525 29.3008 55.3844C29.5217 55.1654 29.644 54.8962 29.668 54.5766C29.7921 48.2037 29.9635 41.8635 30.182 35.5562C29.9617 35.3359 29.7414 35.1156 29.5211 34.8953C29.4195 34.7577 29.444 34.6599 29.5945 34.6016Z" fill="#BCE3F8"/>
<path fill-rule="evenodd" clip-rule="evenodd" d="M25.1905 52.5197C22.9434 50.3463 20.7159 48.1431 18.5076 45.9104C18.2898 45.4401 18.2408 44.9504 18.3608 44.4416C20.671 42.1559 22.9475 39.855 25.1905 37.5385C25.3367 37.5511 25.4591 37.5021 25.5576 37.3916C25.5952 42.461 25.4728 47.5037 25.1905 52.5197Z" fill="#F6FAFC"/>
<path fill-rule="evenodd" clip-rule="evenodd" d="M33.7086 38.7139C35.5598 40.6387 37.4447 42.548 39.3633 44.442C39.4833 44.9508 39.4342 45.4404 39.2164 45.9107C37.253 47.8987 35.2702 49.8571 33.268 51.7857C33.2058 51.6734 33.1568 51.551 33.1211 51.4186C33.26 48.2162 33.358 45.0095 33.4148 41.7982C33.4203 40.7355 33.5182 39.7073 33.7086 38.7139Z" fill="#A3D8F6"/>
<path opacity="0.918" fill-rule="evenodd" clip-rule="evenodd" d="M257.987 41.3579C259.025 41.3081 260.053 41.3815 261.071 41.5782C262.875 42.4331 263.34 43.7795 262.466 45.6172C261.924 46.1942 261.264 46.5613 260.484 46.7188C259.09 46.9514 257.768 46.7555 256.518 46.1313C255.625 45.1795 255.405 44.078 255.857 42.8266C256.386 42.0614 257.095 41.5719 257.987 41.3579ZM258.721 42.8266C259.764 42.636 260.351 43.0521 260.484 44.075C260.459 44.8829 260.043 45.299 259.235 45.3235C258.188 45.1916 257.797 44.6041 258.06 43.561C258.21 43.2398 258.43 42.9949 258.721 42.8266Z" fill="white"/>
<path opacity="0.921" fill-rule="evenodd" clip-rule="evenodd" d="M266.651 41.3578C267.534 41.3334 268.415 41.3579 269.295 41.4312C271.276 41.9428 271.987 43.1912 271.425 45.1765C270.968 46.0226 270.259 46.5367 269.295 46.7187C268.094 46.8805 266.919 46.7826 265.77 46.4249C263.94 45.0235 263.843 43.5057 265.476 41.8718C265.889 41.7113 266.281 41.5399 266.651 41.3578ZM267.533 42.8265C268.564 42.6313 269.151 43.0475 269.295 44.0749C269.151 45.1263 268.564 45.5178 267.533 45.2499C267.27 45.1346 267.049 44.9634 266.872 44.7359C266.613 43.9024 266.833 43.266 267.533 42.8265Z" fill="white"/>
<path opacity="0.877" fill-rule="evenodd" clip-rule="evenodd" d="M277.081 43.7077C276.983 43.7077 276.935 43.7566 276.935 43.8546C275.871 44.4051 274.793 44.4296 273.703 43.928C273.014 43.2893 272.941 42.5794 273.483 41.7983C274.499 41.3059 275.552 41.2324 276.641 41.578C277.25 42.1738 277.397 42.8837 277.081 43.7077ZM274.731 42.239C275.563 42.0445 275.906 42.3383 275.76 43.1202C275.442 43.4783 275.1 43.5028 274.731 43.1937C274.545 42.876 274.545 42.5577 274.731 42.239Z" fill="white"/>
<path opacity="0.832" fill-rule="evenodd" clip-rule="evenodd" d="M277.963 44.2953C277.864 44.2953 277.816 44.3442 277.816 44.4422C277.111 45.1724 276.425 45.9312 275.759 46.7188C275.319 46.8167 274.878 46.8167 274.438 46.7188C275.301 45.7829 276.132 44.8282 276.934 43.8547C277.033 43.8547 277.081 43.8058 277.081 43.7078C277.786 42.9775 278.472 42.2188 279.138 41.4312C279.568 41.3992 279.984 41.3258 280.386 41.2109C280.484 41.3089 280.484 41.4067 280.386 41.5047C279.547 42.416 278.739 43.3464 277.963 44.2953Z" fill="white"/>
<path opacity="0.901" fill-rule="evenodd" clip-rule="evenodd" d="M251.818 41.5039C252.454 41.5039 253.091 41.5039 253.727 41.5039C253.727 43.2175 253.727 44.9309 253.727 46.6445C252.993 46.6445 252.259 46.6445 251.524 46.6445C251.549 45.5663 251.524 44.4893 251.451 43.4133C251.109 43.5112 250.765 43.6091 250.423 43.707C250.349 43.1706 250.324 42.6322 250.349 42.0914C250.947 42.1346 251.436 41.9387 251.818 41.5039Z" fill="white"/>
<path opacity="0.876" fill-rule="evenodd" clip-rule="evenodd" d="M191.159 42.3857C192.475 42.2779 193.749 42.4492 194.978 42.8998C195.204 43.1317 195.376 43.4011 195.492 43.7076C195.533 44.7406 195.607 45.7687 195.712 46.792C194.976 46.8164 194.242 46.7918 193.509 46.7185C193.417 46.6084 193.343 46.4859 193.289 46.3514C192.071 46.9678 190.823 47.0412 189.544 46.5717C188.952 46.0783 188.805 45.4664 189.103 44.7357C189.342 44.4718 189.636 44.3004 189.984 44.2217C190.473 44.1728 190.964 44.1237 191.453 44.0748C190.72 44.0015 189.986 43.977 189.25 44.0014C189.27 43.5435 189.467 43.1764 189.837 42.8998C190.272 42.6642 190.713 42.4928 191.159 42.3857ZM191.894 43.5607C192.38 43.4965 192.82 43.5945 193.215 43.8545C192.676 44.0503 192.139 44.0503 191.6 43.8545C191.709 43.7543 191.807 43.6563 191.894 43.5607ZM193.215 44.8826C193.327 45.2007 193.18 45.421 192.775 45.5435C192.337 45.6167 191.897 45.6412 191.453 45.617C191.453 45.4701 191.453 45.3232 191.453 45.1764C192.064 45.1094 192.651 45.0116 193.215 44.8826Z" fill="white"/>
<path opacity="0.887" fill-rule="evenodd" clip-rule="evenodd" d="M207.019 42.3859C208.194 42.2695 209.321 42.4409 210.397 42.8999C211.161 43.4711 211.503 44.23 211.425 45.1765C210.005 45.1521 208.585 45.1765 207.166 45.2499C207.451 45.5249 207.793 45.6472 208.194 45.6171C209.254 45.3122 210.332 45.2633 211.425 45.4702C211.024 46.1388 210.437 46.5551 209.663 46.7187C208.37 46.9858 207.097 46.888 205.844 46.4249C204.938 45.8602 204.621 45.0524 204.889 44.0015C205.296 43.0528 206.006 42.5142 207.019 42.3859ZM207.753 43.5609C208.341 43.4702 208.83 43.6415 209.222 44.0749C208.488 44.1729 207.753 44.1729 207.019 44.0749C207.233 43.8361 207.477 43.6648 207.753 43.5609Z" fill="white"/>
<path opacity="0.903" fill-rule="evenodd" clip-rule="evenodd" d="M214.952 42.3851C216.103 42.307 217.228 42.4294 218.33 42.7523C219 43.0543 219.343 43.5684 219.358 44.2945C218.569 44.3427 217.785 44.2938 217.008 44.1476C216.584 43.6892 216.095 43.6158 215.539 43.9273C215.022 44.3217 214.974 44.7623 215.392 45.2492C216.09 45.6145 216.678 45.4921 217.155 44.882C217.883 44.736 218.618 44.6871 219.358 44.7351C219.276 45.822 218.688 46.483 217.596 46.718C216.666 46.8159 215.735 46.8159 214.805 46.718C213.253 46.3798 212.64 45.4252 212.969 43.8539C213.417 43.0568 214.078 42.5671 214.952 42.3851Z" fill="white"/>
<path opacity="0.907" fill-rule="evenodd" clip-rule="evenodd" d="M237.13 42.3851C237.915 42.3607 238.699 42.3852 239.48 42.4585C241.553 43.0033 242.067 44.2027 241.022 46.057C240.212 46.6455 239.305 46.8902 238.305 46.7913C236.928 46.9462 235.874 46.4566 235.147 45.3226C234.902 43.7319 235.563 42.7527 237.13 42.3851ZM237.718 43.8538C238.816 43.5592 239.282 43.9509 239.113 45.0288C238.693 45.4489 238.229 45.5223 237.718 45.2492C237.334 44.7844 237.334 44.3193 237.718 43.8538Z" fill="white"/>
<path opacity="0.875" fill-rule="evenodd" clip-rule="evenodd" d="M181.316 42.5321C182.051 42.5321 182.785 42.5321 183.52 42.5321C183.496 42.9267 183.52 43.3185 183.593 43.7071C183.966 43.2853 184.382 42.9181 184.841 42.6055C185.776 42.4835 186.705 42.508 187.632 42.679C187.119 43.1672 186.58 43.6323 186.016 44.0743C186.671 44.9179 187.307 45.7747 187.926 46.6446C187.045 46.8404 186.163 46.8404 185.282 46.6446C184.935 46.1747 184.617 45.6852 184.327 45.1758C184.125 45.4274 183.881 45.6234 183.593 45.7633C183.52 46.1026 183.496 46.4453 183.52 46.7915C182.785 46.7915 182.051 46.7915 181.316 46.7915C181.316 45.3716 181.316 43.9519 181.316 42.5321Z" fill="white"/>
<path opacity="0.903" fill-rule="evenodd" clip-rule="evenodd" d="M197.472 42.5322C198.206 42.5322 198.941 42.5322 199.675 42.5322C199.652 42.9269 199.675 43.3186 199.749 43.7072C200.053 44.0227 200.396 44.0718 200.777 43.8541C200.85 43.4161 200.874 42.9755 200.85 42.5322C201.584 42.5322 202.319 42.5322 203.053 42.5322C203.053 43.9521 203.053 45.3718 203.053 46.7916C202.319 46.7916 201.584 46.7916 200.85 46.7916C200.875 46.2996 200.85 45.81 200.777 45.3229C198.309 46.0127 197.208 45.0826 197.472 42.5322Z" fill="white"/>
<path opacity="0.886" fill-rule="evenodd" clip-rule="evenodd" d="M220.68 42.5322C222.541 42.5322 224.4 42.5322 226.261 42.5322C226.261 43.0218 226.261 43.5114 226.261 44.001C225.673 44.001 225.086 44.001 224.498 44.001C224.498 44.9311 224.498 45.8614 224.498 46.7916C223.764 46.7916 223.03 46.7916 222.295 46.7916C222.295 45.8614 222.295 44.9311 222.295 44.001C221.756 44.001 221.219 44.001 220.68 44.001C220.68 43.5114 220.68 43.0218 220.68 42.5322Z" fill="white"/>
<path opacity="0.908" fill-rule="evenodd" clip-rule="evenodd" d="M227.73 42.5328C229.459 42.4657 231.172 42.5391 232.871 42.7531C233.459 43.3406 233.459 43.9281 232.871 44.5156C233.553 44.82 233.773 45.334 233.532 46.0578C233.354 46.2853 233.134 46.4566 232.871 46.5719C231.164 46.7675 229.45 46.841 227.73 46.7922C227.73 45.3724 227.73 43.9527 227.73 42.5328ZM229.934 43.7078C230.338 43.6619 230.728 43.7108 231.109 43.8547C230.913 43.9036 230.716 43.9527 230.521 44.0016C230.252 43.9891 230.056 43.8911 229.934 43.7078ZM229.934 45.1766C230.433 45.1296 230.922 45.1785 231.402 45.3235C231.157 45.3724 230.913 45.4214 230.668 45.4703C230.354 45.4621 230.108 45.3641 229.934 45.1766Z" fill="white"/>
<path opacity="0.953" fill-rule="evenodd" clip-rule="evenodd" d="M61.4688 43.5605C99.4114 43.5605 137.354 43.5605 175.297 43.5605C175.297 44.6376 175.297 45.7148 175.297 46.7918C137.354 46.7918 99.4114 46.7918 61.4688 46.7918C61.4688 45.7148 61.4688 44.6376 61.4688 43.5605Z" fill="white"/>
<path opacity="0.863" fill-rule="evenodd" clip-rule="evenodd" d="M277.815 44.4421C277.913 44.4421 277.962 44.3932 277.962 44.2952C279.022 43.7502 280.099 43.7256 281.193 44.2218C281.806 44.7878 281.927 45.4488 281.56 46.2046C280.579 46.8315 279.526 46.9538 278.402 46.5718C278.084 46.4494 277.863 46.2291 277.741 45.9108C277.645 45.4132 277.67 44.9237 277.815 44.4421ZM279.284 44.7358C280.122 44.6429 280.416 44.9857 280.165 45.764C279.146 46.0235 278.852 45.6808 279.284 44.7358Z" fill="white"/>
</g>
<defs>
<clipPath id="clip0_3644_956">
<rect width="282" height="58.8969" fill="white" transform="translate(0 0.599609)"/>
</clipPath>
</defs>
</svg>
