<svg width="100" height="100" viewBox="0 0 100 100" fill="none" xmlns="http://www.w3.org/2000/svg">
<path d="M96.816 52.9978C96.7601 53.8479 96.5543 54.4894 96.1983 54.9222C95.8478 55.3612 95.3523 55.5597 94.7118 55.5176C94.3624 55.4946 94.0667 55.4109 93.8247 55.2663C93.5882 55.128 93.3992 54.9343 93.2576 54.6852C93.1215 54.4423 93.0296 54.1497 92.9819 53.8074C92.9342 53.4651 92.9243 53.0814 92.9523 52.6563L92.9964 51.9837L90.7516 51.8363L90.8073 50.989L96.7731 51.3808C96.8156 51.6234 96.836 51.8909 96.8344 52.1832C96.8382 52.4817 96.832 52.7532 96.816 52.9978ZM96.0689 53.0189C96.0927 52.6579 96.1021 52.3807 96.0972 52.1874L93.7214 52.0313L93.6795 52.669C93.6604 52.9601 93.6607 53.2233 93.6803 53.4585C93.7058 53.6941 93.757 53.8934 93.834 54.0564C93.9165 54.2255 94.0335 54.3589 94.185 54.4566C94.3364 54.5543 94.5345 54.6112 94.779 54.6272C95.012 54.6425 95.2072 54.6086 95.3647 54.5253C95.5218 54.4479 95.6493 54.3335 95.7469 54.182C95.85 54.0367 95.9258 53.8633 95.9741 53.6618C96.0224 53.4603 96.054 53.246 96.0689 53.0189Z" fill="#84858A"/>
<path d="M92.1974 62.2959C91.6847 62.1818 91.2553 62.0026 90.9092 61.7581C90.5687 61.515 90.3055 61.2202 90.1195 60.8739C89.9392 60.5289 89.8315 60.1402 89.7962 59.7079C89.7666 59.2768 89.8056 58.8192 89.9134 58.335C89.9667 58.0958 90.037 57.8334 90.1244 57.548C90.2049 57.267 90.2996 57.0161 90.4086 56.7952L96.1504 58.0732C96.1554 58.3194 96.1347 58.5868 96.0884 58.8755C96.0465 59.171 95.999 59.4385 95.9457 59.6777C95.838 60.1619 95.6764 60.5922 95.4611 60.9688C95.2514 61.3466 94.989 61.6529 94.6737 61.8876C94.3641 62.1236 94.0007 62.2788 93.5835 62.3534C93.1721 62.4292 92.71 62.4101 92.1974 62.2959ZM90.6245 58.565C90.4495 59.3511 90.5183 59.9822 90.8308 60.4583C91.149 60.9357 91.6698 61.2549 92.3933 61.4159C93.1167 61.5769 93.7209 61.5081 94.2058 61.2095C94.6965 60.9122 95.0293 60.3705 95.2042 59.5844C95.2562 59.3509 95.294 59.1679 95.3174 59.0357C95.3396 58.9091 95.3536 58.8195 95.3593 58.767L90.8308 57.759C90.8137 57.809 90.7883 57.8961 90.7547 58.0201C90.7199 58.1498 90.6764 58.3315 90.6245 58.565Z" fill="#84858A"/>
<path d="M88.7997 62.8673L94.4792 64.9984L93.1938 68.4241L92.5136 68.1689L93.5007 65.5381L91.7879 64.8954L90.9114 67.2312L90.2394 66.979L91.1158 64.6433L88.5015 63.6623L88.7997 62.8673Z" fill="#84858A"/>
<path d="M90.2502 74.243C89.8061 74.9701 89.326 75.4427 88.8099 75.6609C88.2956 75.887 87.7646 75.8328 87.2168 75.4982C86.918 75.3157 86.695 75.1043 86.5477 74.8639C86.4024 74.6316 86.3249 74.3722 86.3152 74.0859C86.3073 73.8076 86.3618 73.5058 86.4784 73.1804C86.5951 72.8551 86.7644 72.5106 86.9865 72.1471L87.3378 71.5719L85.4179 70.3993L85.8605 69.6747L90.9627 72.7909C90.8878 73.0255 90.7818 73.2719 90.6447 73.53C90.5095 73.7962 90.378 74.0339 90.2502 74.243ZM89.5787 73.915C89.7673 73.6062 89.9043 73.3651 89.9898 73.1916L87.9578 71.9506L87.6248 72.4959C87.4727 72.7449 87.3508 72.9781 87.259 73.1956C87.1722 73.4161 87.125 73.6164 87.1176 73.7965C87.1121 73.9846 87.1538 74.1571 87.2426 74.3139C87.3315 74.4707 87.4805 74.613 87.6897 74.7408C87.8889 74.8625 88.0775 74.923 88.2557 74.9224C88.4308 74.9268 88.5968 74.8845 88.7536 74.7957C88.9124 74.7149 89.0599 74.5964 89.1963 74.4404C89.3326 74.2843 89.4601 74.1092 89.5787 73.915Z" fill="#84858A"/>
<path d="M81.9227 80.2448C81.5204 79.9072 81.222 79.5502 81.0275 79.1737C80.8375 78.8009 80.7398 78.418 80.7344 78.025C80.7335 77.6357 80.8171 77.2411 80.985 76.8412C81.1575 76.445 81.4032 76.057 81.722 75.677C81.8796 75.4892 82.0629 75.2889 82.2721 75.0759C82.4731 74.8636 82.6728 74.6846 82.8713 74.5389L87.3774 78.32C87.2683 78.5408 87.1267 78.7686 86.9525 79.0034C86.7791 79.2464 86.6136 79.4617 86.456 79.6495C86.1372 80.0295 85.7954 80.3369 85.4307 80.5717C85.0705 80.8104 84.6964 80.9611 84.3084 81.0241C83.9249 81.0908 83.5309 81.061 83.1263 80.9349C82.7262 80.8124 82.325 80.5824 81.9227 80.2448ZM82.247 76.2089C81.7293 76.8258 81.4994 77.4175 81.5572 77.9841C81.6195 78.5544 81.9345 79.0778 82.5023 79.5542C83.07 80.0306 83.6379 80.2481 84.2059 80.2067C84.7783 80.169 85.3234 79.8418 85.8411 79.2249C85.9949 79.0416 86.1127 78.8967 86.1945 78.7901C86.2725 78.688 86.3262 78.6149 86.3555 78.571L82.8016 75.5888C82.7634 75.6253 82.7008 75.6908 82.6138 75.7854C82.523 75.8845 82.4007 76.0256 82.247 76.2089Z" fill="#84858A"/>
<path d="M78.6149 79.2055L82.6806 83.7075L79.9651 86.1598L79.4782 85.6206L81.5635 83.7374L80.3373 82.3796L78.4859 84.0517L78.0048 83.519L79.8563 81.8469L77.9847 79.7746L78.6149 79.2055Z" fill="#84858A"/>
<path d="M74.6335 89.991C73.9047 90.4325 73.261 90.6313 72.7024 90.5876C72.1418 90.5519 71.6952 90.2596 71.3626 89.7105C71.1812 89.4111 71.0804 89.1207 71.0602 88.8396C71.0381 88.5665 71.0885 88.3005 71.2115 88.0418C71.3325 87.7911 71.5197 87.5481 71.7729 87.3129C72.0261 87.0776 72.3349 86.8496 72.6993 86.6289L73.2758 86.2797L72.1102 84.3555L72.8365 83.9156L75.934 89.0293C75.7596 89.2032 75.5521 89.3732 75.3116 89.5393C75.0691 89.7135 74.8431 89.864 74.6335 89.991ZM74.1881 89.3909C74.4975 89.2035 74.7301 89.0524 74.8857 88.9376L73.6522 86.9011L73.1056 87.2322C72.8561 87.3834 72.6405 87.5344 72.459 87.6853C72.2805 87.8412 72.1466 87.9974 72.0572 88.1539C71.9658 88.3184 71.9235 88.4907 71.9302 88.6708C71.937 88.8509 72.0039 89.0458 72.1308 89.2554C72.2518 89.4551 72.3915 89.5956 72.5499 89.677C72.7034 89.7614 72.8702 89.8003 73.0503 89.7935C73.2285 89.7948 73.414 89.7575 73.6068 89.6816C73.7997 89.6057 73.9934 89.5088 74.1881 89.3909Z" fill="#84858A"/>
<path d="M64.4785 91.4751C64.2775 90.9899 64.1777 90.5354 64.179 90.1117C64.1826 89.6933 64.2728 89.3086 64.4495 88.9574C64.6284 88.6117 64.8847 88.3003 65.2184 88.0231C65.5543 87.7514 65.9514 87.5206 66.4097 87.3308C66.6361 87.237 66.8913 87.1439 67.1752 87.0516C67.4514 86.9561 67.7113 86.8896 67.9547 86.8519L70.2056 92.2865C70.0069 92.432 69.7761 92.5687 69.5132 92.6965C69.2472 92.8319 69.0009 92.9466 68.7745 93.0403C68.3162 93.2302 67.8711 93.345 67.4392 93.385C67.0095 93.4303 66.608 93.3913 66.2348 93.2679C65.8638 93.15 65.528 92.9417 65.2275 92.643C64.9291 92.3496 64.6795 91.9604 64.4785 91.4751ZM66.6297 88.045C65.8857 88.3531 65.4085 88.7718 65.1982 89.3011C64.9901 89.8357 65.0279 90.4454 65.3115 91.1301C65.5951 91.8149 65.9983 92.27 66.5213 92.4955C67.0464 92.7265 67.681 92.6879 68.4251 92.3797C68.6461 92.2882 68.8175 92.214 68.9393 92.1573C69.0557 92.1027 69.137 92.0627 69.1833 92.0373L67.408 87.751C67.3573 87.7657 67.2715 87.7949 67.1506 87.8387C67.0244 87.8846 66.8507 87.9534 66.6297 88.045Z" fill="#84858A"/>
<path d="M62.0261 89.0228L63.546 94.8955L60.0037 95.8123L59.8217 95.1089L62.5419 94.4049L62.0836 92.6338L59.6684 93.2588L59.4885 92.5639L61.9037 91.9389L61.2041 89.2356L62.0261 89.0228Z" fill="#84858A"/>
<path d="M53.514 96.7311C52.6636 96.7837 52.0012 96.6609 51.5267 96.3629C51.0468 96.0709 50.787 95.6046 50.7474 94.9639C50.7258 94.6145 50.7713 94.3105 50.884 94.0522C50.9912 93.8 51.1593 93.5879 51.3884 93.4159C51.612 93.25 51.8906 93.1217 52.2241 93.0309C52.5576 92.9402 52.937 92.8816 53.3621 92.8553L54.0349 92.8138L53.8961 90.5684L54.7436 90.516L55.1124 96.4833C54.8772 96.5563 54.6145 96.6105 54.3244 96.646C54.0288 96.6876 53.7586 96.716 53.514 96.7311ZM53.3982 95.9928C53.7593 95.9705 54.0355 95.9447 54.2266 95.9153L54.0797 93.5389L53.4419 93.5783C53.1507 93.5963 52.8897 93.63 52.6588 93.6794C52.4284 93.7345 52.2372 93.8107 52.0854 93.9078C51.928 94.011 51.8105 94.144 51.7329 94.3067C51.6552 94.4693 51.624 94.673 51.6391 94.9176C51.6535 95.1506 51.712 95.3399 51.8145 95.4856C51.9113 95.6316 52.041 95.7435 52.2036 95.8211C52.3608 95.9049 52.5424 95.958 52.7484 95.9804C52.9545 96.0027 53.1711 96.0069 53.3982 95.9928Z" fill="#84858A"/>
<path d="M43.6693 93.3318C43.7158 92.8087 43.8378 92.3596 44.0352 91.9847C44.232 91.6155 44.4901 91.3162 44.8093 91.0868C45.1279 90.8632 45.4993 90.7059 45.9234 90.6147C46.347 90.5293 46.8058 90.5086 47.2999 90.5526C47.544 90.5743 47.8132 90.6099 48.1076 90.6595C48.3967 90.7028 48.6578 90.7641 48.891 90.8435L48.3699 96.7027C48.1264 96.7396 47.8586 96.7539 47.5664 96.7454C47.2679 96.7423 46.9965 96.7299 46.7524 96.7082C46.2583 96.6643 45.8106 96.56 45.4093 96.3954C45.0075 96.2367 44.6697 96.0162 44.396 95.7341C44.1218 95.4578 43.9206 95.1177 43.7925 94.7137C43.6638 94.3156 43.6228 93.855 43.6693 93.3318ZM47.1642 91.2875C46.362 91.2161 45.7452 91.3663 45.3138 91.7381C44.8818 92.1156 44.633 92.6735 44.5674 93.4117C44.5017 94.1499 44.6484 94.7401 45.0075 95.1821C45.3661 95.63 45.9464 95.8895 46.7486 95.9609C46.9869 95.9821 47.1732 95.9957 47.3074 96.0018C47.4358 96.0074 47.5264 96.0096 47.5792 96.0084L47.9902 91.3873C47.9384 91.3768 47.8488 91.363 47.7214 91.3458C47.5883 91.3281 47.4025 91.3087 47.1642 91.2875Z" fill="#84858A"/>
<path d="M42.6423 90.0211L41.2568 95.9269L37.6945 95.0912L37.8605 94.3839L40.5961 95.0257L41.0139 93.2446L38.5851 92.6748L38.7491 91.9759L41.1779 92.5457L41.8156 89.8272L42.6423 90.0211Z" fill="#84858A"/>
<path d="M31.5234 92.8966C30.7463 92.5473 30.2172 92.1302 29.9361 91.6455C29.6472 91.1637 29.6344 90.6301 29.8976 90.0446C30.0412 89.7253 30.223 89.4775 30.443 89.3013C30.6552 89.128 30.9028 89.0186 31.1856 88.973C31.4607 88.9303 31.767 88.9464 32.1044 89.0214C32.4418 89.0963 32.8048 89.2211 33.1934 89.3958L33.8081 89.6722L34.7306 87.6204L35.505 87.9685L33.0534 93.4214C32.8113 93.3765 32.5535 93.3022 32.2802 93.1985C31.9992 93.0978 31.7469 92.9971 31.5234 92.8966ZM31.7646 92.1893C32.0946 92.3377 32.351 92.4434 32.5338 92.5064L33.5102 90.3348L32.9274 90.0728C32.6613 89.9531 32.4146 89.8614 32.1873 89.7976C31.9577 89.7392 31.753 89.7175 31.5734 89.7328C31.3861 89.7509 31.2202 89.8139 31.0758 89.9217C30.9313 90.0295 30.8089 90.1952 30.7084 90.4188C30.6126 90.6316 30.5763 90.8264 30.5992 91.0031C30.6168 91.1774 30.6795 91.3367 30.7873 91.4812C30.8874 91.6286 31.0234 91.7601 31.1954 91.8758C31.3673 91.9915 31.5571 92.096 31.7646 92.1893Z" fill="#84858A"/>
<path d="M24.552 85.4129C24.8355 84.9709 25.1516 84.6294 25.5003 84.3885C25.8458 84.1525 26.2131 84.0068 26.6022 83.9514C26.9882 83.9008 27.3902 83.9334 27.8083 84.049C28.2232 84.1696 28.6394 84.3638 29.057 84.6316C29.2633 84.7639 29.4854 84.9202 29.7233 85.1006C29.9594 85.2728 30.1624 85.4481 30.3323 85.6264L27.1564 90.5777C26.9235 90.4977 26.6795 90.3862 26.4245 90.2434C26.1614 90.1024 25.9266 89.9657 25.7203 89.8334C25.3028 89.5656 24.9543 89.2658 24.6749 88.934C24.3923 88.6072 24.1951 88.2553 24.0832 87.8785C23.9682 87.5066 23.9474 87.112 24.021 86.6947C24.0914 86.2823 24.2684 85.855 24.552 85.4129ZM28.5963 85.22C27.9184 84.7852 27.3022 84.6326 26.7477 84.7622C26.1899 84.8967 25.711 85.2759 25.3109 85.8997C24.9107 86.5235 24.7674 87.1145 24.8809 87.6726C24.9912 88.2356 25.3853 88.7345 26.0631 89.1693C26.2645 89.2985 26.4233 89.3968 26.5394 89.4644C26.6506 89.5288 26.7299 89.5727 26.7773 89.5962L29.2821 85.6911C29.241 85.6579 29.168 85.6041 29.0631 85.5299C28.9533 85.4525 28.7977 85.3492 28.5963 85.22Z" fill="#84858A"/>
<path d="M25.1595 81.9924L21.193 86.5821L18.4246 84.1895L18.8997 83.6398L21.0256 85.4772L22.2219 84.093L20.3344 82.4617L20.8037 81.9186L22.6912 83.5499L24.5171 81.4372L25.1595 81.9924Z" fill="#84858A"/>
<path d="M13.967 79.4017C13.4386 78.7333 13.1614 78.1193 13.1354 77.5596C13.1013 76.9989 13.336 76.5194 13.8395 76.1213C14.1142 75.9041 14.3897 75.7681 14.6662 75.7132C14.9345 75.6573 15.2046 75.6743 15.4766 75.7643C15.7404 75.8533 16.0047 76.0088 16.2696 76.2309C16.5344 76.453 16.7989 76.7311 17.0632 77.0653L17.4812 77.594L19.2459 76.1987L19.7725 76.8648L15.0827 80.5728C14.8885 80.4213 14.6941 80.2366 14.4994 80.0185C14.2965 79.7996 14.119 79.5939 13.967 79.4017ZM14.5072 78.8853C14.7316 79.1691 14.9104 79.3811 15.0436 79.5213L16.9113 78.0446L16.515 77.5433C16.334 77.3145 16.1574 77.1193 15.9851 76.9579C15.8083 76.8002 15.6367 76.6866 15.4703 76.6173C15.2958 76.5471 15.1195 76.5265 14.9416 76.5555C14.7637 76.5846 14.5787 76.6751 14.3864 76.8271C14.2033 76.9719 14.0812 77.128 14.0201 77.2953C13.9554 77.4581 13.9375 77.6284 13.9666 77.8063C13.9874 77.9832 14.0475 78.1626 14.1467 78.3446C14.2459 78.5265 14.3661 78.7067 14.5072 78.8853Z" fill="#84858A"/>
<path d="M11.2486 69.5977C11.7038 69.3356 12.1415 69.1778 12.5619 69.1242C12.9772 69.0736 13.3703 69.1132 13.7414 69.2429C14.1074 69.3756 14.4494 69.5894 14.7674 69.8844C15.0804 70.1822 15.3606 70.5461 15.6082 70.9759C15.7305 71.1883 15.8558 71.4293 15.9842 71.6989C16.1146 71.9604 16.2142 72.2095 16.2831 72.4459L11.1857 75.3817C11.0157 75.2035 10.8504 74.9923 10.6896 74.7482C10.5208 74.5019 10.3753 74.2726 10.2529 74.0602C10.0054 73.6304 9.83383 73.2039 9.7383 72.7808C9.63771 72.3606 9.6244 71.9575 9.69837 71.5714C9.76728 71.1883 9.93037 70.8283 10.1876 70.4916C10.4398 70.1578 10.7935 69.8598 11.2486 69.5977ZM14.9285 71.2866C14.5266 70.5887 14.0496 70.1698 13.4976 70.0298C12.9405 69.8927 12.3408 70.0091 11.6986 70.379C11.0564 70.7489 10.6573 71.2077 10.5014 71.7554C10.3404 72.3061 10.4608 72.9304 10.8627 73.6282C10.9822 73.8355 11.0779 73.9959 11.1499 74.1093C11.2191 74.2176 11.2693 74.2931 11.3005 74.3357L15.3208 72.0203C15.2996 71.9719 15.2595 71.8906 15.2005 71.7764C15.1386 71.6572 15.0479 71.4939 14.9285 71.2866Z" fill="#84858A"/>
<path d="M13.3669 66.8593L7.73679 69.1175L6.37468 65.7216L7.049 65.4511L8.09502 68.059L9.79301 67.3779L8.86429 65.0625L9.53049 64.7953L10.4592 67.1107L13.0509 66.0712L13.3669 66.8593Z" fill="#84858A"/>
<path d="M4.6165 59.3764C4.45686 58.5394 4.49491 57.8668 4.73064 57.3585C4.95954 56.8455 5.38927 56.5289 6.01982 56.4086C6.36376 56.343 6.671 56.3497 6.94154 56.4288C7.20526 56.5033 7.43692 56.6433 7.63652 56.8488C7.82929 57.0496 7.99178 57.3097 8.12399 57.6291C8.25619 57.9484 8.3622 58.3174 8.44201 58.7358L8.5683 59.3979L10.7781 58.9764L10.9372 59.8105L5.06444 60.9306C4.96229 60.7065 4.87528 60.4528 4.80341 60.1695C4.72472 59.8815 4.66242 59.6171 4.6165 59.3764ZM5.33424 59.1682C5.40203 59.5236 5.46257 59.7942 5.51584 59.9801L7.85462 59.534L7.7349 58.9063C7.68023 58.6197 7.61383 58.365 7.53571 58.1423C7.45185 57.9207 7.35216 57.7407 7.23666 57.6023C7.11433 57.4593 6.96757 57.3595 6.7964 57.3031C6.62523 57.2466 6.41926 57.2413 6.17851 57.2873C5.94922 57.331 5.7688 57.4129 5.63725 57.5331C5.50461 57.6475 5.41006 57.7903 5.3536 57.9615C5.29031 58.128 5.2606 58.3149 5.26447 58.522C5.26835 58.7292 5.2916 58.9446 5.33424 59.1682Z" fill="#84858A"/>
<path d="M6.74567 49.3506C7.27048 49.3303 7.73139 49.3943 8.1284 49.5424C8.51957 49.6909 8.84918 49.9088 9.11724 50.1963C9.37947 50.484 9.58272 50.8324 9.727 51.2415C9.86544 51.6508 9.94423 52.1033 9.96337 52.5989C9.97283 52.8438 9.97164 53.1154 9.95979 53.4137C9.95356 53.706 9.9259 53.9728 9.87682 54.2141L3.99887 54.4411C3.93132 54.2042 3.88317 53.9404 3.85442 53.6495C3.81961 53.353 3.79748 53.0823 3.78802 52.8374C3.76889 52.3417 3.81547 51.8844 3.92777 51.4654C4.03424 51.0467 4.21002 50.6836 4.45512 50.3763C4.69438 50.0692 5.00621 49.8265 5.3906 49.6482C5.76916 49.47 6.22085 49.3708 6.74567 49.3506ZM9.21718 52.5576C9.18611 51.7529 8.95882 51.1602 8.53532 50.7794C8.10598 50.3989 7.52103 50.2229 6.78046 50.2515C6.03988 50.2801 5.47315 50.5005 5.08027 50.9128C4.68156 51.3253 4.49774 51.934 4.52881 52.7387C4.53805 52.9778 4.54817 53.1642 4.55918 53.2981C4.56996 53.4262 4.57928 53.5164 4.58714 53.5686L9.22302 53.3896C9.22683 53.3369 9.22917 53.2463 9.23005 53.1178C9.2307 52.9834 9.22641 52.7967 9.21718 52.5576Z" fill="#84858A"/>
<path d="M9.89266 47.7148L3.85935 47.0845L4.23953 43.4453L4.96214 43.5208L4.67018 46.3155L6.48975 46.5056L6.74897 44.0243L7.46287 44.0989L7.20365 46.5801L9.98089 46.8703L9.89266 47.7148Z" fill="#84858A"/>
<path d="M5.62144 37.0478C5.8691 36.2326 6.21543 35.6547 6.66042 35.3142C7.10153 34.9664 7.62919 34.8858 8.24339 35.0724C8.57841 35.1742 8.84731 35.3229 9.05009 35.5187C9.24898 35.7072 9.38903 35.9388 9.47024 36.2136C9.54757 36.481 9.57054 36.7868 9.53916 37.131C9.50778 37.4753 9.43017 37.8512 9.30635 38.2588L9.11043 38.9037L11.2629 39.5576L11.0161 40.37L5.29565 38.6322C5.30936 38.3863 5.35025 38.1212 5.41831 37.8369C5.48249 37.5454 5.5502 37.2823 5.62144 37.0478ZM6.35371 37.1971C6.24855 37.5433 6.17635 37.8111 6.13712 38.0004L8.41526 38.6925L8.601 38.0811C8.68582 37.8019 8.7454 37.5455 8.77975 37.312C8.80851 37.0768 8.80392 36.8711 8.76596 36.6949C8.72412 36.5114 8.64054 36.3549 8.51523 36.2253C8.38991 36.0958 8.21 35.9954 7.97548 35.9241C7.75214 35.8563 7.5543 35.845 7.38199 35.8902C7.21137 35.9299 7.06128 36.0123 6.93173 36.1377C6.79828 36.2557 6.68513 36.4073 6.59226 36.5926C6.49938 36.7778 6.41987 36.9793 6.35371 37.1971Z" fill="#84858A"/>
<path d="M12.136 29.231C12.6101 29.457 12.9885 29.7278 13.2711 30.0436C13.5484 30.3568 13.739 30.703 13.8427 31.0821C13.9411 31.4588 13.9591 31.8617 13.8967 32.291C13.8291 32.7177 13.6885 33.155 13.475 33.6027C13.3696 33.824 13.2423 34.0639 13.0931 34.3225C12.9518 34.5784 12.8033 34.8017 12.6476 34.9926L7.33779 32.4613C7.38807 32.2202 7.46809 31.9642 7.57784 31.6933C7.68484 31.4146 7.79107 31.1646 7.89654 30.9434C8.10999 30.4956 8.36381 30.1124 8.65799 29.7936C8.94691 29.4723 9.27129 29.2326 9.63114 29.0745C9.98572 28.9138 10.3746 28.8438 10.7979 28.8646C11.2159 28.8828 11.6619 29.0049 12.136 29.231ZM12.8335 33.2193C13.1801 32.4924 13.2544 31.8619 13.0564 31.3279C12.8531 30.7914 12.417 30.3637 11.748 30.0448C11.079 29.7259 10.4748 29.6576 9.93527 29.8401C9.39051 30.02 8.94485 30.4734 8.59831 31.2003C8.49535 31.4163 8.41763 31.5861 8.36514 31.7098C8.31516 31.8282 8.28151 31.9124 8.26417 31.9623L12.452 33.9587C12.4799 33.9138 12.5241 33.8346 12.5846 33.7213C12.6476 33.6026 12.7306 33.4353 12.8335 33.2193Z" fill="#84858A"/>
<path d="M15.5777 29.416L10.5203 26.0663L12.5407 23.0158L13.1464 23.4169L11.5948 25.7596L13.1201 26.7698L14.4977 24.6899L15.0961 25.0863L13.7185 27.1662L16.0466 28.7081L15.5777 29.416Z" fill="#84858A"/>
<path d="M16.7271 17.9653C17.323 17.3563 17.8968 17.0034 18.4488 16.9066C19.0006 16.8016 19.5059 16.9735 19.9647 17.4225C20.215 17.6673 20.3849 17.9234 20.4745 18.1907C20.564 18.4497 20.5814 18.7198 20.5267 19.001C20.4719 19.2739 20.3511 19.5559 20.1645 19.8468C19.9778 20.1377 19.7355 20.4354 19.4376 20.7399L18.9662 21.2216L20.5742 22.7949L19.9804 23.4018L15.7071 19.2206C15.8327 19.0088 15.9913 18.7925 16.1828 18.5717C16.3743 18.3426 16.5557 18.1405 16.7271 17.9653ZM17.3079 18.4356C17.0549 18.6942 16.8673 18.8985 16.7451 19.0484L18.4469 20.7135L18.8938 20.2568C19.0979 20.0482 19.269 19.8483 19.4072 19.6569C19.5413 19.4615 19.6321 19.2769 19.6798 19.1031C19.7273 18.921 19.7254 18.7435 19.674 18.5708C19.6226 18.398 19.5093 18.2259 19.3341 18.0545C19.1672 17.8913 18.9969 17.79 18.8232 17.7506C18.6535 17.7071 18.4823 17.711 18.3095 17.7624C18.1367 17.8055 17.9663 17.8879 17.7985 18.0094C17.6306 18.1309 17.4671 18.273 17.3079 18.4356Z" fill="#84858A"/>
<path d="M26.1577 13.9852C26.4744 14.4042 26.6854 14.819 26.7908 15.2294C26.8926 15.6352 26.9022 16.0302 26.8196 16.4145C26.7335 16.7942 26.5638 17.1601 26.3106 17.5123C26.054 17.8599 25.7278 18.1832 25.332 18.4823C25.1365 18.6301 24.913 18.7843 24.6615 18.9452C24.4181 19.1071 24.1834 19.2369 23.9573 19.3346L20.4108 14.6417C20.5665 14.4508 20.7555 14.2605 20.9777 14.0706C21.2011 13.8725 21.4105 13.6996 21.6061 13.5519C22.0018 13.2528 22.4037 13.0296 22.8116 12.8822C23.2161 12.7302 23.6144 12.6669 24.0067 12.6923C24.3954 12.713 24.7728 12.8301 25.1389 13.0435C25.5015 13.2523 25.8411 13.5662 26.1577 13.9852ZM24.9393 17.8465C25.5818 17.3609 25.9382 16.8356 26.0085 16.2704C26.0753 15.7006 25.8853 15.1201 25.4384 14.5288C24.9916 13.9375 24.4867 13.5986 23.9239 13.5119C23.3575 13.4206 22.753 13.6177 22.1105 14.1032C21.9197 14.2475 21.7724 14.3624 21.6689 14.448C21.57 14.5301 21.5013 14.5892 21.4629 14.6256L24.26 18.3269C24.3055 18.2999 24.3811 18.25 24.4871 18.1772C24.5977 18.101 24.7484 17.9907 24.9393 17.8465Z" fill="#84858A"/>
<path d="M29.0999 15.7471L26.1503 10.4464L29.3476 8.66721L29.7009 9.30208L27.2455 10.6684L28.1351 12.267L30.3151 11.0539L30.6641 11.6812L28.4841 12.8942L29.8419 15.3342L29.0999 15.7471Z" fill="#84858A"/>
<path d="M35.3005 6.13753C36.1099 5.87147 36.7818 5.82259 37.3163 5.9909C37.8545 6.15185 38.2238 6.53723 38.4243 7.14705C38.5336 7.47968 38.5665 7.78523 38.5229 8.06371C38.483 8.33482 38.374 8.58257 38.1959 8.80697C38.0215 9.024 37.7845 9.21863 37.4848 9.39085C37.1852 9.56307 36.833 9.7157 36.4283 9.84873L35.788 10.0592L36.4905 12.1963L35.6839 12.4615L33.8169 6.78186C34.026 6.65171 34.2664 6.53275 34.5381 6.42501C34.8135 6.30989 35.0677 6.21407 35.3005 6.13753ZM35.5994 6.8225C35.2557 6.93548 34.9951 7.03036 34.8176 7.10713L35.5611 9.369L36.1681 9.16946C36.4453 9.07834 36.6893 8.9797 36.9002 8.87355C37.1092 8.76185 37.2748 8.63982 37.3972 8.50746C37.5232 8.36773 37.6033 8.20936 37.6372 8.03234C37.6712 7.85532 37.6499 7.65039 37.5733 7.41755C37.5004 7.1958 37.396 7.02743 37.2599 6.91245C37.1293 6.79565 36.9756 6.72027 36.7985 6.68631C36.6252 6.64499 36.4361 6.63959 36.2311 6.67011C36.0262 6.70063 35.8156 6.75143 35.5994 6.8225Z" fill="#84858A"/>
<path d="M45.6001 6.93631C45.6867 7.45434 45.6816 7.91964 45.5848 8.33221C45.4871 8.73902 45.3126 9.09357 45.0614 9.39587C44.8092 9.6924 44.4893 9.93812 44.1018 10.133C43.7133 10.3222 43.2745 10.4576 42.7852 10.5393C42.5435 10.5797 42.2739 10.6129 41.9765 10.6389C41.6858 10.6697 41.4177 10.676 41.1721 10.6579L40.2029 4.85597C40.4293 4.75899 40.6849 4.67783 40.9698 4.61249C41.2595 4.54043 41.5252 4.48421 41.767 4.44383C42.2562 4.3621 42.7158 4.35042 43.1456 4.40878C43.5745 4.46139 43.9568 4.58981 44.2927 4.79403C44.6276 4.9925 44.9078 5.27109 45.1334 5.62982C45.358 5.98278 45.5136 6.41828 45.6001 6.93631ZM42.7317 9.7939C43.526 9.66122 44.0852 9.36073 44.4093 8.89243C44.7324 8.41838 44.8329 7.81586 44.7108 7.08486C44.5887 6.35386 44.2983 5.8196 43.8396 5.48207C43.38 5.13878 42.753 5.03348 41.9587 5.16616C41.7227 5.20558 41.539 5.23923 41.4075 5.2671C41.2819 5.29401 41.1936 5.31467 41.1428 5.32908L41.9071 9.90501C41.9599 9.90211 42.0501 9.89297 42.1777 9.87757C42.311 9.86121 42.4957 9.83332 42.7317 9.7939Z" fill="#84858A"/>
<path d="M47.3675 9.86102L47.2036 3.79708L50.8612 3.69823L50.8808 4.42451L48.072 4.50042L48.1214 6.32922L50.6153 6.26183L50.6346 6.97935L48.1408 7.04674L48.2163 9.83808L47.3675 9.86102Z" fill="#84858A"/>
<path d="M57.5928 4.23335C58.4331 4.37373 59.0509 4.64258 59.446 5.03991C59.8478 5.43244 59.9959 5.94528 59.8901 6.57843C59.8324 6.92378 59.7196 7.20963 59.5516 7.43598C59.3904 7.65754 59.1788 7.82631 58.9168 7.9423C58.6616 8.05349 58.3613 8.11574 58.0159 8.12905C57.6705 8.14235 57.2877 8.11391 56.8675 8.04372L56.2027 7.93267L55.8321 10.1516L54.9946 10.0117L55.9796 4.11476C56.2252 4.09662 56.4934 4.10295 56.7841 4.13376C57.0815 4.15977 57.351 4.19297 57.5928 4.23335ZM57.5393 4.97877C57.1824 4.91915 56.9076 4.88212 56.7147 4.86766L56.3224 7.21606L56.9527 7.32134C57.2405 7.36942 57.5024 7.39542 57.7384 7.39934C57.9754 7.39751 58.1788 7.3664 58.3486 7.30603C58.5252 7.24085 58.6696 7.13777 58.7819 6.99679C58.8942 6.8558 58.9705 6.66443 59.0109 6.42269C59.0494 6.19245 59.035 5.99481 58.9679 5.82978C58.9066 5.6657 58.8054 5.52751 58.6645 5.41522C58.5302 5.29812 58.3652 5.20548 58.1695 5.13729C57.9738 5.06911 57.7637 5.01626 57.5393 4.97877Z" fill="#84858A"/>
<path d="M66.3441 9.72871C66.1801 10.2276 65.9595 10.6373 65.6821 10.9577C65.4066 11.2726 65.0874 11.5055 64.7245 11.6565C64.3634 11.802 63.966 11.871 63.5323 11.8636C63.1004 11.8506 62.6489 11.7667 62.1777 11.6118C61.9448 11.5352 61.6907 11.4394 61.4152 11.3243C61.1435 11.2165 60.9031 11.0976 60.694 10.9674L62.531 5.37926C62.7765 5.39854 63.0406 5.44542 63.3232 5.51991C63.6132 5.59067 63.8747 5.66432 64.1075 5.74086C64.5787 5.89576 64.9911 6.09888 65.3446 6.35023C65.7 6.59604 65.9789 6.88737 66.1815 7.22424C66.3858 7.55556 66.5046 7.93245 66.5377 8.35492C66.5727 8.77183 66.5082 9.22976 66.3441 9.72871ZM62.4765 10.9268C63.2416 11.1783 63.8764 11.1719 64.3809 10.9078C64.8873 10.6381 65.2562 10.1512 65.4876 9.44716C65.7191 8.74309 65.7101 8.13507 65.4607 7.62308C65.2131 7.10555 64.7067 6.72105 63.9417 6.46956C63.7144 6.39485 63.5361 6.33931 63.4068 6.30294C63.283 6.26839 63.1952 6.24569 63.1435 6.23483L61.6947 10.6422C61.7428 10.6641 61.8269 10.6979 61.9471 10.7435C62.0728 10.791 62.2492 10.8521 62.4765 10.9268Z" fill="#84858A"/>
<path d="M66.4288 13.088L69.1 7.64164L72.3851 9.25284L72.0652 9.90515L69.5424 8.66784L68.7368 10.3104L70.9766 11.4089L70.6606 12.0534L68.4207 10.9548L67.1911 13.4619L66.4288 13.088Z" fill="#84858A"/>
<path d="M78.0164 12.7999C78.6962 13.3136 79.1191 13.838 79.2852 14.3731C79.4595 14.9072 79.3532 15.4302 78.9661 15.9424C78.755 16.2217 78.5226 16.4228 78.2689 16.5456C78.0234 16.6672 77.7576 16.7188 77.4718 16.7002C77.1941 16.6805 76.8991 16.5966 76.5868 16.4484C76.2746 16.3002 75.9485 16.0977 75.6086 15.8408L75.0709 15.4345L73.7146 17.2293L73.0372 16.7173L76.6417 11.9475C76.8678 12.0452 77.1025 12.1751 77.3459 12.337C77.5974 12.4978 77.8209 12.6521 78.0164 12.7999ZM77.6237 13.4357C77.3351 13.2176 77.1086 13.0574 76.9444 12.9553L75.5089 14.8548L76.0187 15.2401C76.2515 15.416 76.4716 15.5604 76.6789 15.6732C76.8898 15.7813 77.0845 15.848 77.2629 15.8731C77.4496 15.8972 77.6253 15.8727 77.7902 15.7998C77.955 15.7268 78.1113 15.5926 78.2591 15.3971C78.3998 15.2108 78.4787 15.0291 78.4957 14.8517C78.5173 14.6779 78.4917 14.5086 78.4187 14.3437C78.354 14.1778 78.2507 14.0192 78.1088 13.8682C77.967 13.7171 77.8053 13.5729 77.6237 13.4357Z" fill="#84858A"/>
<path d="M83.1776 21.6549C82.8022 22.0222 82.4177 22.2842 82.0239 22.4408C81.6344 22.5934 81.2437 22.6531 80.8521 22.6199C80.4646 22.5827 80.08 22.4609 79.6985 22.2545C79.3212 22.0441 78.959 21.7616 78.6121 21.407C78.4407 21.2318 78.2593 21.0297 78.0678 20.8007C77.8763 20.5799 77.7177 20.3635 77.5921 20.1517L81.7966 16.0379C82.0056 16.1681 82.2185 16.3313 82.435 16.5276C82.6599 16.724 82.858 16.9098 83.0294 17.085C83.3763 17.4396 83.6487 17.8098 83.8467 18.1958C84.0489 18.5776 84.1623 18.9647 84.1869 19.357C84.2157 19.7452 84.1475 20.1344 83.9823 20.5247C83.8213 20.9108 83.5531 21.2876 83.1776 21.6549ZM79.1929 20.9367C79.7561 21.5123 80.3225 21.7991 80.892 21.7971C81.4657 21.791 82.0174 21.5287 82.5471 21.0104C83.0768 20.4921 83.3489 19.9483 83.3634 19.379C83.382 18.8056 83.1097 18.2311 82.5465 17.6554C82.3792 17.4844 82.2465 17.353 82.1485 17.2611C82.0545 17.1734 81.9871 17.1129 81.9462 17.0794L78.6301 20.324C78.6627 20.3656 78.7218 20.4343 78.8074 20.5302C78.8971 20.6302 79.0256 20.7657 79.1929 20.9367Z" fill="#84858A"/>
<path d="M81.7986 24.7876L86.678 21.1835L88.8519 24.1266L88.2675 24.5583L86.5981 22.2981L85.1265 23.3851L86.6087 25.3918L86.0314 25.8182L84.5492 23.8116L82.3031 25.4706L81.7986 24.7876Z" fill="#84858A"/>
<path d="M92.2097 29.8692C92.5764 30.6383 92.7101 31.2986 92.611 31.8501C92.5197 32.4044 92.1843 32.8196 91.6048 33.0959C91.2888 33.2465 90.9899 33.3179 90.7081 33.31C90.4341 33.3049 90.1745 33.2282 89.9294 33.08C89.6919 32.9346 89.4688 32.7242 89.2599 32.4488C89.0511 32.1734 88.855 31.8434 88.6717 31.4589L88.3816 30.8505L86.3509 31.8185L85.9856 31.0521L91.3823 28.4794C91.538 28.6702 91.6865 28.8936 91.8278 29.1495C91.977 29.4081 92.1043 29.648 92.2097 29.8692ZM91.5682 30.2526C91.4126 29.926 91.2854 29.6796 91.1867 29.5133L89.0375 30.5378L89.3124 31.1146C89.438 31.378 89.5668 31.6075 89.6989 31.8032C89.8362 31.9963 89.9783 32.1452 90.1251 32.2497C90.2797 32.357 90.4469 32.4163 90.6268 32.4275C90.8067 32.4387 91.0073 32.3916 91.2285 32.2861C91.4392 32.1857 91.593 32.0607 91.6898 31.9111C91.789 31.7668 91.8443 31.6047 91.8555 31.4248C91.8745 31.2477 91.8559 31.0594 91.7996 30.8599C91.7433 30.6605 91.6662 30.4581 91.5682 30.2526Z" fill="#84858A"/>
<path d="M92.6793 40.0543C92.1768 40.2069 91.7148 40.2619 91.2931 40.2192C90.8771 40.1748 90.503 40.0476 90.1708 39.8375C89.8442 39.6256 89.5593 39.3402 89.316 38.981C89.0783 38.6202 88.8874 38.2025 88.7432 37.7279C88.6719 37.4934 88.6042 37.2303 88.5401 36.9388C88.472 36.6545 88.4311 36.3894 88.4174 36.1435L94.0457 34.4337C94.1711 34.6457 94.2846 34.8887 94.3862 35.1628C94.495 35.4408 94.5851 35.697 94.6563 35.9315C94.8005 36.4061 94.8714 36.8603 94.869 37.2941C94.8721 37.7261 94.7941 38.1219 94.635 38.4813C94.4814 38.839 94.2413 39.1528 93.9147 39.4228C93.5937 39.6911 93.1819 39.9016 92.6793 40.0543ZM89.4755 37.5786C89.7096 38.3492 90.0797 38.8649 90.5859 39.1259C91.0977 39.3851 91.7081 39.407 92.4173 39.1916C93.1264 38.9762 93.6187 38.6192 93.8942 38.1208C94.1753 37.6207 94.1988 36.9853 93.9647 36.2148C93.8952 35.9859 93.8381 35.808 93.7935 35.6813C93.7506 35.5602 93.7187 35.4753 93.6979 35.4268L89.2589 36.7753C89.2686 36.8273 89.2893 36.9155 89.321 37.04C89.3544 37.1702 89.4059 37.3497 89.4755 37.5786Z" fill="#84858A"/>
<path d="M90.0164 42.2691L96.0107 41.3385L96.5721 44.9541L95.8541 45.0656L95.4231 42.289L93.6153 42.5697L93.998 45.0349L93.2887 45.145L92.906 42.6798L90.1467 43.1082L90.0164 42.2691Z" fill="#84858A"/>
</svg>
